<svg xmlns="http://www.w3.org/2000/svg" xmlns:xlink="http://www.w3.org/1999/xlink" width="500" zoomAndPan="magnify" viewBox="0 0 375 374.999991" height="500" preserveAspectRatio="xMidYMid meet" version="1.0"><defs><filter x="0%" y="0%" width="100%" height="100%" id="id1"><feColorMatrix values="0 0 0 0 1 0 0 0 0 1 0 0 0 0 1 0 0 0 1 0" color-interpolation-filters="sRGB"/></filter><g/><mask id="id2"><g filter="url(#id1)"><rect x="-37.5" width="450" fill="rgb(0%, 0%, 0%)" y="-37.499999" height="449.999989" fill-opacity="0.2471"/></g></mask><clipPath id="id3"><path d="M 27 40 L 158 40 L 158 140 L 27 140 Z M 27 40 " clip-rule="nonzero"/></clipPath><clipPath id="id4"><path d="M 181.996094 117.375 L 48.042969 172.230469 L 0.292969 55.628906 L 134.242188 0.773438 Z M 181.996094 117.375 " clip-rule="nonzero"/></clipPath><clipPath id="id5"><path d="M 181.996094 117.375 L 48.042969 172.230469 L 0.292969 55.628906 L 134.242188 0.773438 Z M 181.996094 117.375 " clip-rule="nonzero"/></clipPath><clipPath id="id6"><path d="M 181.996094 117.375 L 48.042969 172.230469 L 0.292969 55.628906 L 134.242188 0.773438 Z M 181.996094 117.375 " clip-rule="nonzero"/></clipPath><clipPath id="id7"><rect x="0" width="183" y="0" height="173"/></clipPath><clipPath id="id8"><path d="M 100 38 L 278.996094 38 L 278.996094 216.289062 L 100 216.289062 Z M 100 38 " clip-rule="nonzero"/></clipPath><clipPath id="id9"><path d="M 195 22.789062 L 239 22.789062 L 239 94 L 195 94 Z M 195 22.789062 " clip-rule="nonzero"/></clipPath></defs><g mask="url(#id2)"><g transform="matrix(1, 0, 0, 1, 69, 34)"><g clip-path="url(#id7)"><g clip-path="url(#id3)"><g clip-path="url(#id4)"><g clip-path="url(#id5)"><g clip-path="url(#id6)"><path fill="rgb(46.269226%, 79.998779%, 81.17981%)" d="M 76.136719 136.019531 C 51.636719 127.148438 5.53125 68.171875 40.597656 45.054688 C 64.3125 29.414062 68.082031 54.445312 100.585938 74.039062 C 111.355469 80.519531 164.042969 73.785156 156.292969 107.175781 C 151.695312 126.960938 108.183594 147.601562 76.136719 136.019531 Z M 76.136719 136.019531 " fill-opacity="1" fill-rule="nonzero"/></g></g></g></g></g></g></g><g clip-path="url(#id8)"><path fill="rgb(0%, 0%, 0%)" d="M 242.773438 55.703125 C 242.65625 55.613281 242.527344 55.546875 242.386719 55.507812 C 242.242188 55.46875 242.097656 55.457031 241.953125 55.476562 C 241.804688 55.496094 241.667969 55.542969 241.539062 55.617188 C 241.414062 55.695312 241.304688 55.789062 241.21875 55.910156 C 241.128906 56.027344 241.066406 56.160156 241.03125 56.304688 C 240.996094 56.445312 240.992188 56.589844 241.015625 56.738281 C 241.039062 56.882812 241.089844 57.019531 241.167969 57.144531 C 241.246094 57.269531 241.34375 57.375 241.464844 57.460938 C 263.304688 73.726562 276.011719 98.753906 276.339844 126.128906 C 276.453125 135.207031 275.179688 144.089844 272.519531 152.769531 C 270.839844 154.917969 269.167969 157.066406 267.433594 159.171875 C 265.484375 161.597656 263.414062 163.914062 261.21875 166.121094 C 260.722656 166.609375 260.214844 167.085938 259.695312 167.542969 C 259.445312 167.765625 259.191406 167.984375 258.9375 168.195312 L 258.578125 168.484375 L 258.425781 168.609375 C 258.542969 168.511719 258.394531 168.609375 258.363281 168.652344 C 257.109375 169.605469 255.765625 170.425781 254.476562 171.328125 C 253.070312 172.253906 251.804688 173.34375 250.679688 174.597656 C 249.589844 175.859375 248.828125 177.296875 248.390625 178.90625 C 247.976562 180.460938 247.886719 182.03125 248.121094 183.621094 C 248.355469 185.210938 248.898438 186.6875 249.746094 188.050781 C 249.972656 188.398438 250.222656 188.722656 250.480469 189.042969 C 248.484375 191.023438 246.402344 192.898438 244.222656 194.675781 C 242.046875 196.449219 239.789062 198.113281 237.449219 199.667969 C 235.113281 201.222656 232.703125 202.65625 230.222656 203.976562 C 227.742188 205.292969 225.207031 206.484375 222.609375 207.554688 C 220.011719 208.625 217.371094 209.5625 214.683594 210.375 C 211.996094 211.183594 209.277344 211.859375 206.523438 212.402344 C 203.769531 212.949219 200.992188 213.355469 198.199219 213.625 C 195.40625 213.898438 192.605469 214.035156 189.800781 214.03125 L 189.652344 214.03125 C 186.875 214.042969 184.105469 213.917969 181.34375 213.660156 C 178.578125 213.40625 175.835938 213.015625 173.109375 212.492188 C 170.382812 211.96875 167.6875 211.316406 165.027344 210.535156 C 162.363281 209.75 159.742188 208.839844 157.167969 207.804688 C 154.59375 206.765625 152.074219 205.609375 149.609375 204.328125 C 147.148438 203.046875 144.75 201.652344 142.421875 200.140625 C 140.09375 198.628906 137.84375 197.007812 135.671875 195.277344 C 133.5 193.546875 131.414062 191.71875 129.417969 189.785156 C 130.074219 188.636719 130.582031 187.425781 130.933594 186.152344 C 131.289062 184.875 131.476562 183.574219 131.503906 182.253906 C 131.535156 180.929688 131.398438 179.625 131.097656 178.335938 C 130.796875 177.046875 130.34375 175.8125 129.734375 174.636719 C 128.519531 172.3125 126.601562 170.5625 124.792969 168.726562 C 124.34375 168.273438 123.929688 167.820312 123.53125 167.367188 L 123.257812 167.03125 L 123.230469 167 C 123.1875 166.957031 123.152344 166.894531 123.117188 166.847656 C 122.941406 166.609375 122.773438 166.367188 122.621094 166.113281 C 122.472656 165.878906 122.335938 165.632812 122.214844 165.382812 L 122.117188 165.175781 C 122.0625 165.035156 122.015625 164.894531 121.964844 164.75 C 121.878906 164.484375 121.8125 164.21875 121.761719 163.945312 C 121.761719 163.890625 121.734375 163.816406 121.730469 163.753906 L 121.730469 163.699219 C 121.730469 163.550781 121.730469 163.40625 121.703125 163.246094 C 121.703125 163.011719 121.703125 162.792969 121.734375 162.546875 C 121.734375 162.546875 121.734375 162.566406 121.734375 162.582031 C 121.75 162.519531 121.757812 162.457031 121.765625 162.390625 C 121.765625 162.269531 121.8125 162.148438 121.84375 162.023438 C 121.894531 161.800781 121.960938 161.578125 122.035156 161.359375 C 122.078125 161.242188 122.121094 161.128906 122.164062 161.011719 L 122.230469 160.855469 C 122.664062 159.941406 123.1875 159.078125 123.804688 158.277344 C 123.84375 158.222656 123.890625 158.167969 123.925781 158.113281 L 124.144531 157.835938 L 124.667969 157.195312 C 125.003906 156.78125 125.339844 156.378906 125.671875 155.96875 C 126.378906 155.121094 127.03125 154.230469 127.621094 153.296875 C 128.777344 151.371094 129.363281 149.070312 128.648438 146.875 C 127.804688 144.300781 125.566406 142.449219 123.199219 141.296875 C 120.386719 140 117.433594 139.277344 114.339844 139.128906 C 111.195312 138.933594 108.117188 139.292969 105.105469 140.203125 C 104.710938 140.320312 104.328125 140.453125 103.945312 140.585938 C 103.300781 136.351562 102.964844 132.089844 102.933594 127.800781 C 102.847656 117.609375 104.503906 107.710938 107.90625 98.105469 C 108.148438 97.445312 108.464844 96.824219 108.855469 96.238281 C 109.246094 95.65625 109.699219 95.125 110.21875 94.648438 C 110.734375 94.175781 111.300781 93.769531 111.917969 93.429688 C 112.535156 93.089844 113.179688 92.828125 113.859375 92.648438 C 117.53125 91.621094 120.292969 91.609375 121.625 92.648438 C 122.363281 93.203125 122.71875 94.117188 122.71875 95.433594 C 122.71875 99.734375 120.75 103.855469 118.652344 108.226562 C 116.554688 112.59375 114.378906 117.167969 114.378906 121.964844 C 114.378906 124.574219 114.632812 127.351562 116.507812 128.128906 C 119.085938 129.195312 122.683594 126.179688 132.898438 115.949219 C 138.8125 110.027344 144.53125 108.707031 149.121094 107.625 C 154.371094 106.402344 158.902344 105.359375 160.445312 98.054688 C 161.84375 91.429688 159.441406 85.054688 157.328125 79.425781 C 155.28125 73.996094 153.359375 68.890625 155.09375 64.488281 C 157.003906 59.632812 159.117188 57.609375 160.925781 56.265625 C 161.390625 55.925781 161.832031 55.554688 162.238281 55.144531 C 162.648438 54.738281 163.019531 54.300781 163.359375 53.832031 C 163.699219 53.367188 164 52.875 164.261719 52.359375 C 164.523438 51.84375 164.742188 51.3125 164.917969 50.761719 C 165.097656 50.214844 165.226562 49.652344 165.316406 49.082031 C 165.40625 48.511719 165.445312 47.9375 165.445312 47.359375 C 165.441406 46.78125 165.394531 46.207031 165.300781 45.636719 C 165.203125 45.066406 165.066406 44.507812 164.882812 43.960938 C 172.335938 41.746094 179.949219 40.554688 187.71875 40.386719 L 187.746094 40.386719 C 188.652344 40.386719 189.511719 40.359375 190.390625 40.386719 C 190.535156 40.386719 190.675781 40.359375 190.808594 40.304688 C 190.945312 40.25 191.0625 40.167969 191.164062 40.066406 C 191.269531 39.964844 191.347656 39.847656 191.402344 39.710938 C 191.457031 39.578125 191.484375 39.4375 191.484375 39.292969 C 191.484375 39.148438 191.457031 39.007812 191.402344 38.871094 C 191.347656 38.738281 191.269531 38.621094 191.164062 38.515625 C 191.0625 38.414062 190.945312 38.335938 190.808594 38.28125 C 190.675781 38.222656 190.535156 38.195312 190.390625 38.195312 L 189.425781 38.195312 C 186.390625 38.199219 183.363281 38.355469 180.347656 38.667969 C 177.328125 38.980469 174.335938 39.445312 171.367188 40.066406 C 168.394531 40.683594 165.464844 41.453125 162.574219 42.375 C 159.679688 43.292969 156.84375 44.359375 154.0625 45.570312 C 151.28125 46.78125 148.566406 48.132812 145.921875 49.621094 C 143.277344 51.109375 140.714844 52.730469 138.238281 54.480469 C 135.757812 56.234375 133.375 58.109375 131.089844 60.105469 C 128.800781 62.101562 126.621094 64.210938 124.550781 66.429688 C 124.449219 66.535156 124.371094 66.65625 124.320312 66.792969 C 124.265625 66.929688 124.242188 67.070312 124.246094 67.21875 C 124.25 67.363281 124.285156 67.503906 124.34375 67.636719 C 124.402344 67.773438 124.488281 67.886719 124.59375 67.988281 C 124.703125 68.089844 124.824219 68.164062 124.960938 68.214844 C 125.097656 68.265625 125.238281 68.289062 125.386719 68.28125 C 125.53125 68.273438 125.671875 68.242188 125.804688 68.179688 C 125.9375 68.117188 126.050781 68.03125 126.148438 67.921875 C 131.164062 62.539062 136.773438 57.871094 142.972656 53.917969 C 149.175781 49.964844 155.773438 46.855469 162.765625 44.585938 C 163.066406 45.472656 163.21875 46.382812 163.226562 47.316406 C 163.238281 48.253906 163.097656 49.167969 162.8125 50.058594 C 162.527344 50.949219 162.109375 51.773438 161.5625 52.53125 C 161.011719 53.289062 160.359375 53.941406 159.601562 54.484375 C 157.542969 56.011719 155.15625 58.292969 153.035156 63.664062 C 150.992188 68.851562 153.0625 74.355469 155.257812 80.179688 C 157.367188 85.785156 159.550781 91.578125 158.285156 97.578125 C 157.03125 103.5 153.859375 104.242188 148.605469 105.464844 C 143.742188 106.601562 137.6875 108.007812 131.335938 114.375 C 126.40625 119.304688 118.972656 126.746094 117.320312 126.078125 C 117.191406 126.023438 116.542969 125.570312 116.542969 121.945312 C 116.542969 117.644531 118.515625 113.519531 120.613281 109.148438 C 122.710938 104.78125 124.890625 100.207031 124.890625 95.410156 C 124.890625 93.390625 124.230469 91.863281 122.933594 90.882812 C 120.984375 89.402344 117.722656 89.285156 113.25 90.539062 C 112.40625 90.769531 111.597656 91.101562 110.832031 91.527344 C 110.066406 91.957031 109.363281 92.46875 108.71875 93.0625 C 108.074219 93.660156 107.511719 94.324219 107.027344 95.054688 C 106.542969 95.789062 106.152344 96.566406 105.855469 97.390625 C 105.257812 99.0625 104.710938 100.75 104.21875 102.457031 C 103.722656 104.160156 103.277344 105.878906 102.886719 107.609375 C 102.492188 109.339844 102.152344 111.082031 101.863281 112.832031 C 101.574219 114.585938 101.339844 116.34375 101.15625 118.109375 C 100.972656 119.875 100.84375 121.644531 100.765625 123.417969 C 100.6875 125.191406 100.664062 126.964844 100.691406 128.738281 C 100.71875 130.515625 100.800781 132.289062 100.9375 134.058594 C 101.070312 135.828125 101.257812 137.59375 101.5 139.351562 C 101.738281 141.109375 102.03125 142.859375 102.375 144.601562 C 102.71875 146.34375 103.117188 148.070312 103.566406 149.789062 C 104.011719 151.507812 104.511719 153.207031 105.0625 154.894531 C 105.613281 156.582031 106.210938 158.253906 106.863281 159.90625 C 107.511719 161.554688 108.210938 163.1875 108.957031 164.796875 C 109.703125 166.40625 110.5 167.992188 111.34375 169.554688 C 112.183594 171.117188 113.070312 172.652344 114.007812 174.160156 C 114.941406 175.667969 115.917969 177.148438 116.941406 178.597656 C 117.960938 180.046875 119.027344 181.464844 120.136719 182.851562 C 121.242188 184.238281 122.390625 185.589844 123.578125 186.90625 C 124.765625 188.226562 125.992188 189.503906 127.257812 190.75 C 128.519531 191.992188 129.820312 193.199219 131.160156 194.363281 C 132.496094 195.527344 133.867188 196.652344 135.269531 197.738281 C 136.671875 198.820312 138.109375 199.859375 139.574219 200.859375 C 141.039062 201.855469 142.535156 202.808594 144.058594 203.714844 C 145.582031 204.625 147.128906 205.484375 148.703125 206.300781 C 150.277344 207.113281 151.875 207.882812 153.496094 208.601562 C 155.117188 209.320312 156.757812 209.988281 158.417969 210.609375 C 160.078125 211.230469 161.757812 211.800781 163.453125 212.320312 C 165.144531 212.839844 166.855469 213.308594 168.578125 213.726562 C 170.300781 214.144531 172.035156 214.511719 173.777344 214.824219 C 175.523438 215.136719 177.273438 215.398438 179.035156 215.605469 C 180.792969 215.816406 182.558594 215.972656 184.328125 216.074219 C 186.097656 216.175781 187.871094 216.226562 189.640625 216.222656 L 189.800781 216.222656 C 191.265625 216.21875 192.726562 216.179688 194.191406 216.105469 C 195.652344 216.03125 197.113281 215.917969 198.570312 215.773438 C 200.027344 215.625 201.480469 215.441406 202.929688 215.222656 C 204.375 215.003906 205.816406 214.75 207.253906 214.457031 C 208.6875 214.167969 210.117188 213.839844 211.535156 213.480469 C 212.953125 213.117188 214.363281 212.722656 215.765625 212.292969 C 217.164062 211.859375 218.550781 211.394531 219.929688 210.894531 C 221.304688 210.394531 222.671875 209.863281 224.019531 209.296875 C 225.371094 208.726562 226.707031 208.128906 228.027344 207.496094 C 229.347656 206.859375 230.652344 206.195312 231.941406 205.496094 C 233.230469 204.800781 234.5 204.070312 235.753906 203.308594 C 237.003906 202.546875 238.238281 201.757812 239.449219 200.933594 C 240.664062 200.113281 241.855469 199.261719 243.027344 198.382812 C 244.195312 197.5 245.34375 196.589844 246.472656 195.652344 C 247.597656 194.714844 248.699219 193.75 249.777344 192.757812 C 250.859375 191.765625 251.910156 190.746094 252.9375 189.703125 C 253.96875 188.660156 254.96875 187.589844 255.945312 186.496094 C 256.921875 185.402344 257.867188 184.285156 258.789062 183.144531 C 259.710938 182.003906 260.601562 180.839844 261.464844 179.652344 C 262.328125 178.46875 263.160156 177.261719 263.964844 176.035156 C 264.765625 174.8125 265.539062 173.566406 266.28125 172.300781 C 267.023438 171.035156 267.734375 169.753906 268.414062 168.453125 C 269.09375 167.15625 269.738281 165.839844 270.351562 164.507812 C 270.964844 163.175781 271.546875 161.828125 272.09375 160.46875 C 272.640625 159.109375 273.15625 157.734375 273.636719 156.347656 C 274.113281 154.964844 274.558594 153.566406 274.972656 152.15625 C 275.382812 150.75 275.757812 149.332031 276.097656 147.90625 C 276.4375 146.480469 276.746094 145.046875 277.015625 143.605469 C 277.285156 142.164062 277.519531 140.714844 277.71875 139.261719 C 277.917969 137.808594 278.078125 136.351562 278.207031 134.890625 C 278.332031 133.429688 278.421875 131.964844 278.476562 130.5 C 278.53125 129.03125 278.550781 127.566406 278.53125 126.101562 C 278.191406 98.039062 265.160156 72.378906 242.773438 55.703125 Z M 104.316406 142.8125 C 105.476562 142.378906 106.664062 142.035156 107.875 141.78125 C 108.230469 141.710938 108.59375 141.644531 108.957031 141.582031 L 109.523438 141.496094 L 109.554688 141.496094 L 109.953125 141.449219 C 110.683594 141.371094 111.414062 141.320312 112.152344 141.304688 C 112.886719 141.285156 113.683594 141.304688 114.453125 141.351562 C 114.816406 141.375 115.179688 141.40625 115.546875 141.449219 L 115.96875 141.496094 L 116.148438 141.523438 L 116.445312 141.570312 C 117.917969 141.796875 119.359375 142.160156 120.765625 142.65625 L 121.21875 142.828125 L 121.441406 142.917969 C 121.738281 143.042969 122.03125 143.183594 122.316406 143.328125 C 122.863281 143.601562 123.390625 143.910156 123.894531 144.257812 C 124.011719 144.34375 124.144531 144.425781 124.257812 144.523438 L 124.445312 144.675781 C 124.695312 144.882812 124.933594 145.101562 125.160156 145.332031 C 125.347656 145.515625 125.523438 145.707031 125.683594 145.917969 C 125.65625 145.878906 125.640625 145.863281 125.683594 145.957031 L 125.820312 146.148438 C 125.90625 146.273438 125.992188 146.40625 126.070312 146.542969 C 126.148438 146.671875 126.222656 146.808594 126.289062 146.949219 C 126.316406 146.992188 126.339844 147.039062 126.359375 147.089844 C 126.359375 147.101562 126.359375 147.113281 126.359375 147.125 C 126.496094 147.402344 126.585938 147.691406 126.625 148 C 126.664062 148.113281 126.6875 148.230469 126.695312 148.351562 L 126.695312 148.414062 C 126.703125 148.472656 126.703125 148.535156 126.695312 148.59375 C 126.714844 148.839844 126.714844 149.085938 126.695312 149.328125 C 126.695312 149.429688 126.609375 149.851562 126.695312 149.476562 C 126.675781 149.578125 126.664062 149.683594 126.644531 149.78125 C 126.613281 150.027344 126.574219 150.269531 126.515625 150.507812 C 126.453125 150.707031 126.375 150.898438 126.304688 151.089844 L 126.234375 151.242188 L 126.0625 151.585938 C 125.832031 152.027344 125.574219 152.453125 125.292969 152.867188 C 125.160156 153.0625 125.023438 153.25 124.882812 153.441406 C 124.8125 153.539062 124.738281 153.640625 124.664062 153.734375 C 124.617188 153.785156 124.582031 153.84375 124.535156 153.898438 C 123.898438 154.707031 123.230469 155.496094 122.582031 156.300781 C 121.289062 157.921875 119.980469 159.710938 119.613281 161.804688 C 119.386719 163.019531 119.460938 164.214844 119.84375 165.386719 C 120.289062 166.609375 120.9375 167.714844 121.785156 168.699219 C 122.574219 169.628906 123.414062 170.515625 124.296875 171.359375 C 124.75 171.8125 125.171875 172.230469 125.59375 172.675781 C 125.789062 172.886719 125.976562 173.09375 126.164062 173.308594 L 126.472656 173.671875 L 126.574219 173.800781 L 126.652344 173.894531 C 127.027344 174.402344 127.367188 174.929688 127.671875 175.480469 C 127.8125 175.734375 127.945312 175.996094 128.070312 176.257812 C 128.132812 176.398438 128.199219 176.535156 128.257812 176.675781 L 128.378906 176.988281 C 128.601562 177.578125 128.785156 178.183594 128.929688 178.796875 C 128.992188 179.082031 129.050781 179.375 129.105469 179.664062 C 129.105469 179.804688 129.160156 179.953125 129.175781 180.117188 C 129.175781 180.230469 129.195312 180.339844 129.210938 180.453125 C 129.269531 181.0625 129.292969 181.679688 129.28125 182.292969 C 129.28125 182.601562 129.261719 182.910156 129.234375 183.199219 C 129.234375 183.367188 129.203125 183.535156 129.183594 183.703125 C 129.183594 183.703125 129.183594 183.820312 129.183594 183.851562 C 129.183594 183.882812 129.183594 183.945312 129.160156 183.992188 C 129.066406 184.605469 128.929688 185.207031 128.757812 185.800781 C 128.671875 186.097656 128.578125 186.386719 128.472656 186.675781 L 128.292969 187.128906 L 128.171875 187.40625 C 128.046875 187.664062 127.921875 187.914062 127.785156 188.160156 C 124.746094 185.082031 121.957031 181.792969 119.414062 178.289062 C 116.871094 174.789062 114.605469 171.113281 112.613281 167.269531 C 110.625 163.425781 108.933594 159.453125 107.542969 155.355469 C 106.152344 151.253906 105.078125 147.074219 104.316406 142.8125 Z M 250.273438 180.574219 Z M 250.890625 185.53125 L 250.921875 185.609375 C 250.90625 185.582031 250.894531 185.550781 250.890625 185.523438 Z M 252.03125 187.496094 L 251.886719 187.296875 C 251.78125 187.152344 251.679688 187 251.585938 186.84375 C 251.394531 186.539062 251.21875 186.226562 251.0625 185.902344 L 250.941406 185.640625 C 250.867188 185.457031 250.800781 185.277344 250.738281 185.097656 C 250.621094 184.753906 250.519531 184.410156 250.4375 184.058594 C 250.402344 183.898438 250.371094 183.734375 250.339844 183.570312 C 250.339844 183.476562 250.308594 183.386719 250.292969 183.289062 C 250.28125 183.195312 250.292969 183.21875 250.292969 183.203125 C 250.253906 182.847656 250.230469 182.484375 250.222656 182.121094 C 250.210938 181.757812 250.222656 181.402344 250.257812 181.042969 C 250.257812 180.949219 250.257812 180.851562 250.289062 180.753906 L 250.289062 180.714844 C 250.34375 180.527344 250.375 180.335938 250.382812 180.144531 C 250.457031 179.789062 250.546875 179.441406 250.652344 179.097656 C 250.699219 178.945312 250.753906 178.785156 250.8125 178.644531 C 250.871094 178.503906 250.886719 178.464844 250.917969 178.375 C 250.949219 178.28125 250.886719 178.441406 250.886719 178.441406 C 250.902344 178.390625 250.925781 178.339844 250.953125 178.292969 C 251.101562 177.964844 251.269531 177.644531 251.453125 177.335938 C 251.542969 177.183594 251.640625 177.027344 251.742188 176.882812 L 251.894531 176.667969 L 252.003906 176.515625 C 252.484375 175.910156 253.019531 175.347656 253.601562 174.835938 C 253.898438 174.578125 254.199219 174.332031 254.507812 174.085938 L 254.570312 174.035156 L 254.824219 173.847656 L 255.300781 173.496094 C 256.59375 172.589844 257.941406 171.746094 259.222656 170.8125 C 260.3125 170.003906 261.347656 169.128906 262.328125 168.1875 C 264.480469 166.085938 266.507812 163.871094 268.40625 161.535156 C 269.070312 160.738281 269.722656 159.929688 270.375 159.121094 C 268.277344 164.40625 265.683594 169.4375 262.597656 174.210938 C 259.507812 178.984375 255.988281 183.410156 252.03125 187.488281 Z M 252.03125 187.496094 " fill-opacity="1" fill-rule="nonzero"/></g><path fill="rgb(0%, 0%, 0%)" d="M 186.539062 107.820312 C 186.855469 108.792969 187.332031 109.675781 187.980469 110.464844 C 188.625 111.257812 189.390625 111.90625 190.277344 112.410156 C 191.28125 112.941406 192.34375 113.257812 193.472656 113.359375 C 194.601562 113.460938 195.703125 113.339844 196.785156 112.996094 C 198.894531 112.351562 200.777344 111.292969 202.429688 109.828125 C 202.800781 110.222656 203.183594 110.613281 203.582031 110.984375 C 205.253906 112.632812 207.234375 113.714844 209.527344 114.230469 C 212.039062 114.726562 214.589844 114.464844 217.121094 114.289062 C 219.410156 114.089844 221.6875 114.183594 223.953125 114.574219 C 228.332031 115.410156 232.40625 117.464844 235.328125 120.871094 C 236.730469 122.480469 237.773438 124.300781 238.453125 126.328125 C 239.128906 128.351562 239.394531 130.433594 239.246094 132.566406 C 239.15625 133.539062 238.964844 134.496094 238.671875 135.429688 C 238.402344 136.34375 238.035156 137.214844 237.578125 138.046875 C 236.640625 139.804688 235.449219 141.363281 234 142.726562 C 232.535156 144.140625 230.921875 145.347656 229.148438 146.347656 C 227.261719 147.425781 225.277344 148.273438 223.195312 148.898438 C 218.285156 150.425781 213.15625 150.988281 208.066406 151.585938 C 203.300781 152.140625 198.519531 152.75 193.917969 154.160156 C 189.527344 155.519531 185.304688 157.59375 181.976562 160.808594 C 178.5 164.15625 176.238281 168.558594 172.679688 171.832031 C 171.128906 173.335938 169.320312 174.417969 167.257812 175.066406 C 166.253906 175.371094 165.226562 175.472656 164.183594 175.371094 C 164.09375 175.367188 164.003906 175.359375 163.914062 175.34375 L 163.542969 175.273438 C 163.277344 175.210938 163.015625 175.136719 162.757812 175.042969 C 162.359375 174.875 162 174.640625 161.679688 174.347656 C 161.519531 174.203125 161.386719 174.039062 161.277344 173.855469 C 161.167969 173.675781 161.070312 173.488281 160.984375 173.296875 C 160.886719 173.050781 160.8125 172.792969 160.757812 172.53125 C 160.707031 172.324219 160.671875 172.113281 160.65625 171.898438 C 160.609375 171.371094 160.609375 170.839844 160.65625 170.308594 C 160.65625 170.195312 160.679688 170.082031 160.695312 169.96875 C 160.695312 169.9375 160.695312 169.816406 160.726562 169.78125 C 160.761719 169.550781 160.808594 169.328125 160.859375 169.09375 C 160.960938 168.632812 161.089844 168.179688 161.242188 167.734375 C 161.316406 167.515625 161.398438 167.28125 161.484375 167.085938 C 161.488281 167.0625 161.488281 167.042969 161.484375 167.019531 L 161.515625 166.957031 C 161.566406 166.84375 161.617188 166.722656 161.671875 166.609375 C 162.070312 165.761719 162.53125 164.953125 163.054688 164.175781 C 163.316406 163.777344 163.589844 163.386719 163.878906 163.007812 C 164.121094 162.679688 164.332031 162.394531 164.671875 161.992188 C 165.289062 161.226562 165.9375 160.484375 166.59375 159.730469 C 167.90625 158.234375 169.253906 156.765625 170.484375 155.203125 C 171.847656 153.574219 172.957031 151.789062 173.820312 149.84375 C 174.679688 147.902344 175.257812 145.878906 175.550781 143.773438 C 176.234375 139.398438 176.03125 134.960938 175.859375 130.550781 C 175.773438 128.351562 175.695312 126.148438 175.742188 123.949219 C 175.769531 122.867188 175.820312 121.789062 175.921875 120.710938 C 176.015625 119.707031 176.164062 118.710938 176.375 117.722656 C 176.753906 115.742188 177.402344 113.855469 178.324219 112.0625 C 178.464844 111.796875 178.5 111.519531 178.425781 111.230469 C 178.347656 110.941406 178.183594 110.714844 177.929688 110.558594 C 177.804688 110.484375 177.667969 110.441406 177.527344 110.421875 C 177.382812 110.402344 177.242188 110.414062 177.101562 110.449219 C 176.960938 110.488281 176.832031 110.546875 176.71875 110.636719 C 176.601562 110.722656 176.507812 110.828125 176.433594 110.953125 C 174.3125 115 173.65625 119.554688 173.566406 124.082031 C 173.476562 128.609375 173.910156 133.136719 173.855469 137.664062 C 173.867188 139.847656 173.6875 142.015625 173.320312 144.167969 C 172.9375 146.273438 172.253906 148.277344 171.265625 150.171875 C 169.359375 153.75 166.488281 156.488281 163.835938 159.617188 C 161.183594 162.746094 158.824219 166.203125 158.460938 170.394531 C 158.257812 172.800781 158.96875 175.40625 161.171875 176.679688 C 163.269531 177.890625 166.007812 177.765625 168.246094 177.03125 C 173.046875 175.460938 176.230469 171.417969 179.148438 167.527344 C 180.582031 165.488281 182.195312 163.605469 183.992188 161.875 C 185.683594 160.367188 187.550781 159.125 189.597656 158.148438 C 193.664062 156.144531 198.347656 155.09375 202.898438 154.410156 C 208.160156 153.621094 213.484375 153.273438 218.71875 152.246094 C 223.453125 151.3125 228.117188 149.78125 232.121094 147.03125 C 235.738281 144.5625 238.757812 141.253906 240.371094 137.152344 C 242.082031 132.808594 241.695312 127.988281 239.769531 123.792969 C 238.753906 121.648438 237.398438 119.753906 235.703125 118.097656 C 234.007812 116.445312 232.082031 115.136719 229.917969 114.175781 C 227.644531 113.152344 225.277344 112.488281 222.804688 112.183594 C 220.34375 111.867188 217.90625 112.035156 215.4375 112.210938 C 214.144531 112.320312 212.851562 112.347656 211.554688 112.285156 C 210.972656 112.257812 210.394531 112.175781 209.824219 112.046875 C 209.546875 111.988281 209.277344 111.914062 209.007812 111.828125 L 208.554688 111.671875 L 208.25 111.550781 C 206.628906 110.769531 205.230469 109.699219 204.050781 108.339844 C 205.433594 106.980469 206.734375 105.53125 208.058594 104.167969 C 209.570312 102.507812 211.316406 101.148438 213.300781 100.09375 C 213.425781 100.019531 213.53125 99.925781 213.617188 99.808594 C 213.703125 99.695312 213.765625 99.566406 213.800781 99.425781 C 213.839844 99.285156 213.847656 99.144531 213.828125 99 C 213.808594 98.855469 213.765625 98.722656 213.695312 98.597656 C 213.617188 98.472656 213.523438 98.367188 213.40625 98.28125 C 213.289062 98.195312 213.164062 98.132812 213.023438 98.097656 C 212.882812 98.0625 212.742188 98.050781 212.597656 98.070312 C 212.453125 98.085938 212.320312 98.132812 212.191406 98.203125 C 208.261719 100.160156 205.679688 103.761719 202.601562 106.757812 C 201.445312 105.351562 200.160156 104.078125 198.746094 102.9375 C 197.097656 101.71875 195.257812 100.988281 193.226562 100.746094 C 192.269531 100.601562 191.324219 100.667969 190.398438 100.945312 C 189.46875 101.222656 188.644531 101.683594 187.925781 102.332031 C 187.566406 102.679688 187.265625 103.070312 187.019531 103.503906 C 186.769531 103.9375 186.585938 104.394531 186.460938 104.878906 C 186.339844 105.363281 186.285156 105.855469 186.300781 106.355469 C 186.3125 106.855469 186.394531 107.339844 186.539062 107.820312 Z M 189.523438 108.894531 C 189.433594 108.789062 189.507812 108.878906 189.523438 108.894531 Z M 188.691406 104.972656 Z M 188.496094 105.703125 C 188.496094 105.769531 188.496094 105.773438 188.496094 105.703125 Z M 188.496094 105.816406 C 188.5 105.777344 188.5 105.734375 188.496094 105.695312 C 188.539062 105.503906 188.578125 105.320312 188.636719 105.132812 C 188.636719 105.078125 188.679688 105.023438 188.695312 104.964844 C 188.714844 104.90625 188.792969 104.773438 188.847656 104.671875 L 189.003906 104.410156 L 189.109375 104.265625 C 189.238281 104.101562 189.375 103.953125 189.527344 103.8125 C 189.578125 103.765625 189.632812 103.714844 189.691406 103.671875 L 189.816406 103.578125 C 189.996094 103.457031 190.183594 103.351562 190.378906 103.253906 C 190.417969 103.253906 190.5 103.199219 190.523438 103.191406 L 190.71875 103.125 C 190.925781 103.054688 191.140625 103 191.355469 102.957031 L 191.5625 102.921875 L 191.726562 102.921875 C 191.953125 102.898438 192.183594 102.890625 192.414062 102.898438 C 192.613281 102.898438 192.808594 102.898438 193.007812 102.929688 L 193.191406 102.929688 L 193.527344 102.988281 C 193.976562 103.074219 194.414062 103.191406 194.84375 103.335938 C 195.035156 103.398438 195.214844 103.46875 195.398438 103.542969 L 195.621094 103.640625 L 195.960938 103.796875 C 196.371094 104.007812 196.769531 104.238281 197.152344 104.492188 C 197.316406 104.601562 197.476562 104.710938 197.632812 104.832031 L 197.808594 104.972656 L 198.082031 105.207031 C 198.472656 105.558594 198.855469 105.929688 199.21875 106.316406 C 199.816406 106.929688 200.390625 107.574219 200.960938 108.21875 C 199.605469 109.390625 198.078125 110.265625 196.382812 110.839844 C 195.371094 111.15625 194.339844 111.269531 193.285156 111.179688 L 193.164062 111.179688 L 192.859375 111.117188 C 192.621094 111.066406 192.386719 110.996094 192.160156 110.910156 L 191.988281 110.847656 L 191.753906 110.738281 C 191.53125 110.628906 191.316406 110.507812 191.109375 110.375 C 190.945312 110.273438 190.78125 110.160156 190.621094 110.042969 C 190.589844 110.011719 190.46875 109.910156 190.445312 109.890625 C 190.351562 109.8125 190.261719 109.730469 190.175781 109.644531 C 190.015625 109.5 189.867188 109.347656 189.722656 109.191406 C 189.644531 109.105469 189.574219 109.015625 189.5 108.921875 L 189.378906 108.761719 C 189.265625 108.589844 189.152344 108.417969 189.054688 108.238281 C 188.996094 108.136719 188.941406 108.03125 188.886719 107.925781 C 188.886719 107.890625 188.820312 107.773438 188.796875 107.734375 C 188.648438 107.367188 188.542969 106.988281 188.480469 106.601562 C 188.480469 106.566406 188.480469 106.5 188.480469 106.460938 C 188.480469 106.417969 188.480469 106.269531 188.480469 106.175781 C 188.480469 106.078125 188.484375 105.925781 188.488281 105.816406 Z M 188.496094 105.816406 " fill-opacity="1" fill-rule="nonzero"/><path fill="rgb(0%, 0%, 0%)" d="M 227.71875 196.019531 C 228.003906 196.019531 228.289062 196.019531 228.570312 196.019531 C 228.804688 196.011719 229.035156 196.027344 229.265625 196.066406 L 229.332031 196.066406 L 229.484375 196.09375 C 229.632812 196.125 229.777344 196.160156 229.933594 196.203125 C 230.054688 196.234375 230.167969 196.269531 230.28125 196.316406 L 230.328125 196.316406 L 230.417969 196.355469 C 230.523438 196.40625 230.628906 196.460938 230.726562 196.523438 L 230.871094 196.617188 C 230.957031 196.691406 231.039062 196.769531 231.121094 196.855469 L 231.210938 196.953125 C 231.269531 197.042969 231.328125 197.128906 231.378906 197.226562 C 231.425781 197.320312 231.429688 197.324219 231.453125 197.375 C 231.453125 197.386719 231.453125 197.394531 231.453125 197.40625 C 231.496094 197.546875 231.5625 197.671875 231.652344 197.785156 C 231.742188 197.898438 231.851562 197.988281 231.980469 198.0625 C 232.105469 198.132812 232.238281 198.179688 232.382812 198.195312 C 232.527344 198.214844 232.667969 198.207031 232.808594 198.171875 C 232.949219 198.132812 233.078125 198.066406 233.191406 197.976562 C 233.304688 197.886719 233.398438 197.777344 233.46875 197.648438 C 233.542969 197.523438 233.585938 197.386719 233.605469 197.242188 C 233.621094 197.097656 233.613281 196.953125 233.574219 196.8125 C 233.351562 196.199219 233.011719 195.664062 232.550781 195.207031 C 232.089844 194.746094 231.554688 194.40625 230.941406 194.1875 C 229.8125 193.792969 228.65625 193.664062 227.46875 193.792969 C 226.257812 193.941406 225.070312 194.179688 223.894531 194.5 C 223.609375 194.5625 223.328125 194.625 223.039062 194.675781 C 222.898438 194.703125 222.753906 194.730469 222.609375 194.75 L 222.4375 194.777344 L 222.292969 194.777344 C 221.710938 194.867188 221.125 194.898438 220.539062 194.875 L 220.351562 194.875 C 220.222656 194.851562 220.09375 194.820312 219.96875 194.789062 C 219.84375 194.757812 219.71875 194.71875 219.597656 194.671875 L 219.53125 194.644531 L 219.476562 194.644531 L 219.375 194.585938 C 219.261719 194.527344 219.160156 194.453125 219.050781 194.390625 L 218.933594 194.292969 C 218.835938 194.199219 218.75 194.101562 218.660156 194.011719 L 218.507812 193.769531 C 218.457031 193.683594 218.414062 193.59375 218.367188 193.503906 L 218.367188 193.476562 C 218.300781 193.3125 218.246094 193.140625 218.199219 192.96875 C 218.105469 192.628906 218.039062 192.277344 217.972656 191.929688 C 217.878906 191.246094 217.730469 190.574219 217.523438 189.917969 C 217.085938 188.757812 216.433594 187.734375 215.570312 186.847656 C 214.703125 185.960938 213.699219 185.285156 212.550781 184.820312 C 211.378906 184.3125 210.15625 184.003906 208.882812 183.890625 C 207.609375 183.78125 206.351562 183.878906 205.109375 184.175781 C 202.210938 184.886719 199.660156 186.554688 197.425781 188.515625 C 195.28125 190.40625 193.5 192.625 191.613281 194.757812 C 190.683594 195.824219 189.6875 196.820312 188.628906 197.753906 L 188.25 198.070312 L 188.046875 198.234375 L 188 198.265625 C 187.710938 198.484375 187.414062 198.71875 187.097656 198.894531 C 186.5 199.285156 185.875 199.625 185.222656 199.910156 L 185.1875 199.910156 L 185.125 199.933594 L 184.863281 200.03125 L 184.28125 200.234375 C 183.90625 200.359375 183.527344 200.460938 183.144531 200.558594 C 182.359375 200.753906 181.5625 200.898438 180.769531 201.011719 C 179.21875 201.222656 177.6875 201.511719 176.167969 201.878906 C 173.621094 202.570312 171.019531 203.976562 169.644531 206.316406 C 169.300781 206.902344 169.050781 207.523438 168.898438 208.1875 C 168.859375 208.324219 168.851562 208.46875 168.867188 208.613281 C 168.886719 208.757812 168.929688 208.890625 169.003906 209.019531 C 169.074219 209.144531 169.167969 209.25 169.28125 209.339844 C 169.394531 209.429688 169.523438 209.496094 169.664062 209.53125 C 169.800781 209.570312 169.945312 209.582031 170.089844 209.5625 C 170.230469 209.546875 170.367188 209.5 170.492188 209.429688 C 170.621094 209.359375 170.726562 209.265625 170.816406 209.152344 C 170.90625 209.035156 170.96875 208.910156 171.007812 208.769531 C 171.070312 208.511719 171.148438 208.257812 171.238281 208.007812 C 171.238281 208.035156 171.339844 207.777344 171.367188 207.722656 C 171.449219 207.570312 171.535156 207.417969 171.625 207.269531 C 171.699219 207.148438 171.78125 207.03125 171.863281 206.914062 L 172.007812 206.738281 C 172.207031 206.507812 172.417969 206.289062 172.644531 206.085938 C 172.753906 205.984375 172.867188 205.890625 172.980469 205.796875 L 173.070312 205.726562 L 173.183594 205.640625 C 173.441406 205.460938 173.707031 205.289062 173.980469 205.128906 C 174.25 204.972656 174.511719 204.835938 174.785156 204.703125 L 175.160156 204.535156 L 175.234375 204.5 L 175.535156 204.386719 C 178.316406 203.339844 181.355469 203.320312 184.207031 202.53125 C 185.675781 202.132812 187.046875 201.511719 188.316406 200.675781 C 189.511719 199.863281 190.609375 198.941406 191.617188 197.902344 C 193.570312 195.933594 195.234375 193.714844 197.179688 191.730469 C 197.679688 191.210938 198.1875 190.714844 198.722656 190.234375 C 198.960938 190.015625 199.207031 189.808594 199.449219 189.601562 L 199.84375 189.273438 L 200.042969 189.117188 L 200.09375 189.074219 L 200.140625 189.042969 C 201.246094 188.195312 202.429688 187.484375 203.695312 186.90625 L 203.816406 186.859375 L 203.984375 186.789062 L 204.4375 186.617188 C 204.765625 186.5 205.101562 186.398438 205.441406 186.308594 C 205.777344 186.21875 206.027344 186.164062 206.34375 186.109375 C 206.40625 186.109375 206.839844 186 206.539062 186.078125 C 206.699219 186.046875 206.863281 186.03125 207.027344 186.027344 C 207.578125 185.984375 208.128906 185.984375 208.679688 186.027344 L 209.09375 186.070312 L 209.128906 186.070312 L 209.292969 186.09375 C 209.59375 186.148438 209.886719 186.207031 210.195312 186.28125 C 210.503906 186.359375 210.722656 186.425781 210.980469 186.519531 L 211.371094 186.660156 L 211.519531 186.71875 L 211.546875 186.71875 L 211.597656 186.738281 C 212.101562 186.96875 212.582031 187.234375 213.042969 187.542969 L 213.296875 187.726562 L 213.515625 187.898438 C 213.734375 188.089844 213.945312 188.289062 214.144531 188.496094 C 214.234375 188.589844 214.320312 188.691406 214.40625 188.789062 L 214.507812 188.910156 C 214.65625 189.121094 214.804688 189.332031 214.9375 189.558594 C 215.054688 189.769531 215.160156 189.980469 215.253906 190.199219 C 215.253906 190.261719 215.335938 190.40625 215.351562 190.453125 C 215.402344 190.605469 215.453125 190.761719 215.492188 190.90625 C 215.679688 191.597656 215.75 192.3125 215.902344 193.011719 C 216.019531 193.710938 216.273438 194.355469 216.667969 194.945312 C 217.0625 195.535156 217.5625 196.015625 218.164062 196.386719 C 220.359375 197.625 223.136719 197.03125 225.445312 196.414062 C 225.980469 196.246094 226.527344 196.132812 227.085938 196.070312 C 226.773438 196.09375 227.210938 196.070312 227.28125 196.070312 Z M 188.046875 198.109375 Z M 218.277344 193.335938 C 218.253906 193.296875 218.277344 193.308594 218.277344 193.335938 Z M 219.46875 194.589844 L 219.570312 194.632812 C 219.570312 194.632812 219.511719 194.613281 219.46875 194.589844 Z M 220.40625 194.851562 L 220.496094 194.851562 C 220.46875 194.867188 220.4375 194.875 220.40625 194.875 Z M 220.40625 194.851562 " fill-opacity="1" fill-rule="nonzero"/><path fill="rgb(0%, 0%, 0%)" d="M 123.933594 158.125 L 123.898438 158.171875 C 123.859375 158.203125 123.804688 158.332031 123.933594 158.125 Z M 123.933594 158.125 " fill-opacity="1" fill-rule="nonzero"/><path fill="rgb(0%, 0%, 0%)" d="M 124.675781 153.738281 C 124.492188 153.949219 124.632812 153.796875 124.675781 153.738281 Z M 124.675781 153.738281 " fill-opacity="1" fill-rule="nonzero"/><path fill="rgb(0%, 0%, 0%)" d="M 121.726562 162.527344 C 121.789062 162.277344 121.734375 162.441406 121.726562 162.527344 Z M 121.726562 162.527344 " fill-opacity="1" fill-rule="nonzero"/><path fill="rgb(0%, 0%, 0%)" d="M 199.4375 38.347656 L 199.46875 38.273438 Z M 199.4375 38.347656 " fill-opacity="1" fill-rule="nonzero"/><g clip-path="url(#id9)"><path fill="rgb(0%, 0%, 0%)" d="M 205.195312 74.898438 C 208.472656 80.242188 211.949219 85.457031 215.210938 90.808594 C 215.675781 91.574219 216.140625 92.339844 216.605469 93.113281 C 216.652344 93.195312 216.714844 93.269531 216.78125 93.332031 C 216.851562 93.398438 216.925781 93.457031 217.007812 93.503906 C 217.089844 93.550781 217.179688 93.585938 217.269531 93.609375 C 217.363281 93.632812 217.453125 93.644531 217.550781 93.644531 C 217.644531 93.644531 217.738281 93.632812 217.828125 93.609375 C 217.921875 93.585938 218.007812 93.550781 218.089844 93.503906 C 218.171875 93.457031 218.25 93.398438 218.316406 93.332031 C 218.386719 93.269531 218.445312 93.195312 218.496094 93.113281 C 221.726562 88.378906 224.652344 83.464844 227.28125 78.371094 C 228.542969 76.003906 229.773438 73.617188 231.027344 71.25 C 232.332031 68.796875 233.605469 66.355469 234.644531 63.785156 C 236.777344 58.609375 238.078125 53.230469 238.550781 47.648438 C 238.796875 44.996094 238.796875 42.339844 238.550781 39.6875 C 238.363281 37.4375 237.792969 35.292969 236.84375 33.25 C 235.875 31.277344 234.484375 29.671875 232.679688 28.425781 C 230.554688 27.007812 228.21875 26.179688 225.675781 25.9375 C 223.082031 25.648438 220.628906 26.109375 218.316406 27.328125 C 217.195312 27.960938 216.164062 28.714844 215.21875 29.589844 C 214.332031 30.378906 213.523438 31.238281 212.789062 32.171875 C 209.71875 36.0625 207.976562 41 208.582031 45.984375 C 209.167969 50.753906 211.695312 55.730469 216.132812 57.96875 C 218.21875 59.019531 220.789062 59.550781 223.027344 58.65625 C 225.59375 57.628906 226.957031 55.222656 227.71875 52.683594 C 228.484375 50.144531 228.757812 47.152344 227.851562 44.535156 C 227.441406 43.308594 226.785156 42.230469 225.882812 41.300781 C 224.980469 40.371094 223.925781 39.679688 222.710938 39.234375 C 221.554688 38.828125 220.375 38.75 219.171875 38.996094 C 219.03125 39.035156 218.902344 39.101562 218.789062 39.191406 C 218.671875 39.28125 218.582031 39.390625 218.507812 39.519531 C 218.4375 39.644531 218.390625 39.78125 218.375 39.925781 C 218.359375 40.074219 218.367188 40.214844 218.410156 40.355469 C 218.449219 40.496094 218.515625 40.621094 218.605469 40.734375 C 218.695312 40.851562 218.804688 40.941406 218.933594 41.015625 C 219.058594 41.085938 219.195312 41.132812 219.335938 41.152344 C 219.480469 41.171875 219.625 41.160156 219.765625 41.125 C 219.808594 41.125 220.050781 41.085938 220.035156 41.082031 L 220.355469 41.082031 C 220.59375 41.078125 220.832031 41.089844 221.066406 41.113281 L 221.332031 41.15625 C 221.464844 41.183594 221.589844 41.210938 221.71875 41.246094 L 222.042969 41.351562 L 222.332031 41.460938 C 222.792969 41.667969 223.226562 41.917969 223.628906 42.222656 L 223.839844 42.394531 L 224.105469 42.628906 C 224.3125 42.828125 224.511719 43.039062 224.695312 43.257812 L 224.808594 43.402344 L 224.835938 43.433594 C 224.902344 43.535156 224.972656 43.628906 225.035156 43.730469 C 225.195312 43.96875 225.339844 44.214844 225.464844 44.472656 C 225.570312 44.671875 225.660156 44.878906 225.730469 45.097656 C 225.839844 45.410156 225.933594 45.726562 226.011719 46.046875 C 226.152344 46.597656 226.226562 47.15625 226.238281 47.726562 C 226.257812 48.359375 226.234375 48.992188 226.160156 49.621094 C 226.160156 49.679688 226.160156 49.738281 226.160156 49.796875 C 226.160156 49.8125 226.160156 49.828125 226.160156 49.84375 C 226.132812 50.003906 226.109375 50.15625 226.078125 50.296875 C 226.023438 50.609375 225.957031 50.917969 225.878906 51.230469 C 225.734375 51.828125 225.554688 52.414062 225.34375 52.992188 C 225.292969 53.132812 225.238281 53.273438 225.183594 53.410156 L 225.183594 53.4375 L 225.058594 53.621094 C 224.921875 53.90625 224.769531 54.183594 224.605469 54.453125 C 224.359375 54.925781 224.039062 55.339844 223.652344 55.703125 C 223.546875 55.804688 223.445312 55.898438 223.332031 55.992188 L 223.304688 55.992188 L 223.175781 56.085938 C 222.953125 56.242188 222.714844 56.378906 222.46875 56.496094 L 222.367188 56.546875 L 222.335938 56.546875 L 221.980469 56.667969 C 221.726562 56.742188 221.46875 56.796875 221.210938 56.839844 L 221.0625 56.839844 C 220.933594 56.839844 220.808594 56.839844 220.675781 56.839844 C 220.402344 56.847656 220.132812 56.839844 219.859375 56.8125 L 219.636719 56.785156 L 219.324219 56.726562 C 219.0625 56.675781 218.804688 56.609375 218.554688 56.535156 C 218.300781 56.464844 218.042969 56.363281 217.789062 56.269531 L 217.734375 56.335938 L 217.609375 56.277344 C 217.480469 56.222656 217.359375 56.164062 217.238281 56.101562 C 216.75 55.855469 216.285156 55.578125 215.839844 55.261719 L 215.613281 55.089844 L 215.347656 54.871094 C 215.140625 54.695312 214.941406 54.507812 214.75 54.320312 C 214.355469 53.921875 213.984375 53.507812 213.640625 53.070312 L 213.613281 53.03125 L 213.484375 52.859375 L 213.242188 52.519531 C 213.082031 52.289062 212.933594 52.070312 212.789062 51.808594 C 212.496094 51.332031 212.234375 50.835938 212 50.324219 L 211.847656 49.992188 L 211.753906 49.765625 C 211.644531 49.488281 211.546875 49.207031 211.453125 48.921875 C 211.273438 48.386719 211.121094 47.84375 211 47.292969 C 210.945312 47.035156 210.894531 46.769531 210.851562 46.511719 C 210.824219 46.371094 210.804688 46.234375 210.78125 46.09375 C 210.78125 46 210.78125 45.90625 210.746094 45.816406 C 210.6875 45.253906 210.65625 44.6875 210.652344 44.121094 C 210.648438 43.558594 210.671875 42.992188 210.726562 42.429688 L 210.769531 42.0625 L 210.769531 42.03125 L 210.796875 41.832031 C 210.839844 41.546875 210.890625 41.265625 210.949219 40.988281 C 211.066406 40.429688 211.210938 39.875 211.378906 39.332031 C 211.460938 39.078125 211.546875 38.824219 211.636719 38.578125 C 211.6875 38.441406 211.738281 38.308594 211.789062 38.175781 C 211.8125 38.109375 211.839844 38.042969 211.867188 37.980469 L 211.867188 37.894531 C 212.316406 36.839844 212.859375 35.839844 213.496094 34.886719 C 213.640625 34.664062 213.792969 34.433594 213.945312 34.226562 C 214.027344 34.109375 214.113281 33.996094 214.199219 33.882812 L 214.25 33.8125 L 214.394531 33.636719 C 214.75 33.183594 215.125 32.757812 215.523438 32.34375 C 215.921875 31.925781 216.304688 31.554688 216.71875 31.183594 C 216.929688 30.992188 217.167969 30.808594 217.367188 30.621094 L 217.703125 30.355469 L 217.761719 30.308594 L 217.90625 30.203125 C 218.375 29.847656 218.863281 29.53125 219.378906 29.25 C 219.625 29.117188 219.871094 28.996094 220.125 28.882812 C 220.171875 28.882812 220.320312 28.808594 220.347656 28.792969 L 220.800781 28.628906 C 221.34375 28.449219 221.902344 28.3125 222.46875 28.214844 L 222.757812 28.171875 C 222.882812 28.15625 223.011719 28.140625 223.136719 28.132812 C 223.421875 28.105469 223.710938 28.089844 224 28.085938 C 226.273438 28.042969 228.410156 28.558594 230.417969 29.625 C 230.871094 29.871094 231.308594 30.144531 231.730469 30.441406 L 231.984375 30.632812 L 232.121094 30.75 C 232.328125 30.917969 232.523438 31.089844 232.707031 31.265625 C 233.042969 31.585938 233.355469 31.925781 233.644531 32.289062 C 233.683594 32.332031 233.71875 32.375 233.75 32.417969 C 233.808594 32.503906 233.875 32.585938 233.933594 32.667969 C 234.078125 32.875 234.21875 33.089844 234.351562 33.300781 C 234.605469 33.710938 234.832031 34.132812 235.035156 34.566406 C 235.082031 34.675781 235.128906 34.789062 235.183594 34.894531 C 235.199219 34.929688 235.214844 34.96875 235.226562 35.003906 C 235.328125 35.246094 235.417969 35.488281 235.5 35.734375 C 235.820312 36.691406 236.0625 37.671875 236.222656 38.671875 C 236.222656 38.785156 236.253906 38.898438 236.273438 39.011719 C 236.273438 39.050781 236.273438 39.09375 236.273438 39.132812 C 236.273438 39.15625 236.273438 39.183594 236.273438 39.207031 C 236.304688 39.46875 236.335938 39.730469 236.359375 40 C 236.414062 40.582031 236.445312 41.175781 236.464844 41.765625 C 236.515625 43.078125 236.515625 44.390625 236.464844 45.699219 C 236.363281 48.269531 236.054688 50.8125 235.535156 53.332031 C 235.007812 55.910156 234.300781 58.4375 233.40625 60.914062 C 232.539062 63.324219 231.503906 65.664062 230.300781 67.921875 C 229.128906 70.140625 227.945312 72.359375 226.78125 74.582031 C 224.289062 79.347656 221.75 84.089844 218.851562 88.617188 C 218.433594 89.269531 218.007812 89.921875 217.570312 90.566406 C 214.546875 85.585938 211.371094 80.707031 208.273438 75.777344 C 206.871094 73.542969 205.5 71.289062 204.207031 68.988281 C 203.605469 67.902344 203.019531 66.796875 202.46875 65.679688 C 202.203125 65.140625 201.945312 64.597656 201.695312 64.046875 L 201.371094 63.316406 L 201.160156 62.824219 C 201.160156 62.796875 201.074219 62.617188 201.0625 62.59375 C 200.167969 60.414062 199.449219 58.179688 198.90625 55.886719 C 198.628906 54.707031 198.398438 53.511719 198.222656 52.3125 L 198.167969 51.933594 C 198.167969 51.933594 198.136719 51.6875 198.125 51.632812 C 198.085938 51.304688 198.050781 50.972656 198.011719 50.640625 C 197.949219 50.003906 197.894531 49.359375 197.859375 48.714844 C 197.765625 47.398438 197.765625 46.085938 197.859375 44.769531 C 197.859375 44.460938 197.914062 44.160156 197.949219 43.863281 C 197.949219 43.804688 197.992188 43.589844 197.949219 43.820312 L 197.976562 43.625 C 198.003906 43.433594 198.035156 43.246094 198.070312 43.050781 C 198.183594 42.410156 198.324219 41.78125 198.496094 41.15625 C 198.667969 40.53125 198.863281 39.914062 199.085938 39.304688 C 199.191406 38.996094 199.316406 38.699219 199.4375 38.398438 C 199.449219 38.378906 199.460938 38.351562 199.46875 38.328125 C 199.492188 38.28125 199.507812 38.234375 199.53125 38.1875 C 199.605469 38.019531 199.675781 37.863281 199.753906 37.699219 C 200.304688 36.519531 200.949219 35.390625 201.683594 34.3125 C 201.867188 34.046875 202.054688 33.777344 202.25 33.515625 L 202.367188 33.363281 L 202.464844 33.230469 C 202.5 33.183594 202.554688 33.113281 202.554688 33.117188 L 202.738281 32.890625 C 203.148438 32.382812 203.578125 31.894531 204.023438 31.421875 C 204.476562 30.972656 204.929688 30.519531 205.425781 30.066406 C 205.664062 29.847656 205.914062 29.640625 206.164062 29.429688 L 206.507812 29.15625 L 206.636719 29.050781 L 206.78125 28.9375 C 207.820312 28.15625 208.917969 27.46875 210.074219 26.875 C 210.359375 26.730469 210.652344 26.582031 210.945312 26.449219 L 211.398438 26.253906 L 211.453125 26.253906 L 211.671875 26.164062 C 212.273438 25.917969 212.890625 25.710938 213.507812 25.519531 C 214.128906 25.328125 214.765625 25.179688 215.402344 25.066406 C 215.542969 25.027344 215.671875 24.960938 215.785156 24.871094 C 215.898438 24.78125 215.992188 24.671875 216.0625 24.546875 C 216.136719 24.417969 216.179688 24.28125 216.199219 24.136719 C 216.214844 23.992188 216.207031 23.851562 216.167969 23.710938 C 216.125 23.570312 216.058594 23.441406 215.96875 23.328125 C 215.878906 23.214844 215.769531 23.125 215.640625 23.050781 C 215.515625 22.980469 215.378906 22.9375 215.238281 22.917969 C 215.09375 22.898438 214.949219 22.90625 214.808594 22.945312 C 212.140625 23.515625 209.640625 24.515625 207.3125 25.949219 C 204.984375 27.382812 202.964844 29.164062 201.25 31.292969 C 197.777344 35.535156 195.613281 40.863281 195.589844 46.386719 C 195.589844 51.535156 196.480469 56.527344 198.257812 61.359375 C 200.019531 66.085938 202.527344 70.566406 205.195312 74.898438 Z M 224.78125 43.363281 Z M 224.78125 43.363281 " fill-opacity="1" fill-rule="nonzero"/></g><g fill="rgb(0%, 0%, 0%)" fill-opacity="1"><g transform="translate(87.758189, 271.273943)"><g><path d="M 16.308594 0 L 16.308594 -27.355469 L 24.824219 -27.355469 L 24.824219 -34.148438 L 0.957031 -34.148438 L 0.957031 -27.355469 L 9.46875 -27.355469 L 9.46875 0 Z M 16.308594 0 "/></g></g></g><g fill="rgb(0%, 0%, 0%)" fill-opacity="1"><g transform="translate(113.917996, 271.273943)"><g><path d="M 20.851562 0 L 28.601562 0 L 20.660156 -14.109375 C 30.707031 -17.027344 29.507812 -34.195312 17.3125 -34.195312 L 3.828125 -34.195312 L 3.828125 0 L 10.664062 0 L 10.664062 -13.058594 L 13.964844 -13.058594 Z M 10.664062 -19.703125 L 10.664062 -27.355469 L 16.691406 -27.355469 C 21.332031 -27.355469 21.332031 -19.703125 16.691406 -19.703125 Z M 10.664062 -19.703125 "/></g></g></g><g fill="rgb(0%, 0%, 0%)" fill-opacity="1"><g transform="translate(143.234198, 271.273943)"><g><path d="M 0.765625 0 L 8.511719 0 L 9.851562 -3.683594 L 21.1875 -3.683594 L 22.574219 0 L 30.273438 0 L 15.878906 -35.441406 L 15.160156 -35.441406 Z M 12.339844 -10.089844 L 15.542969 -18.988281 L 18.652344 -10.089844 Z M 12.339844 -10.089844 "/></g></g></g><g fill="rgb(0%, 0%, 0%)" fill-opacity="1"><g transform="translate(174.46336, 271.273943)"><g><path d="M 14.445312 0.71875 L 15.972656 0.71875 L 30.132812 -34.195312 L 22.238281 -34.195312 L 17.648438 -22.574219 L 15.210938 -15.734375 L 12.722656 -22.8125 L 8.179688 -34.195312 L 0.285156 -34.195312 Z M 14.445312 0.71875 "/></g></g></g><g fill="rgb(0%, 0%, 0%)" fill-opacity="1"><g transform="translate(204.927336, 271.273943)"><g><path d="M 3.828125 0 L 10.664062 0 L 10.664062 -13.390625 L 19.753906 0 L 28.21875 0 L 16.164062 -17.3125 L 27.261719 -34.195312 L 19.273438 -34.195312 L 10.664062 -20.566406 L 10.664062 -34.195312 L 3.828125 -34.195312 Z M 3.828125 0 "/></g></g></g><g fill="rgb(0%, 0%, 0%)" fill-opacity="1"><g transform="translate(233.813114, 271.273943)"><g><path d="M 21.523438 0 L 21.523438 -6.839844 L 10.664062 -6.839844 L 10.664062 -13.679688 L 19.65625 -13.679688 L 19.65625 -20.519531 L 10.664062 -20.519531 L 10.664062 -27.355469 L 20.949219 -27.355469 L 20.949219 -34.195312 L 3.828125 -34.195312 L 3.828125 0 Z M 21.523438 0 "/></g></g></g><g fill="rgb(0%, 0%, 0%)" fill-opacity="1"><g transform="translate(257.916487, 271.273943)"><g><path d="M 20.851562 0 L 28.601562 0 L 20.660156 -14.109375 C 30.707031 -17.027344 29.507812 -34.195312 17.3125 -34.195312 L 3.828125 -34.195312 L 3.828125 0 L 10.664062 0 L 10.664062 -13.058594 L 13.964844 -13.058594 Z M 10.664062 -19.703125 L 10.664062 -27.355469 L 16.691406 -27.355469 C 21.332031 -27.355469 21.332031 -19.703125 16.691406 -19.703125 Z M 10.664062 -19.703125 "/></g></g></g><g fill="rgb(100%, 100%, 100%)" fill-opacity="1"><g transform="translate(56.966521, 303.991622)"><g><path d="M 7.65625 0.25 C 7.332031 0.25 7.082031 0.144531 6.90625 -0.0625 C 6.726562 -0.28125 6.640625 -0.515625 6.640625 -0.765625 L 6.640625 -6.890625 L 0.640625 -16.21875 C 0.378906 -16.59375 0.25 -16.890625 0.25 -17.109375 C 0.25 -17.367188 0.335938 -17.601562 0.515625 -17.8125 C 0.703125 -18.03125 0.957031 -18.140625 1.28125 -18.140625 C 1.46875 -18.140625 1.628906 -18.097656 1.765625 -18.015625 C 1.898438 -17.941406 2.035156 -17.8125 2.171875 -17.625 L 7.609375 -9.0625 L 7.71875 -9.0625 L 13.15625 -17.625 C 13.289062 -17.8125 13.425781 -17.941406 13.5625 -18.015625 C 13.695312 -18.097656 13.859375 -18.140625 14.046875 -18.140625 C 14.367188 -18.140625 14.617188 -18.03125 14.796875 -17.8125 C 14.984375 -17.601562 15.078125 -17.367188 15.078125 -17.109375 C 15.078125 -16.890625 14.945312 -16.59375 14.6875 -16.21875 L 8.6875 -6.890625 L 8.6875 -0.765625 C 8.6875 -0.515625 8.597656 -0.28125 8.421875 -0.0625 C 8.242188 0.144531 7.988281 0.25 7.65625 0.25 Z M 7.65625 0.25 "/></g></g></g><g fill="rgb(100%, 100%, 100%)" fill-opacity="1"><g transform="translate(74.543648, 303.991622)"><g><path d="M 7.03125 0.390625 C 6.226562 0.390625 5.488281 0.257812 4.8125 0 C 4.144531 -0.269531 3.566406 -0.632812 3.078125 -1.09375 C 2.585938 -1.550781 2.207031 -2.082031 1.9375 -2.6875 C 1.664062 -3.300781 1.53125 -3.9375 1.53125 -4.59375 L 1.53125 -7.796875 C 1.53125 -8.453125 1.664062 -9.082031 1.9375 -9.6875 C 2.207031 -10.300781 2.585938 -10.835938 3.078125 -11.296875 C 3.566406 -11.753906 4.144531 -12.113281 4.8125 -12.375 C 5.488281 -12.632812 6.226562 -12.765625 7.03125 -12.765625 C 7.820312 -12.765625 8.554688 -12.632812 9.234375 -12.375 C 9.910156 -12.113281 10.488281 -11.753906 10.96875 -11.296875 C 11.457031 -10.835938 11.835938 -10.300781 12.109375 -9.6875 C 12.378906 -9.082031 12.515625 -8.453125 12.515625 -7.796875 L 12.515625 -4.59375 C 12.515625 -3.9375 12.378906 -3.300781 12.109375 -2.6875 C 11.835938 -2.082031 11.457031 -1.550781 10.96875 -1.09375 C 10.488281 -0.632812 9.910156 -0.269531 9.234375 0 C 8.554688 0.257812 7.820312 0.390625 7.03125 0.390625 Z M 7.03125 -1.40625 C 7.539062 -1.40625 8.003906 -1.484375 8.421875 -1.640625 C 8.847656 -1.804688 9.210938 -2.035156 9.515625 -2.328125 C 9.816406 -2.617188 10.050781 -2.957031 10.21875 -3.34375 C 10.382812 -3.738281 10.46875 -4.15625 10.46875 -4.59375 L 10.46875 -7.796875 C 10.46875 -8.234375 10.382812 -8.644531 10.21875 -9.03125 C 10.050781 -9.425781 9.816406 -9.769531 9.515625 -10.0625 C 9.210938 -10.351562 8.847656 -10.578125 8.421875 -10.734375 C 8.003906 -10.898438 7.539062 -10.984375 7.03125 -10.984375 C 6.519531 -10.984375 6.050781 -10.898438 5.625 -10.734375 C 5.195312 -10.578125 4.832031 -10.351562 4.53125 -10.0625 C 4.238281 -9.769531 4.003906 -9.425781 3.828125 -9.03125 C 3.660156 -8.644531 3.578125 -8.234375 3.578125 -7.796875 L 3.578125 -4.59375 C 3.578125 -4.15625 3.660156 -3.738281 3.828125 -3.34375 C 4.003906 -2.957031 4.238281 -2.617188 4.53125 -2.328125 C 4.832031 -2.035156 5.195312 -1.804688 5.625 -1.640625 C 6.050781 -1.484375 6.519531 -1.40625 7.03125 -1.40625 Z M 7.03125 -1.40625 "/></g></g></g><g fill="rgb(100%, 100%, 100%)" fill-opacity="1"><g transform="translate(90.843431, 303.991622)"><g><path d="M 6.765625 0.390625 C 6.117188 0.390625 5.507812 0.257812 4.9375 0 C 4.375 -0.257812 3.878906 -0.597656 3.453125 -1.015625 C 3.023438 -1.441406 2.679688 -1.941406 2.421875 -2.515625 C 2.171875 -3.085938 2.046875 -3.695312 2.046875 -4.34375 L 2.046875 -11.5 C 2.046875 -11.75 2.132812 -11.976562 2.3125 -12.1875 C 2.488281 -12.40625 2.738281 -12.515625 3.0625 -12.515625 C 3.382812 -12.515625 3.632812 -12.40625 3.8125 -12.1875 C 4 -11.976562 4.09375 -11.75 4.09375 -11.5 L 4.09375 -4.34375 C 4.09375 -3.507812 4.378906 -2.8125 4.953125 -2.25 C 5.535156 -1.6875 6.3125 -1.40625 7.28125 -1.40625 C 8.25 -1.40625 9.019531 -1.6875 9.59375 -2.25 C 10.175781 -2.8125 10.46875 -3.507812 10.46875 -4.34375 L 10.46875 -11.5 C 10.46875 -11.75 10.554688 -11.976562 10.734375 -12.1875 C 10.921875 -12.40625 11.175781 -12.515625 11.5 -12.515625 C 11.820312 -12.515625 12.070312 -12.40625 12.25 -12.1875 C 12.425781 -11.976562 12.515625 -11.75 12.515625 -11.5 L 12.515625 -0.890625 C 12.515625 -0.640625 12.425781 -0.40625 12.25 -0.1875 C 12.070312 0.0195312 11.820312 0.125 11.5 0.125 C 11.175781 0.125 10.921875 0.0195312 10.734375 -0.1875 C 10.554688 -0.40625 10.46875 -0.640625 10.46875 -0.890625 L 10.46875 -1.15625 L 10.34375 -1.15625 C 10.101562 -0.863281 9.816406 -0.609375 9.484375 -0.390625 C 9.191406 -0.203125 8.8125 -0.0234375 8.34375 0.140625 C 7.882812 0.304688 7.359375 0.390625 6.765625 0.390625 Z M 6.765625 0.390625 "/></g></g></g><g fill="rgb(100%, 100%, 100%)" fill-opacity="1"><g transform="translate(107.654146, 303.991622)"><g><path d="M 3.0625 0.125 C 2.738281 0.125 2.488281 0.0195312 2.3125 -0.1875 C 2.132812 -0.40625 2.046875 -0.640625 2.046875 -0.890625 L 2.046875 -11.5 C 2.046875 -11.75 2.132812 -11.976562 2.3125 -12.1875 C 2.488281 -12.40625 2.738281 -12.515625 3.0625 -12.515625 C 3.382812 -12.515625 3.632812 -12.40625 3.8125 -12.1875 C 4 -11.976562 4.09375 -11.75 4.09375 -11.5 L 4.09375 -11.234375 L 4.21875 -11.234375 C 4.382812 -11.523438 4.613281 -11.78125 4.90625 -12 C 5.144531 -12.1875 5.453125 -12.359375 5.828125 -12.515625 C 6.203125 -12.679688 6.644531 -12.765625 7.15625 -12.765625 L 8.296875 -12.765625 C 8.554688 -12.765625 8.769531 -12.679688 8.9375 -12.515625 C 9.113281 -12.347656 9.203125 -12.132812 9.203125 -11.875 C 9.203125 -11.625 9.113281 -11.410156 8.9375 -11.234375 C 8.769531 -11.066406 8.554688 -10.984375 8.296875 -10.984375 L 6.890625 -10.984375 C 6.503906 -10.984375 6.140625 -10.90625 5.796875 -10.75 C 5.453125 -10.601562 5.148438 -10.390625 4.890625 -10.109375 C 4.640625 -9.835938 4.441406 -9.515625 4.296875 -9.140625 C 4.160156 -8.765625 4.09375 -8.359375 4.09375 -7.921875 L 4.09375 -0.890625 C 4.09375 -0.640625 4 -0.40625 3.8125 -0.1875 C 3.632812 0.0195312 3.382812 0.125 3.0625 0.125 Z M 3.0625 0.125 "/></g></g></g><g fill="rgb(0%, 0%, 0%)" fill-opacity="1"><g transform="translate(119.099329, 303.991622)"><g/></g></g><g fill="rgb(0%, 0%, 0%)" fill-opacity="1"><g transform="translate(127.479607, 303.991622)"><g><path d="M 7.15625 0.25 C 6.832031 0.25 6.578125 0.144531 6.390625 -0.0625 C 6.210938 -0.28125 6.125 -0.515625 6.125 -0.765625 L 6.125 -16.09375 L 1.28125 -16.09375 C 0.957031 -16.09375 0.703125 -16.175781 0.515625 -16.34375 C 0.335938 -16.519531 0.25 -16.734375 0.25 -16.984375 C 0.25 -17.242188 0.335938 -17.457031 0.515625 -17.625 C 0.703125 -17.789062 0.957031 -17.875 1.28125 -17.875 L 13.03125 -17.875 C 13.351562 -17.875 13.601562 -17.789062 13.78125 -17.625 C 13.957031 -17.457031 14.046875 -17.242188 14.046875 -16.984375 C 14.046875 -16.734375 13.957031 -16.519531 13.78125 -16.34375 C 13.601562 -16.175781 13.351562 -16.09375 13.03125 -16.09375 L 8.171875 -16.09375 L 8.171875 -0.765625 C 8.171875 -0.515625 8.082031 -0.28125 7.90625 -0.0625 C 7.726562 0.144531 7.476562 0.25 7.15625 0.25 Z M 7.15625 0.25 "/></g></g></g><g fill="rgb(0%, 0%, 0%)" fill-opacity="1"><g transform="translate(144.034857, 303.991622)"><g><path d="M 3.0625 0.125 C 2.738281 0.125 2.488281 0.0195312 2.3125 -0.1875 C 2.132812 -0.40625 2.046875 -0.640625 2.046875 -0.890625 L 2.046875 -11.5 C 2.046875 -11.75 2.132812 -11.976562 2.3125 -12.1875 C 2.488281 -12.40625 2.738281 -12.515625 3.0625 -12.515625 C 3.382812 -12.515625 3.632812 -12.40625 3.8125 -12.1875 C 4 -11.976562 4.09375 -11.75 4.09375 -11.5 L 4.09375 -11.234375 L 4.21875 -11.234375 C 4.382812 -11.523438 4.613281 -11.78125 4.90625 -12 C 5.144531 -12.1875 5.453125 -12.359375 5.828125 -12.515625 C 6.203125 -12.679688 6.644531 -12.765625 7.15625 -12.765625 L 8.296875 -12.765625 C 8.554688 -12.765625 8.769531 -12.679688 8.9375 -12.515625 C 9.113281 -12.347656 9.203125 -12.132812 9.203125 -11.875 C 9.203125 -11.625 9.113281 -11.410156 8.9375 -11.234375 C 8.769531 -11.066406 8.554688 -10.984375 8.296875 -10.984375 L 6.890625 -10.984375 C 6.503906 -10.984375 6.140625 -10.90625 5.796875 -10.75 C 5.453125 -10.601562 5.148438 -10.390625 4.890625 -10.109375 C 4.640625 -9.835938 4.441406 -9.515625 4.296875 -9.140625 C 4.160156 -8.765625 4.09375 -8.359375 4.09375 -7.921875 L 4.09375 -0.890625 C 4.09375 -0.640625 4 -0.40625 3.8125 -0.1875 C 3.632812 0.0195312 3.382812 0.125 3.0625 0.125 Z M 3.0625 0.125 "/></g></g></g><g fill="rgb(0%, 0%, 0%)" fill-opacity="1"><g transform="translate(155.480753, 303.991622)"><g><path d="M 5.359375 0.390625 C 4.710938 0.390625 4.132812 0.289062 3.625 0.09375 C 3.113281 -0.101562 2.671875 -0.367188 2.296875 -0.703125 C 1.921875 -1.046875 1.632812 -1.453125 1.4375 -1.921875 C 1.25 -2.390625 1.15625 -2.898438 1.15625 -3.453125 C 1.15625 -3.960938 1.257812 -4.445312 1.46875 -4.90625 C 1.675781 -5.363281 1.984375 -5.769531 2.390625 -6.125 C 2.804688 -6.488281 3.304688 -6.769531 3.890625 -6.96875 C 4.484375 -7.175781 5.144531 -7.28125 5.875 -7.28125 L 9.578125 -7.28125 L 9.578125 -8.046875 C 9.578125 -8.878906 9.285156 -9.578125 8.703125 -10.140625 C 8.128906 -10.703125 7.359375 -10.984375 6.390625 -10.984375 C 5.617188 -10.984375 5.023438 -10.832031 4.609375 -10.53125 C 4.191406 -10.238281 3.890625 -9.960938 3.703125 -9.703125 C 3.515625 -9.453125 3.335938 -9.257812 3.171875 -9.125 C 3.015625 -9 2.804688 -8.9375 2.546875 -8.9375 C 2.296875 -8.9375 2.082031 -9.019531 1.90625 -9.1875 C 1.738281 -9.363281 1.65625 -9.578125 1.65625 -9.828125 C 1.65625 -10.015625 1.695312 -10.195312 1.78125 -10.375 C 1.820312 -10.457031 1.867188 -10.535156 1.921875 -10.609375 C 2.015625 -10.753906 2.179688 -10.953125 2.421875 -11.203125 C 2.660156 -11.453125 2.96875 -11.691406 3.34375 -11.921875 C 3.71875 -12.148438 4.15625 -12.347656 4.65625 -12.515625 C 5.164062 -12.679688 5.742188 -12.765625 6.390625 -12.765625 C 7.148438 -12.765625 7.847656 -12.632812 8.484375 -12.375 C 9.128906 -12.125 9.6875 -11.785156 10.15625 -11.359375 C 10.625 -10.941406 10.984375 -10.441406 11.234375 -9.859375 C 11.492188 -9.285156 11.625 -8.679688 11.625 -8.046875 L 11.625 -0.890625 C 11.625 -0.640625 11.535156 -0.40625 11.359375 -0.1875 C 11.179688 0.0195312 10.929688 0.125 10.609375 0.125 C 10.273438 0.125 10.019531 0.0195312 9.84375 -0.1875 C 9.664062 -0.40625 9.578125 -0.640625 9.578125 -0.890625 L 9.578125 -1.015625 L 9.453125 -1.015625 C 9.128906 -0.742188 8.765625 -0.507812 8.359375 -0.3125 C 7.992188 -0.125 7.5625 0.0351562 7.0625 0.171875 C 6.570312 0.316406 6.003906 0.390625 5.359375 0.390625 Z M 5.625 -1.40625 C 6.332031 -1.40625 6.929688 -1.488281 7.421875 -1.65625 C 7.921875 -1.832031 8.332031 -2.019531 8.65625 -2.21875 C 9.03125 -2.457031 9.335938 -2.738281 9.578125 -3.0625 L 9.578125 -5.5 L 5.875 -5.5 C 4.96875 -5.5 4.289062 -5.300781 3.84375 -4.90625 C 3.40625 -4.507812 3.1875 -4.023438 3.1875 -3.453125 C 3.1875 -2.867188 3.398438 -2.378906 3.828125 -1.984375 C 4.253906 -1.597656 4.851562 -1.40625 5.625 -1.40625 Z M 5.625 -1.40625 "/></g></g></g><g fill="rgb(0%, 0%, 0%)" fill-opacity="1"><g transform="translate(171.141866, 303.991622)"><g><path d="M 6.125 0.390625 C 5.738281 0.390625 5.421875 0.273438 5.171875 0.046875 C 4.921875 -0.171875 4.726562 -0.441406 4.59375 -0.765625 L 0.640625 -10.609375 C 0.585938 -10.742188 0.53125 -10.890625 0.46875 -11.046875 C 0.414062 -11.210938 0.390625 -11.363281 0.390625 -11.5 C 0.390625 -11.75 0.476562 -11.976562 0.65625 -12.1875 C 0.832031 -12.40625 1.082031 -12.515625 1.40625 -12.515625 C 1.65625 -12.515625 1.863281 -12.429688 2.03125 -12.265625 C 2.207031 -12.109375 2.335938 -11.9375 2.421875 -11.75 L 6.078125 -2.546875 L 6.1875 -2.546875 L 9.828125 -11.75 C 9.921875 -11.9375 10.050781 -12.109375 10.21875 -12.265625 C 10.382812 -12.429688 10.597656 -12.515625 10.859375 -12.515625 C 11.179688 -12.515625 11.429688 -12.40625 11.609375 -12.1875 C 11.785156 -11.976562 11.875 -11.75 11.875 -11.5 C 11.875 -11.363281 11.84375 -11.210938 11.78125 -11.046875 C 11.726562 -10.890625 11.675781 -10.742188 11.625 -10.609375 L 7.65625 -0.765625 C 7.519531 -0.441406 7.328125 -0.171875 7.078125 0.046875 C 6.835938 0.273438 6.519531 0.390625 6.125 0.390625 Z M 6.125 0.390625 "/></g></g></g><g fill="rgb(100%, 100%, 100%)" fill-opacity="1"><g transform="translate(185.650106, 303.991622)"><g><path d="M 7.03125 0.390625 C 6.226562 0.390625 5.488281 0.257812 4.8125 0 C 4.144531 -0.269531 3.566406 -0.632812 3.078125 -1.09375 C 2.585938 -1.550781 2.207031 -2.082031 1.9375 -2.6875 C 1.664062 -3.300781 1.53125 -3.9375 1.53125 -4.59375 L 1.53125 -7.796875 C 1.53125 -8.453125 1.664062 -9.082031 1.9375 -9.6875 C 2.207031 -10.300781 2.585938 -10.835938 3.078125 -11.296875 C 3.566406 -11.753906 4.144531 -12.113281 4.8125 -12.375 C 5.488281 -12.632812 6.226562 -12.765625 7.03125 -12.765625 C 7.820312 -12.765625 8.554688 -12.632812 9.234375 -12.375 C 9.910156 -12.113281 10.488281 -11.753906 10.96875 -11.296875 C 11.457031 -10.835938 11.835938 -10.300781 12.109375 -9.6875 C 12.378906 -9.082031 12.515625 -8.453125 12.515625 -7.796875 L 12.515625 -6.390625 C 12.515625 -6.128906 12.425781 -5.890625 12.25 -5.671875 C 12.070312 -5.460938 11.820312 -5.359375 11.5 -5.359375 L 3.578125 -5.359375 L 3.578125 -4.59375 C 3.578125 -4.15625 3.660156 -3.738281 3.828125 -3.34375 C 4.003906 -2.957031 4.238281 -2.617188 4.53125 -2.328125 C 4.832031 -2.035156 5.195312 -1.804688 5.625 -1.640625 C 6.050781 -1.484375 6.519531 -1.40625 7.03125 -1.40625 C 7.789062 -1.40625 8.390625 -1.503906 8.828125 -1.703125 C 9.273438 -1.898438 9.640625 -2.117188 9.921875 -2.359375 C 10.203125 -2.609375 10.441406 -2.832031 10.640625 -3.03125 C 10.835938 -3.226562 11.082031 -3.328125 11.375 -3.328125 C 11.625 -3.328125 11.832031 -3.238281 12 -3.0625 C 12.175781 -2.894531 12.265625 -2.679688 12.265625 -2.421875 C 12.265625 -2.203125 12.144531 -1.929688 11.90625 -1.609375 C 11.664062 -1.285156 11.320312 -0.976562 10.875 -0.6875 C 10.4375 -0.394531 9.894531 -0.144531 9.25 0.0625 C 8.601562 0.28125 7.863281 0.390625 7.03125 0.390625 Z M 10.46875 -7.15625 L 10.46875 -7.796875 C 10.46875 -8.234375 10.382812 -8.644531 10.21875 -9.03125 C 10.050781 -9.425781 9.816406 -9.769531 9.515625 -10.0625 C 9.210938 -10.351562 8.847656 -10.578125 8.421875 -10.734375 C 8.003906 -10.898438 7.539062 -10.984375 7.03125 -10.984375 C 6.519531 -10.984375 6.050781 -10.898438 5.625 -10.734375 C 5.195312 -10.578125 4.832031 -10.351562 4.53125 -10.0625 C 4.238281 -9.769531 4.003906 -9.425781 3.828125 -9.03125 C 3.660156 -8.644531 3.578125 -8.234375 3.578125 -7.796875 L 3.578125 -7.15625 Z M 10.46875 -7.15625 "/></g></g></g><g fill="rgb(100%, 100%, 100%)" fill-opacity="1"><g transform="translate(201.694423, 303.991622)"><g><path d="M 3.0625 0.125 C 2.738281 0.125 2.488281 0.0195312 2.3125 -0.1875 C 2.132812 -0.40625 2.046875 -0.640625 2.046875 -0.890625 L 2.046875 -16.734375 C 2.046875 -16.984375 2.132812 -17.210938 2.3125 -17.421875 C 2.488281 -17.640625 2.738281 -17.75 3.0625 -17.75 C 3.382812 -17.75 3.632812 -17.640625 3.8125 -17.421875 C 4 -17.210938 4.09375 -16.984375 4.09375 -16.734375 L 4.09375 -0.890625 C 4.09375 -0.640625 4 -0.40625 3.8125 -0.1875 C 3.632812 0.0195312 3.382812 0.125 3.0625 0.125 Z M 3.0625 0.125 "/></g></g></g><g fill="rgb(0%, 0%, 0%)" fill-opacity="1"><g transform="translate(210.07198, 303.991622)"><g/></g></g><g fill="rgb(100%, 100%, 100%)" fill-opacity="1"><g transform="translate(218.450889, 303.991622)"><g><path d="M 7.15625 0.25 C 6.832031 0.25 6.578125 0.144531 6.390625 -0.0625 C 6.210938 -0.28125 6.125 -0.515625 6.125 -0.765625 L 6.125 -16.09375 L 1.28125 -16.09375 C 0.957031 -16.09375 0.703125 -16.175781 0.515625 -16.34375 C 0.335938 -16.519531 0.25 -16.734375 0.25 -16.984375 C 0.25 -17.242188 0.335938 -17.457031 0.515625 -17.625 C 0.703125 -17.789062 0.957031 -17.875 1.28125 -17.875 L 13.03125 -17.875 C 13.351562 -17.875 13.601562 -17.789062 13.78125 -17.625 C 13.957031 -17.457031 14.046875 -17.242188 14.046875 -16.984375 C 14.046875 -16.734375 13.957031 -16.519531 13.78125 -16.34375 C 13.601562 -16.175781 13.351562 -16.09375 13.03125 -16.09375 L 8.171875 -16.09375 L 8.171875 -0.765625 C 8.171875 -0.515625 8.082031 -0.28125 7.90625 -0.0625 C 7.726562 0.144531 7.476562 0.25 7.15625 0.25 Z M 7.15625 0.25 "/></g></g></g><g fill="rgb(100%, 100%, 100%)" fill-opacity="1"><g transform="translate(235.006139, 303.991622)"><g><path d="M 3.0625 0.125 C 2.738281 0.125 2.488281 0.0195312 2.3125 -0.1875 C 2.132812 -0.40625 2.046875 -0.640625 2.046875 -0.890625 L 2.046875 -11.5 C 2.046875 -11.75 2.132812 -11.976562 2.3125 -12.1875 C 2.488281 -12.40625 2.738281 -12.515625 3.0625 -12.515625 C 3.382812 -12.515625 3.632812 -12.40625 3.8125 -12.1875 C 4 -11.976562 4.09375 -11.75 4.09375 -11.5 L 4.09375 -11.234375 L 4.21875 -11.234375 C 4.382812 -11.523438 4.613281 -11.78125 4.90625 -12 C 5.144531 -12.1875 5.453125 -12.359375 5.828125 -12.515625 C 6.203125 -12.679688 6.644531 -12.765625 7.15625 -12.765625 L 8.296875 -12.765625 C 8.554688 -12.765625 8.769531 -12.679688 8.9375 -12.515625 C 9.113281 -12.347656 9.203125 -12.132812 9.203125 -11.875 C 9.203125 -11.625 9.113281 -11.410156 8.9375 -11.234375 C 8.769531 -11.066406 8.554688 -10.984375 8.296875 -10.984375 L 6.890625 -10.984375 C 6.503906 -10.984375 6.140625 -10.90625 5.796875 -10.75 C 5.453125 -10.601562 5.148438 -10.390625 4.890625 -10.109375 C 4.640625 -9.835938 4.441406 -9.515625 4.296875 -9.140625 C 4.160156 -8.765625 4.09375 -8.359375 4.09375 -7.921875 L 4.09375 -0.890625 C 4.09375 -0.640625 4 -0.40625 3.8125 -0.1875 C 3.632812 0.0195312 3.382812 0.125 3.0625 0.125 Z M 3.0625 0.125 "/></g></g></g><g fill="rgb(100%, 100%, 100%)" fill-opacity="1"><g transform="translate(246.452037, 303.991622)"><g><path d="M 5.359375 0.390625 C 4.710938 0.390625 4.132812 0.289062 3.625 0.09375 C 3.113281 -0.101562 2.671875 -0.367188 2.296875 -0.703125 C 1.921875 -1.046875 1.632812 -1.453125 1.4375 -1.921875 C 1.25 -2.390625 1.15625 -2.898438 1.15625 -3.453125 C 1.15625 -3.960938 1.257812 -4.445312 1.46875 -4.90625 C 1.675781 -5.363281 1.984375 -5.769531 2.390625 -6.125 C 2.804688 -6.488281 3.304688 -6.769531 3.890625 -6.96875 C 4.484375 -7.175781 5.144531 -7.28125 5.875 -7.28125 L 9.578125 -7.28125 L 9.578125 -8.046875 C 9.578125 -8.878906 9.285156 -9.578125 8.703125 -10.140625 C 8.128906 -10.703125 7.359375 -10.984375 6.390625 -10.984375 C 5.617188 -10.984375 5.023438 -10.832031 4.609375 -10.53125 C 4.191406 -10.238281 3.890625 -9.960938 3.703125 -9.703125 C 3.515625 -9.453125 3.335938 -9.257812 3.171875 -9.125 C 3.015625 -9 2.804688 -8.9375 2.546875 -8.9375 C 2.296875 -8.9375 2.082031 -9.019531 1.90625 -9.1875 C 1.738281 -9.363281 1.65625 -9.578125 1.65625 -9.828125 C 1.65625 -10.015625 1.695312 -10.195312 1.78125 -10.375 C 1.820312 -10.457031 1.867188 -10.535156 1.921875 -10.609375 C 2.015625 -10.753906 2.179688 -10.953125 2.421875 -11.203125 C 2.660156 -11.453125 2.96875 -11.691406 3.34375 -11.921875 C 3.71875 -12.148438 4.15625 -12.347656 4.65625 -12.515625 C 5.164062 -12.679688 5.742188 -12.765625 6.390625 -12.765625 C 7.148438 -12.765625 7.847656 -12.632812 8.484375 -12.375 C 9.128906 -12.125 9.6875 -11.785156 10.15625 -11.359375 C 10.625 -10.941406 10.984375 -10.441406 11.234375 -9.859375 C 11.492188 -9.285156 11.625 -8.679688 11.625 -8.046875 L 11.625 -0.890625 C 11.625 -0.640625 11.535156 -0.40625 11.359375 -0.1875 C 11.179688 0.0195312 10.929688 0.125 10.609375 0.125 C 10.273438 0.125 10.019531 0.0195312 9.84375 -0.1875 C 9.664062 -0.40625 9.578125 -0.640625 9.578125 -0.890625 L 9.578125 -1.015625 L 9.453125 -1.015625 C 9.128906 -0.742188 8.765625 -0.507812 8.359375 -0.3125 C 7.992188 -0.125 7.5625 0.0351562 7.0625 0.171875 C 6.570312 0.316406 6.003906 0.390625 5.359375 0.390625 Z M 5.625 -1.40625 C 6.332031 -1.40625 6.929688 -1.488281 7.421875 -1.65625 C 7.921875 -1.832031 8.332031 -2.019531 8.65625 -2.21875 C 9.03125 -2.457031 9.335938 -2.738281 9.578125 -3.0625 L 9.578125 -5.5 L 5.875 -5.5 C 4.96875 -5.5 4.289062 -5.300781 3.84375 -4.90625 C 3.40625 -4.507812 3.1875 -4.023438 3.1875 -3.453125 C 3.1875 -2.867188 3.398438 -2.378906 3.828125 -1.984375 C 4.253906 -1.597656 4.851562 -1.40625 5.625 -1.40625 Z M 5.625 -1.40625 "/></g></g></g><g fill="rgb(100%, 100%, 100%)" fill-opacity="1"><g transform="translate(262.113146, 303.991622)"><g><path d="M 7.03125 0.390625 C 6.226562 0.390625 5.488281 0.257812 4.8125 0 C 4.144531 -0.269531 3.566406 -0.632812 3.078125 -1.09375 C 2.585938 -1.550781 2.207031 -2.082031 1.9375 -2.6875 C 1.664062 -3.300781 1.53125 -3.9375 1.53125 -4.59375 L 1.53125 -7.796875 C 1.53125 -8.453125 1.664062 -9.082031 1.9375 -9.6875 C 2.207031 -10.300781 2.585938 -10.835938 3.078125 -11.296875 C 3.566406 -11.753906 4.144531 -12.113281 4.8125 -12.375 C 5.488281 -12.632812 6.226562 -12.765625 7.03125 -12.765625 C 7.6875 -12.765625 8.285156 -12.671875 8.828125 -12.484375 C 9.378906 -12.304688 9.859375 -12.078125 10.265625 -11.796875 C 10.679688 -11.515625 11.019531 -11.207031 11.28125 -10.875 C 11.539062 -10.550781 11.738281 -10.25 11.875 -9.96875 C 11.894531 -9.914062 11.914062 -9.851562 11.9375 -9.78125 C 11.945312 -9.726562 11.957031 -9.660156 11.96875 -9.578125 C 11.988281 -9.492188 12 -9.410156 12 -9.328125 C 12 -9.066406 11.914062 -8.851562 11.75 -8.6875 C 11.582031 -8.519531 11.367188 -8.4375 11.109375 -8.4375 C 10.859375 -8.4375 10.664062 -8.5 10.53125 -8.625 C 10.394531 -8.75 10.25 -8.941406 10.09375 -9.203125 C 9.769531 -9.710938 9.382812 -10.132812 8.9375 -10.46875 C 8.5 -10.8125 7.863281 -10.984375 7.03125 -10.984375 C 6.519531 -10.984375 6.050781 -10.898438 5.625 -10.734375 C 5.195312 -10.578125 4.832031 -10.351562 4.53125 -10.0625 C 4.238281 -9.769531 4.003906 -9.425781 3.828125 -9.03125 C 3.660156 -8.644531 3.578125 -8.234375 3.578125 -7.796875 L 3.578125 -4.59375 C 3.578125 -4.15625 3.660156 -3.738281 3.828125 -3.34375 C 4.003906 -2.957031 4.238281 -2.617188 4.53125 -2.328125 C 4.832031 -2.035156 5.195312 -1.804688 5.625 -1.640625 C 6.050781 -1.484375 6.519531 -1.40625 7.03125 -1.40625 C 7.914062 -1.40625 8.625 -1.617188 9.15625 -2.046875 C 9.695312 -2.472656 10.09375 -2.941406 10.34375 -3.453125 C 10.476562 -3.703125 10.617188 -3.890625 10.765625 -4.015625 C 10.910156 -4.148438 11.113281 -4.21875 11.375 -4.21875 C 11.625 -4.21875 11.832031 -4.128906 12 -3.953125 C 12.175781 -3.785156 12.265625 -3.578125 12.265625 -3.328125 C 12.265625 -3.222656 12.253906 -3.128906 12.234375 -3.046875 C 12.222656 -2.972656 12.207031 -2.910156 12.1875 -2.859375 C 12.164062 -2.796875 12.148438 -2.738281 12.140625 -2.6875 C 12.003906 -2.363281 11.796875 -2.019531 11.515625 -1.65625 C 11.234375 -1.300781 10.875 -0.96875 10.4375 -0.65625 C 10 -0.351562 9.492188 -0.101562 8.921875 0.09375 C 8.359375 0.289062 7.726562 0.390625 7.03125 0.390625 Z M 7.03125 0.390625 "/></g></g></g><g fill="rgb(0%, 0%, 0%)" fill-opacity="1"><g transform="translate(277.384475, 303.991622)"><g><path d="M 3.0625 0.125 C 2.738281 0.125 2.488281 0.0195312 2.3125 -0.1875 C 2.132812 -0.40625 2.046875 -0.640625 2.046875 -0.890625 L 2.046875 -16.734375 C 2.046875 -16.984375 2.132812 -17.210938 2.3125 -17.421875 C 2.488281 -17.640625 2.738281 -17.75 3.0625 -17.75 C 3.382812 -17.75 3.632812 -17.640625 3.8125 -17.421875 C 4 -17.210938 4.09375 -16.984375 4.09375 -16.734375 L 4.09375 -7.28125 L 6.515625 -7.28125 L 10.21875 -11.875 C 10.320312 -12.007812 10.453125 -12.148438 10.609375 -12.296875 C 10.773438 -12.441406 10.984375 -12.515625 11.234375 -12.515625 C 11.554688 -12.515625 11.804688 -12.40625 11.984375 -12.1875 C 12.171875 -11.976562 12.265625 -11.75 12.265625 -11.5 C 12.265625 -11.3125 12.222656 -11.144531 12.140625 -11 C 12.066406 -10.851562 11.976562 -10.722656 11.875 -10.609375 L 8.296875 -6.390625 L 12.140625 -1.78125 C 12.234375 -1.664062 12.316406 -1.535156 12.390625 -1.390625 C 12.472656 -1.242188 12.515625 -1.078125 12.515625 -0.890625 C 12.515625 -0.640625 12.425781 -0.40625 12.25 -0.1875 C 12.070312 0.0195312 11.820312 0.125 11.5 0.125 C 11.238281 0.125 11.023438 0.0507812 10.859375 -0.09375 C 10.703125 -0.238281 10.570312 -0.378906 10.46875 -0.515625 L 6.515625 -5.5 L 4.09375 -5.5 L 4.09375 -0.890625 C 4.09375 -0.640625 4 -0.40625 3.8125 -0.1875 C 3.632812 0.0195312 3.382812 0.125 3.0625 0.125 Z M 3.0625 0.125 "/></g></g></g><g fill="rgb(0%, 0%, 0%)" fill-opacity="1"><g transform="translate(292.79012, 303.991622)"><g><path d="M 7.03125 0.390625 C 6.226562 0.390625 5.488281 0.257812 4.8125 0 C 4.144531 -0.269531 3.566406 -0.632812 3.078125 -1.09375 C 2.585938 -1.550781 2.207031 -2.082031 1.9375 -2.6875 C 1.664062 -3.300781 1.53125 -3.9375 1.53125 -4.59375 L 1.53125 -7.796875 C 1.53125 -8.453125 1.664062 -9.082031 1.9375 -9.6875 C 2.207031 -10.300781 2.585938 -10.835938 3.078125 -11.296875 C 3.566406 -11.753906 4.144531 -12.113281 4.8125 -12.375 C 5.488281 -12.632812 6.226562 -12.765625 7.03125 -12.765625 C 7.820312 -12.765625 8.554688 -12.632812 9.234375 -12.375 C 9.910156 -12.113281 10.488281 -11.753906 10.96875 -11.296875 C 11.457031 -10.835938 11.835938 -10.300781 12.109375 -9.6875 C 12.378906 -9.082031 12.515625 -8.453125 12.515625 -7.796875 L 12.515625 -6.390625 C 12.515625 -6.128906 12.425781 -5.890625 12.25 -5.671875 C 12.070312 -5.460938 11.820312 -5.359375 11.5 -5.359375 L 3.578125 -5.359375 L 3.578125 -4.59375 C 3.578125 -4.15625 3.660156 -3.738281 3.828125 -3.34375 C 4.003906 -2.957031 4.238281 -2.617188 4.53125 -2.328125 C 4.832031 -2.035156 5.195312 -1.804688 5.625 -1.640625 C 6.050781 -1.484375 6.519531 -1.40625 7.03125 -1.40625 C 7.789062 -1.40625 8.390625 -1.503906 8.828125 -1.703125 C 9.273438 -1.898438 9.640625 -2.117188 9.921875 -2.359375 C 10.203125 -2.609375 10.441406 -2.832031 10.640625 -3.03125 C 10.835938 -3.226562 11.082031 -3.328125 11.375 -3.328125 C 11.625 -3.328125 11.832031 -3.238281 12 -3.0625 C 12.175781 -2.894531 12.265625 -2.679688 12.265625 -2.421875 C 12.265625 -2.203125 12.144531 -1.929688 11.90625 -1.609375 C 11.664062 -1.285156 11.320312 -0.976562 10.875 -0.6875 C 10.4375 -0.394531 9.894531 -0.144531 9.25 0.0625 C 8.601562 0.28125 7.863281 0.390625 7.03125 0.390625 Z M 10.46875 -7.15625 L 10.46875 -7.796875 C 10.46875 -8.234375 10.382812 -8.644531 10.21875 -9.03125 C 10.050781 -9.425781 9.816406 -9.769531 9.515625 -10.0625 C 9.210938 -10.351562 8.847656 -10.578125 8.421875 -10.734375 C 8.003906 -10.898438 7.539062 -10.984375 7.03125 -10.984375 C 6.519531 -10.984375 6.050781 -10.898438 5.625 -10.734375 C 5.195312 -10.578125 4.832031 -10.351562 4.53125 -10.0625 C 4.238281 -9.769531 4.003906 -9.425781 3.828125 -9.03125 C 3.660156 -8.644531 3.578125 -8.234375 3.578125 -7.796875 L 3.578125 -7.15625 Z M 10.46875 -7.15625 "/></g></g></g><g fill="rgb(0%, 0%, 0%)" fill-opacity="1"><g transform="translate(308.834437, 303.991622)"><g><path d="M 3.0625 0.125 C 2.738281 0.125 2.488281 0.0195312 2.3125 -0.1875 C 2.132812 -0.40625 2.046875 -0.640625 2.046875 -0.890625 L 2.046875 -11.5 C 2.046875 -11.75 2.132812 -11.976562 2.3125 -12.1875 C 2.488281 -12.40625 2.738281 -12.515625 3.0625 -12.515625 C 3.382812 -12.515625 3.632812 -12.40625 3.8125 -12.1875 C 4 -11.976562 4.09375 -11.75 4.09375 -11.5 L 4.09375 -11.234375 L 4.21875 -11.234375 C 4.382812 -11.523438 4.613281 -11.78125 4.90625 -12 C 5.144531 -12.1875 5.453125 -12.359375 5.828125 -12.515625 C 6.203125 -12.679688 6.644531 -12.765625 7.15625 -12.765625 L 8.296875 -12.765625 C 8.554688 -12.765625 8.769531 -12.679688 8.9375 -12.515625 C 9.113281 -12.347656 9.203125 -12.132812 9.203125 -11.875 C 9.203125 -11.625 9.113281 -11.410156 8.9375 -11.234375 C 8.769531 -11.066406 8.554688 -10.984375 8.296875 -10.984375 L 6.890625 -10.984375 C 6.503906 -10.984375 6.140625 -10.90625 5.796875 -10.75 C 5.453125 -10.601562 5.148438 -10.390625 4.890625 -10.109375 C 4.640625 -9.835938 4.441406 -9.515625 4.296875 -9.140625 C 4.160156 -8.765625 4.09375 -8.359375 4.09375 -7.921875 L 4.09375 -0.890625 C 4.09375 -0.640625 4 -0.40625 3.8125 -0.1875 C 3.632812 0.0195312 3.382812 0.125 3.0625 0.125 Z M 3.0625 0.125 "/></g></g></g></svg>