<svg xmlns="http://www.w3.org/2000/svg" xmlns:xlink="http://www.w3.org/1999/xlink" width="500" zoomAndPan="magnify" viewBox="0 0 375 374.999991" height="500" preserveAspectRatio="xMidYMid meet" version="1.0"><defs><filter x="0%" y="0%" width="100%" height="100%" id="id1"><feColorMatrix values="0 0 0 0 1 0 0 0 0 1 0 0 0 0 1 0 0 0 1 0" color-interpolation-filters="sRGB"/></filter><g/><mask id="id2"><g filter="url(#id1)"><rect x="-37.5" width="450" fill="rgb(0%, 0%, 0%)" y="-37.499999" height="449.999989" fill-opacity="0.2471"/></g></mask><clipPath id="id3"><path d="M 27 40 L 158 40 L 158 140 L 27 140 Z M 27 40 " clip-rule="nonzero"/></clipPath><clipPath id="id4"><path d="M 181.996094 117.375 L 48.042969 172.230469 L 0.292969 55.628906 L 134.242188 0.773438 Z M 181.996094 117.375 " clip-rule="nonzero"/></clipPath><clipPath id="id5"><path d="M 181.996094 117.375 L 48.042969 172.230469 L 0.292969 55.628906 L 134.242188 0.773438 Z M 181.996094 117.375 " clip-rule="nonzero"/></clipPath><clipPath id="id6"><path d="M 181.996094 117.375 L 48.042969 172.230469 L 0.292969 55.628906 L 134.242188 0.773438 Z M 181.996094 117.375 " clip-rule="nonzero"/></clipPath><clipPath id="id7"><rect x="0" width="183" y="0" height="173"/></clipPath><clipPath id="id8"><path d="M 99 37 L 269.53125 37 L 269.53125 206.539062 L 99 206.539062 Z M 99 37 " clip-rule="nonzero"/></clipPath><clipPath id="id9"><path d="M 190 22.789062 L 232 22.789062 L 232 91 L 190 91 Z M 190 22.789062 " clip-rule="nonzero"/></clipPath></defs><g mask="url(#id2)"><g transform="matrix(1, 0, 0, 1, 69, 34)"><g clip-path="url(#id7)"><g clip-path="url(#id3)"><g clip-path="url(#id4)"><g clip-path="url(#id5)"><g clip-path="url(#id6)"><path fill="rgb(46.269226%, 79.998779%, 81.17981%)" d="M 76.136719 136.019531 C 51.636719 127.148438 5.53125 68.171875 40.597656 45.054688 C 64.3125 29.414062 68.082031 54.445312 100.585938 74.039062 C 111.355469 80.519531 164.042969 73.785156 156.292969 107.175781 C 151.695312 126.960938 108.183594 147.601562 76.136719 136.019531 Z M 76.136719 136.019531 " fill-opacity="1" fill-rule="nonzero"/></g></g></g></g></g></g></g><g clip-path="url(#id8)"><path fill="rgb(0%, 0%, 0%)" d="M 235.089844 54.046875 C 234.980469 53.957031 234.855469 53.894531 234.722656 53.859375 C 234.585938 53.820312 234.449219 53.8125 234.308594 53.832031 C 234.167969 53.847656 234.039062 53.894531 233.917969 53.964844 C 233.796875 54.035156 233.695312 54.128906 233.609375 54.242188 C 233.527344 54.351562 233.46875 54.476562 233.433594 54.613281 C 233.402344 54.75 233.394531 54.886719 233.417969 55.027344 C 233.441406 55.164062 233.488281 55.292969 233.5625 55.414062 C 233.636719 55.53125 233.730469 55.632812 233.847656 55.714844 C 254.609375 71.160156 266.691406 94.925781 267.003906 120.921875 C 267.113281 129.542969 265.902344 137.976562 263.375 146.222656 C 261.773438 148.257812 260.183594 150.300781 258.539062 152.300781 C 256.683594 154.605469 254.714844 156.804688 252.628906 158.898438 C 252.15625 159.363281 251.671875 159.8125 251.179688 160.25 C 250.941406 160.460938 250.703125 160.667969 250.457031 160.867188 L 250.117188 161.144531 L 249.972656 161.261719 C 250.085938 161.171875 249.941406 161.261719 249.914062 161.304688 C 248.722656 162.207031 247.441406 162.988281 246.214844 163.84375 C 244.878906 164.722656 243.675781 165.757812 242.605469 166.949219 C 241.574219 168.148438 240.847656 169.511719 240.433594 171.042969 C 240.035156 172.515625 239.949219 174.007812 240.175781 175.515625 C 240.398438 177.027344 240.914062 178.429688 241.722656 179.726562 C 241.9375 180.050781 242.171875 180.363281 242.417969 180.667969 C 240.523438 182.546875 238.539062 184.328125 236.46875 186.015625 C 234.398438 187.699219 232.253906 189.28125 230.027344 190.753906 C 227.804688 192.230469 225.515625 193.59375 223.15625 194.84375 C 220.800781 196.097656 218.386719 197.230469 215.917969 198.246094 C 213.449219 199.261719 210.9375 200.152344 208.382812 200.921875 C 205.828125 201.691406 203.238281 202.332031 200.621094 202.851562 C 198.003906 203.367188 195.367188 203.753906 192.710938 204.011719 C 190.054688 204.269531 187.390625 204.398438 184.722656 204.394531 L 184.582031 204.394531 C 179.289062 204.414062 174.046875 203.929688 168.851562 202.933594 C 163.65625 201.9375 158.605469 200.453125 153.695312 198.480469 C 148.789062 196.507812 144.113281 194.082031 139.675781 191.203125 C 135.238281 188.324219 131.113281 185.046875 127.3125 181.371094 C 127.933594 180.28125 128.414062 179.128906 128.753906 177.917969 C 129.089844 176.707031 129.269531 175.472656 129.296875 174.21875 C 129.320312 172.960938 129.191406 171.722656 128.90625 170.496094 C 128.621094 169.273438 128.191406 168.101562 127.613281 166.988281 C 126.457031 164.777344 124.632812 163.117188 122.914062 161.371094 C 122.484375 160.941406 122.09375 160.511719 121.714844 160.082031 L 121.453125 159.765625 L 121.425781 159.734375 C 121.386719 159.691406 121.355469 159.636719 121.320312 159.585938 C 121.152344 159.363281 120.992188 159.132812 120.847656 158.890625 C 120.703125 158.667969 120.574219 158.4375 120.460938 158.199219 L 120.371094 158 C 120.316406 157.867188 120.269531 157.734375 120.222656 157.597656 C 120.140625 157.347656 120.078125 157.089844 120.03125 156.832031 C 120.03125 156.78125 120.003906 156.710938 120 156.652344 L 120 156.601562 C 120 156.457031 120 156.320312 119.972656 156.171875 C 119.972656 155.945312 119.972656 155.738281 120.003906 155.503906 C 120.003906 155.503906 120.003906 155.523438 120.003906 155.539062 C 120.019531 155.476562 120.027344 155.417969 120.035156 155.355469 C 120.035156 155.242188 120.078125 155.125 120.105469 155.007812 C 120.15625 154.796875 120.21875 154.585938 120.292969 154.378906 C 120.332031 154.265625 120.375 154.15625 120.414062 154.046875 L 120.476562 153.898438 C 120.886719 153.03125 121.386719 152.210938 121.972656 151.449219 C 122.011719 151.398438 122.054688 151.347656 122.089844 151.292969 L 122.296875 151.03125 L 122.792969 150.421875 C 123.113281 150.03125 123.433594 149.648438 123.746094 149.257812 C 124.421875 148.453125 125.039062 147.609375 125.601562 146.71875 C 126.699219 144.894531 127.257812 142.707031 126.578125 140.625 C 125.777344 138.175781 123.648438 136.417969 121.398438 135.328125 C 118.722656 134.09375 115.914062 133.40625 112.972656 133.269531 C 109.984375 133.082031 107.058594 133.421875 104.191406 134.285156 C 103.816406 134.398438 103.453125 134.523438 103.09375 134.652344 C 102.476562 130.628906 102.15625 126.582031 102.128906 122.511719 C 102.046875 112.832031 103.621094 103.433594 106.855469 94.3125 C 107.324219 93.039062 108.054688 91.945312 109.054688 91.027344 C 110.054688 90.113281 111.207031 89.480469 112.515625 89.128906 C 116.007812 88.152344 118.632812 88.144531 119.902344 89.128906 C 120.601562 89.65625 120.941406 90.523438 120.941406 91.769531 C 120.941406 95.855469 119.066406 99.773438 117.074219 103.921875 C 115.078125 108.070312 113.011719 112.414062 113.011719 116.96875 C 113.011719 119.445312 113.253906 122.082031 115.035156 122.820312 C 117.484375 123.835938 120.90625 120.972656 130.621094 111.253906 C 136.242188 105.632812 141.679688 104.375 146.046875 103.347656 C 151.035156 102.1875 155.347656 101.199219 156.8125 94.261719 C 158.140625 87.972656 155.855469 81.917969 153.847656 76.574219 C 151.902344 71.414062 150.074219 66.570312 151.722656 62.386719 C 153.539062 57.777344 155.546875 55.855469 157.265625 54.578125 C 157.710938 54.257812 158.128906 53.902344 158.515625 53.515625 C 158.90625 53.128906 159.261719 52.714844 159.582031 52.269531 C 159.90625 51.824219 160.191406 51.359375 160.441406 50.871094 C 160.6875 50.382812 160.898438 49.875 161.066406 49.351562 C 161.234375 48.832031 161.359375 48.300781 161.441406 47.757812 C 161.527344 47.214844 161.566406 46.667969 161.566406 46.121094 C 161.5625 45.570312 161.515625 45.027344 161.425781 44.484375 C 161.335938 43.945312 161.207031 43.414062 161.03125 42.894531 C 168.117188 40.789062 175.355469 39.660156 182.746094 39.5 L 182.769531 39.5 C 183.628906 39.5 184.445312 39.476562 185.285156 39.5 C 185.421875 39.5 185.554688 39.476562 185.683594 39.421875 C 185.8125 39.367188 185.921875 39.292969 186.019531 39.195312 C 186.117188 39.097656 186.191406 38.984375 186.246094 38.859375 C 186.300781 38.730469 186.324219 38.597656 186.324219 38.460938 C 186.324219 38.324219 186.300781 38.191406 186.246094 38.0625 C 186.191406 37.933594 186.117188 37.824219 186.019531 37.726562 C 185.921875 37.628906 185.8125 37.550781 185.683594 37.5 C 185.554688 37.445312 185.421875 37.421875 185.285156 37.421875 L 184.367188 37.421875 C 181.480469 37.421875 178.605469 37.570312 175.734375 37.867188 C 172.863281 38.164062 170.019531 38.605469 167.195312 39.195312 C 164.371094 39.78125 161.582031 40.511719 158.835938 41.386719 C 156.085938 42.261719 153.386719 43.273438 150.742188 44.421875 C 148.097656 45.570312 145.515625 46.855469 143.003906 48.269531 C 140.488281 49.683594 138.050781 51.222656 135.695312 52.886719 C 133.339844 54.550781 131.074219 56.328125 128.898438 58.222656 C 126.722656 60.121094 124.652344 62.121094 122.683594 64.230469 C 122.585938 64.332031 122.511719 64.445312 122.460938 64.574219 C 122.414062 64.707031 122.390625 64.839844 122.394531 64.980469 C 122.398438 65.117188 122.429688 65.25 122.484375 65.378906 C 122.542969 65.503906 122.621094 65.617188 122.722656 65.710938 C 122.824219 65.804688 122.941406 65.878906 123.074219 65.925781 C 123.203125 65.972656 123.335938 65.996094 123.476562 65.988281 C 123.617188 65.984375 123.746094 65.949219 123.875 65.890625 C 124 65.832031 124.109375 65.753906 124.203125 65.648438 C 128.972656 60.539062 134.304688 56.105469 140.199219 52.351562 C 146.09375 48.597656 152.367188 45.640625 159.015625 43.488281 C 159.300781 44.328125 159.449219 45.191406 159.457031 46.082031 C 159.464844 46.96875 159.332031 47.839844 159.0625 48.683594 C 158.792969 49.53125 158.394531 50.3125 157.875 51.03125 C 157.351562 51.75 156.730469 52.371094 156.007812 52.890625 C 154.050781 54.335938 151.78125 56.503906 149.765625 61.605469 C 147.824219 66.53125 149.792969 71.757812 151.878906 77.289062 C 153.882812 82.609375 155.960938 88.113281 154.757812 93.808594 C 153.566406 99.433594 150.550781 100.136719 145.554688 101.296875 C 140.929688 102.378906 135.171875 103.714844 129.132812 109.757812 C 124.449219 114.441406 117.378906 121.507812 115.808594 120.875 C 115.683594 120.820312 115.070312 120.390625 115.070312 116.949219 C 115.070312 112.863281 116.945312 108.945312 118.9375 104.796875 C 120.933594 100.648438 123.003906 96.308594 123.003906 91.75 C 123.003906 89.832031 122.375 88.382812 121.144531 87.449219 C 119.289062 86.042969 116.191406 85.933594 111.9375 87.125 C 111.132812 87.34375 110.367188 87.660156 109.640625 88.066406 C 108.910156 88.46875 108.242188 88.957031 107.628906 89.523438 C 107.019531 90.089844 106.480469 90.71875 106.019531 91.414062 C 105.558594 92.109375 105.1875 92.847656 104.90625 93.632812 C 104.339844 95.21875 103.820312 96.824219 103.347656 98.441406 C 102.878906 100.058594 102.457031 101.691406 102.082031 103.335938 C 101.710938 104.980469 101.386719 106.632812 101.109375 108.296875 C 100.835938 109.960938 100.613281 111.628906 100.4375 113.304688 C 100.265625 114.984375 100.140625 116.664062 100.066406 118.347656 C 99.992188 120.03125 99.96875 121.714844 99.996094 123.402344 C 100.023438 125.085938 100.101562 126.769531 100.230469 128.449219 C 100.359375 130.132812 100.535156 131.808594 100.765625 133.476562 C 100.992188 135.148438 101.269531 136.808594 101.597656 138.464844 C 101.925781 140.117188 102.304688 141.757812 102.730469 143.390625 C 103.15625 145.019531 103.628906 146.636719 104.152344 148.238281 C 104.675781 149.84375 105.246094 151.425781 105.863281 152.996094 C 106.480469 154.5625 107.144531 156.113281 107.855469 157.640625 C 108.566406 159.167969 109.324219 160.675781 110.125 162.160156 C 110.925781 163.640625 111.769531 165.101562 112.65625 166.53125 C 113.542969 167.964844 114.472656 169.371094 115.445312 170.746094 C 116.417969 172.125 117.429688 173.472656 118.484375 174.785156 C 119.535156 176.101562 120.628906 177.386719 121.757812 178.636719 C 122.886719 179.890625 124.054688 181.105469 125.253906 182.285156 C 126.457031 183.46875 127.695312 184.609375 128.964844 185.71875 C 130.234375 186.824219 131.539062 187.894531 132.875 188.921875 C 134.207031 189.949219 135.574219 190.9375 136.96875 191.886719 C 138.359375 192.832031 139.78125 193.738281 141.230469 194.601562 C 142.679688 195.460938 144.152344 196.28125 145.648438 197.054688 C 147.144531 197.828125 148.664062 198.554688 150.207031 199.238281 C 151.746094 199.921875 153.304688 200.558594 154.882812 201.148438 C 156.464844 201.734375 158.058594 202.277344 159.667969 202.773438 C 161.28125 203.265625 162.90625 203.710938 164.542969 204.105469 C 166.179688 204.503906 167.828125 204.851562 169.488281 205.148438 C 171.148438 205.445312 172.8125 205.695312 174.488281 205.890625 C 176.160156 206.089844 177.839844 206.238281 179.519531 206.335938 C 181.203125 206.433594 182.886719 206.480469 184.570312 206.476562 L 184.722656 206.476562 C 186.113281 206.472656 187.507812 206.4375 188.898438 206.363281 C 190.289062 206.292969 191.675781 206.1875 193.0625 206.046875 C 194.445312 205.910156 195.828125 205.734375 197.203125 205.527344 C 198.582031 205.316406 199.953125 205.074219 201.316406 204.800781 C 202.683594 204.523438 204.039062 204.214844 205.390625 203.871094 C 206.738281 203.527344 208.078125 203.152344 209.410156 202.742188 C 210.742188 202.332031 212.0625 201.890625 213.371094 201.417969 C 214.679688 200.941406 215.976562 200.4375 217.261719 199.898438 C 218.542969 199.359375 219.8125 198.789062 221.070312 198.1875 C 222.324219 197.585938 223.566406 196.953125 224.792969 196.292969 C 226.015625 195.628906 227.222656 194.9375 228.414062 194.214844 C 229.605469 193.492188 230.777344 192.738281 231.929688 191.957031 C 233.082031 191.179688 234.21875 190.371094 235.332031 189.535156 C 236.445312 188.695312 237.535156 187.832031 238.605469 186.941406 C 239.675781 186.050781 240.726562 185.136719 241.75 184.195312 C 242.777344 183.25 243.777344 182.285156 244.757812 181.292969 C 245.734375 180.300781 246.6875 179.285156 247.613281 178.246094 C 248.542969 177.207031 249.441406 176.148438 250.316406 175.0625 C 251.191406 173.980469 252.042969 172.875 252.863281 171.75 C 253.683594 170.625 254.472656 169.480469 255.238281 168.316406 C 256.003906 167.152344 256.738281 165.96875 257.441406 164.765625 C 258.148438 163.566406 258.824219 162.347656 259.46875 161.113281 C 260.113281 159.878906 260.730469 158.628906 261.3125 157.367188 C 261.898438 156.101562 262.449219 154.824219 262.96875 153.53125 C 263.488281 152.238281 263.976562 150.933594 264.433594 149.621094 C 264.890625 148.304688 265.3125 146.976562 265.703125 145.640625 C 266.09375 144.300781 266.453125 142.957031 266.777344 141.601562 C 267.101562 140.246094 267.390625 138.886719 267.648438 137.515625 C 267.902344 136.148438 268.125 134.773438 268.316406 133.394531 C 268.503906 132.011719 268.660156 130.628906 268.78125 129.242188 C 268.898438 127.851562 268.984375 126.464844 269.039062 125.070312 C 269.089844 123.679688 269.105469 122.289062 269.089844 120.894531 C 268.769531 94.246094 256.375 69.878906 235.089844 54.046875 Z M 103.445312 136.761719 C 104.546875 136.351562 105.675781 136.027344 106.828125 135.789062 C 107.167969 135.71875 107.511719 135.652344 107.855469 135.597656 L 108.394531 135.515625 L 108.425781 135.515625 L 108.804688 135.46875 C 109.496094 135.394531 110.191406 135.347656 110.894531 135.332031 C 111.59375 135.3125 112.347656 135.332031 113.082031 135.378906 C 113.429688 135.398438 113.773438 135.429688 114.121094 135.46875 L 114.523438 135.515625 L 114.691406 135.542969 L 114.976562 135.585938 C 116.378906 135.800781 117.746094 136.144531 119.085938 136.617188 L 119.515625 136.78125 L 119.726562 136.867188 C 120.007812 136.980469 120.289062 137.117188 120.558594 137.253906 C 121.078125 137.511719 121.578125 137.808594 122.058594 138.140625 C 122.171875 138.21875 122.296875 138.296875 122.402344 138.386719 L 122.582031 138.535156 C 122.820312 138.730469 123.046875 138.9375 123.261719 139.15625 C 123.441406 139.332031 123.609375 139.515625 123.761719 139.710938 C 123.734375 139.679688 123.71875 139.660156 123.761719 139.75 L 123.890625 139.929688 C 123.972656 140.050781 124.054688 140.175781 124.125 140.304688 C 124.203125 140.429688 124.273438 140.558594 124.335938 140.691406 C 124.359375 140.734375 124.382812 140.78125 124.402344 140.824219 C 124.402344 140.835938 124.402344 140.847656 124.402344 140.859375 C 124.53125 141.121094 124.617188 141.398438 124.65625 141.691406 C 124.691406 141.800781 124.714844 141.910156 124.722656 142.023438 L 124.722656 142.085938 C 124.726562 142.140625 124.726562 142.199219 124.722656 142.253906 C 124.742188 142.488281 124.742188 142.71875 124.722656 142.953125 C 124.722656 143.046875 124.640625 143.449219 124.722656 143.089844 C 124.703125 143.191406 124.691406 143.289062 124.671875 143.382812 C 124.644531 143.617188 124.605469 143.84375 124.550781 144.070312 C 124.492188 144.261719 124.417969 144.441406 124.347656 144.625 L 124.285156 144.769531 L 124.121094 145.09375 C 123.902344 145.515625 123.65625 145.921875 123.386719 146.3125 C 123.261719 146.496094 123.132812 146.675781 123 146.859375 C 122.929688 146.953125 122.863281 147.046875 122.789062 147.136719 C 122.746094 147.183594 122.710938 147.242188 122.667969 147.292969 C 122.0625 148.0625 121.425781 148.808594 120.8125 149.574219 C 119.582031 151.113281 118.335938 152.8125 117.988281 154.796875 C 117.769531 155.953125 117.84375 157.085938 118.207031 158.203125 C 118.632812 159.363281 119.246094 160.410156 120.050781 161.347656 C 120.804688 162.230469 121.601562 163.070312 122.441406 163.875 C 122.871094 164.304688 123.273438 164.699219 123.675781 165.125 C 123.859375 165.324219 124.039062 165.519531 124.214844 165.722656 L 124.507812 166.070312 L 124.605469 166.191406 L 124.679688 166.28125 C 125.039062 166.761719 125.363281 167.261719 125.652344 167.785156 C 125.785156 168.027344 125.910156 168.277344 126.03125 168.527344 C 126.089844 168.660156 126.148438 168.789062 126.207031 168.921875 L 126.320312 169.21875 C 126.535156 169.78125 126.707031 170.351562 126.847656 170.9375 C 126.90625 171.207031 126.960938 171.484375 127.015625 171.757812 C 127.015625 171.890625 127.066406 172.035156 127.078125 172.1875 C 127.078125 172.296875 127.101562 172.398438 127.113281 172.507812 C 127.171875 173.089844 127.191406 173.671875 127.183594 174.257812 C 127.183594 174.550781 127.160156 174.839844 127.132812 175.117188 C 127.132812 175.277344 127.105469 175.433594 127.085938 175.59375 C 127.085938 175.59375 127.085938 175.707031 127.085938 175.734375 C 127.085938 175.765625 127.085938 175.824219 127.066406 175.867188 C 126.976562 176.449219 126.847656 177.023438 126.683594 177.589844 C 126.601562 177.867188 126.511719 178.144531 126.414062 178.417969 L 126.242188 178.847656 L 126.125 179.109375 C 126.007812 179.355469 125.886719 179.59375 125.757812 179.828125 C 122.871094 176.902344 120.214844 173.78125 117.796875 170.453125 C 115.378906 167.128906 113.226562 163.640625 111.332031 159.992188 C 109.441406 156.339844 107.835938 152.566406 106.511719 148.675781 C 105.191406 144.78125 104.167969 140.8125 103.445312 136.761719 Z M 242.21875 172.625 Z M 242.808594 177.332031 L 242.839844 177.402344 C 242.824219 177.378906 242.8125 177.351562 242.808594 177.320312 Z M 243.890625 179.195312 L 243.753906 179.007812 C 243.652344 178.871094 243.558594 178.726562 243.46875 178.578125 C 243.285156 178.289062 243.121094 177.992188 242.972656 177.683594 L 242.855469 177.433594 C 242.785156 177.261719 242.722656 177.089844 242.664062 176.917969 C 242.550781 176.59375 242.457031 176.265625 242.378906 175.933594 C 242.34375 175.777344 242.3125 175.625 242.285156 175.46875 C 242.285156 175.378906 242.253906 175.292969 242.242188 175.203125 C 242.226562 175.113281 242.242188 175.132812 242.242188 175.121094 C 242.203125 174.78125 242.179688 174.4375 242.171875 174.09375 C 242.164062 173.75 242.171875 173.410156 242.207031 173.070312 C 242.207031 172.980469 242.207031 172.886719 242.238281 172.796875 L 242.238281 172.757812 C 242.289062 172.578125 242.316406 172.398438 242.328125 172.214844 C 242.394531 171.878906 242.480469 171.546875 242.582031 171.222656 C 242.628906 171.074219 242.679688 170.925781 242.734375 170.792969 C 242.792969 170.660156 242.804688 170.621094 242.835938 170.535156 C 242.863281 170.449219 242.804688 170.597656 242.804688 170.597656 C 242.820312 170.546875 242.839844 170.5 242.867188 170.457031 C 243.007812 170.144531 243.167969 169.84375 243.339844 169.550781 C 243.425781 169.402344 243.523438 169.257812 243.617188 169.121094 L 243.761719 168.914062 L 243.867188 168.769531 C 244.324219 168.191406 244.832031 167.660156 245.386719 167.175781 C 245.667969 166.929688 245.953125 166.695312 246.246094 166.460938 L 246.308594 166.414062 L 246.546875 166.234375 L 247.003906 165.902344 C 248.230469 165.042969 249.511719 164.238281 250.730469 163.355469 C 251.765625 162.585938 252.75 161.753906 253.683594 160.859375 C 255.730469 158.867188 257.65625 156.761719 259.460938 154.542969 C 260.09375 153.789062 260.714844 153.019531 261.332031 152.253906 C 259.339844 157.273438 256.875 162.046875 253.9375 166.582031 C 251.003906 171.113281 247.65625 175.316406 243.890625 179.1875 Z M 243.890625 179.195312 " fill-opacity="1" fill-rule="nonzero"/></g><path fill="rgb(0%, 0%, 0%)" d="M 181.625 103.535156 C 181.921875 104.457031 182.378906 105.296875 182.992188 106.046875 C 183.605469 106.800781 184.332031 107.414062 185.175781 107.894531 C 186.128906 108.398438 187.140625 108.699219 188.214844 108.796875 C 189.285156 108.894531 190.335938 108.777344 191.363281 108.453125 C 193.371094 107.839844 195.160156 106.835938 196.730469 105.441406 C 197.082031 105.816406 197.449219 106.1875 197.828125 106.539062 C 199.417969 108.105469 201.300781 109.132812 203.476562 109.621094 C 205.867188 110.09375 208.292969 109.84375 210.699219 109.679688 C 212.875 109.488281 215.042969 109.582031 217.195312 109.949219 C 221.359375 110.742188 225.234375 112.695312 228.011719 115.929688 C 229.34375 117.457031 230.335938 119.183594 230.980469 121.109375 C 231.625 123.035156 231.878906 125.007812 231.738281 127.035156 C 231.652344 127.960938 231.46875 128.867188 231.191406 129.753906 C 230.933594 130.621094 230.585938 131.449219 230.152344 132.242188 C 229.257812 133.90625 228.125 135.386719 226.746094 136.679688 C 225.355469 138.027344 223.820312 139.171875 222.136719 140.121094 C 220.339844 141.144531 218.453125 141.953125 216.476562 142.546875 C 211.808594 143.996094 206.929688 144.527344 202.089844 145.09375 C 197.558594 145.625 193.011719 146.199219 188.636719 147.542969 C 184.464844 148.832031 180.449219 150.800781 177.28125 153.851562 C 173.976562 157.035156 171.828125 161.214844 168.445312 164.320312 C 166.96875 165.75 165.25 166.777344 163.289062 167.394531 C 162.332031 167.683594 161.359375 167.78125 160.367188 167.683594 C 160.277344 167.679688 160.191406 167.671875 160.109375 167.65625 L 159.753906 167.589844 C 159.503906 167.53125 159.253906 167.460938 159.011719 167.371094 C 158.632812 167.210938 158.289062 166.992188 157.984375 166.710938 C 157.832031 166.574219 157.707031 166.417969 157.601562 166.242188 C 157.496094 166.074219 157.402344 165.898438 157.324219 165.714844 C 157.230469 165.476562 157.160156 165.234375 157.109375 164.988281 C 157.058594 164.789062 157.027344 164.589844 157.011719 164.386719 C 156.96875 163.882812 156.96875 163.378906 157.011719 162.875 C 157.011719 162.769531 157.035156 162.660156 157.046875 162.554688 C 157.046875 162.523438 157.046875 162.40625 157.078125 162.375 C 157.113281 162.15625 157.15625 161.945312 157.207031 161.71875 C 157.304688 161.285156 157.421875 160.855469 157.566406 160.429688 C 157.640625 160.222656 157.71875 160 157.800781 159.816406 C 157.800781 159.792969 157.800781 159.773438 157.800781 159.75 L 157.828125 159.691406 C 157.878906 159.582031 157.925781 159.472656 157.976562 159.363281 C 158.355469 158.558594 158.792969 157.789062 159.292969 157.050781 C 159.539062 156.671875 159.804688 156.304688 160.078125 155.941406 C 160.304688 155.632812 160.507812 155.363281 160.828125 154.980469 C 161.417969 154.253906 162.035156 153.546875 162.65625 152.828125 C 163.90625 151.410156 165.1875 150.011719 166.355469 148.53125 C 167.652344 146.984375 168.710938 145.289062 169.527344 143.441406 C 170.347656 141.597656 170.894531 139.675781 171.175781 137.679688 C 171.824219 133.519531 171.628906 129.308594 171.46875 125.121094 C 171.386719 123.03125 171.3125 120.941406 171.355469 118.851562 C 171.382812 117.824219 171.429688 116.800781 171.527344 115.777344 C 171.613281 114.824219 171.757812 113.878906 171.957031 112.941406 C 172.316406 111.058594 172.933594 109.265625 173.808594 107.5625 C 173.945312 107.3125 173.976562 107.050781 173.90625 106.773438 C 173.835938 106.5 173.675781 106.285156 173.4375 106.136719 C 173.1875 105.992188 172.925781 105.960938 172.648438 106.03125 C 172.371094 106.105469 172.160156 106.265625 172.011719 106.507812 C 169.996094 110.351562 169.375 114.679688 169.289062 118.976562 C 169.203125 123.277344 169.613281 127.574219 169.5625 131.875 C 169.574219 133.949219 169.402344 136.007812 169.050781 138.054688 C 168.691406 140.050781 168.039062 141.953125 167.101562 143.753906 C 165.285156 147.148438 162.558594 149.75 160.035156 152.722656 C 157.511719 155.691406 155.269531 158.976562 154.925781 162.957031 C 154.730469 165.242188 155.40625 167.71875 157.503906 168.925781 C 159.496094 170.074219 162.101562 169.957031 164.230469 169.261719 C 168.792969 167.769531 171.820312 163.929688 174.597656 160.234375 C 175.960938 158.296875 177.492188 156.507812 179.199219 154.867188 C 180.808594 153.4375 182.585938 152.257812 184.527344 151.328125 C 188.398438 149.425781 192.847656 148.425781 197.175781 147.777344 C 202.179688 147.03125 207.242188 146.699219 212.21875 145.722656 C 216.71875 144.835938 221.15625 143.382812 224.964844 140.769531 C 228.402344 138.425781 231.273438 135.285156 232.808594 131.390625 C 234.433594 127.265625 234.066406 122.6875 232.234375 118.703125 C 231.269531 116.667969 229.980469 114.867188 228.371094 113.296875 C 226.757812 111.726562 224.921875 110.484375 222.867188 109.570312 C 220.707031 108.601562 218.453125 107.96875 216.105469 107.679688 C 213.761719 107.378906 211.445312 107.535156 209.101562 107.703125 C 207.871094 107.8125 206.640625 107.835938 205.40625 107.777344 C 204.851562 107.75 204.304688 107.671875 203.761719 107.550781 C 203.5 107.492188 203.242188 107.425781 202.984375 107.34375 L 202.554688 107.191406 L 202.265625 107.078125 C 200.722656 106.335938 199.394531 105.320312 198.273438 104.027344 C 199.589844 102.738281 200.820312 101.363281 202.082031 100.070312 C 203.519531 98.492188 205.179688 97.199219 207.066406 96.199219 C 207.3125 96.050781 207.472656 95.839844 207.542969 95.5625 C 207.617188 95.289062 207.582031 95.023438 207.441406 94.777344 C 207.292969 94.53125 207.078125 94.375 206.800781 94.304688 C 206.527344 94.230469 206.261719 94.261719 206.015625 94.402344 C 202.273438 96.261719 199.820312 99.683594 196.894531 102.527344 C 195.796875 101.191406 194.574219 99.984375 193.226562 98.898438 C 191.664062 97.742188 189.914062 97.046875 187.980469 96.820312 C 187.070312 96.679688 186.171875 96.742188 185.292969 97.007812 C 184.410156 97.269531 183.625 97.710938 182.9375 98.324219 C 182.601562 98.65625 182.3125 99.027344 182.078125 99.4375 C 181.839844 99.847656 181.664062 100.285156 181.550781 100.742188 C 181.433594 101.203125 181.382812 101.671875 181.394531 102.144531 C 181.40625 102.617188 181.484375 103.082031 181.625 103.535156 Z M 184.460938 104.558594 C 184.375 104.453125 184.441406 104.539062 184.460938 104.558594 Z M 183.667969 100.828125 Z M 183.484375 101.527344 C 183.484375 101.585938 183.484375 101.589844 183.484375 101.527344 Z M 183.484375 101.632812 C 183.488281 101.59375 183.488281 101.554688 183.484375 101.519531 C 183.523438 101.335938 183.5625 101.160156 183.617188 100.984375 C 183.617188 100.933594 183.65625 100.882812 183.671875 100.824219 C 183.691406 100.769531 183.765625 100.640625 183.816406 100.546875 L 183.964844 100.296875 L 184.066406 100.160156 C 184.1875 100.003906 184.320312 99.863281 184.464844 99.730469 C 184.511719 99.6875 184.5625 99.640625 184.617188 99.597656 L 184.738281 99.503906 C 184.910156 99.390625 185.085938 99.289062 185.273438 99.199219 C 185.3125 99.199219 185.386719 99.148438 185.410156 99.140625 L 185.59375 99.074219 C 185.792969 99.011719 185.996094 98.957031 186.199219 98.917969 L 186.398438 98.882812 L 186.554688 98.882812 C 186.769531 98.863281 186.988281 98.855469 187.207031 98.859375 C 187.394531 98.859375 187.585938 98.859375 187.773438 98.890625 L 187.945312 98.890625 L 188.269531 98.945312 C 188.691406 99.027344 189.109375 99.140625 189.519531 99.277344 C 189.699219 99.339844 189.871094 99.402344 190.046875 99.476562 L 190.257812 99.566406 L 190.582031 99.714844 C 190.972656 99.914062 191.347656 100.132812 191.714844 100.375 C 191.871094 100.476562 192.019531 100.585938 192.171875 100.695312 L 192.339844 100.828125 L 192.597656 101.054688 C 192.96875 101.390625 193.332031 101.742188 193.679688 102.105469 C 194.246094 102.691406 194.792969 103.300781 195.332031 103.914062 C 194.046875 105.027344 192.59375 105.859375 190.980469 106.402344 C 190.019531 106.703125 189.039062 106.8125 188.035156 106.722656 L 187.917969 106.722656 L 187.632812 106.667969 C 187.40625 106.617188 187.183594 106.550781 186.964844 106.46875 L 186.800781 106.410156 L 186.578125 106.308594 C 186.371094 106.203125 186.164062 106.089844 185.96875 105.964844 C 185.808594 105.863281 185.65625 105.757812 185.503906 105.644531 C 185.472656 105.613281 185.359375 105.519531 185.335938 105.503906 C 185.246094 105.425781 185.160156 105.347656 185.078125 105.265625 C 184.925781 105.132812 184.785156 104.988281 184.648438 104.835938 C 184.574219 104.753906 184.507812 104.667969 184.4375 104.582031 L 184.324219 104.429688 C 184.214844 104.265625 184.109375 104.101562 184.011719 103.933594 C 183.957031 103.835938 183.90625 103.734375 183.855469 103.636719 C 183.855469 103.601562 183.789062 103.492188 183.769531 103.453125 C 183.628906 103.105469 183.527344 102.746094 183.46875 102.378906 C 183.46875 102.34375 183.46875 102.28125 183.46875 102.246094 C 183.46875 102.207031 183.46875 102.0625 183.46875 101.972656 C 183.46875 101.882812 183.472656 101.738281 183.476562 101.632812 Z M 183.484375 101.632812 " fill-opacity="1" fill-rule="nonzero"/><path fill="rgb(0%, 0%, 0%)" d="M 220.777344 187.292969 C 221.046875 187.292969 221.320312 187.292969 221.585938 187.292969 C 221.808594 187.285156 222.027344 187.300781 222.246094 187.335938 L 222.3125 187.335938 L 222.453125 187.359375 C 222.59375 187.390625 222.734375 187.425781 222.882812 187.464844 C 222.996094 187.492188 223.105469 187.53125 223.214844 187.570312 L 223.257812 187.570312 L 223.34375 187.609375 C 223.445312 187.65625 223.542969 187.710938 223.636719 187.769531 L 223.773438 187.859375 C 223.855469 187.929688 223.933594 188.003906 224.007812 188.082031 L 224.09375 188.179688 C 224.152344 188.265625 224.207031 188.34375 224.253906 188.4375 C 224.300781 188.527344 224.304688 188.53125 224.328125 188.578125 C 224.328125 188.585938 224.328125 188.597656 224.328125 188.609375 C 224.410156 188.882812 224.578125 189.089844 224.828125 189.230469 C 225.074219 189.371094 225.339844 189.40625 225.617188 189.335938 C 225.75 189.296875 225.871094 189.234375 225.980469 189.148438 C 226.089844 189.0625 226.175781 188.960938 226.246094 188.839844 C 226.3125 188.71875 226.355469 188.589844 226.371094 188.453125 C 226.390625 188.3125 226.378906 188.179688 226.34375 188.042969 C 226.132812 187.464844 225.808594 186.953125 225.371094 186.515625 C 224.933594 186.082031 224.421875 185.757812 223.839844 185.550781 C 222.769531 185.175781 221.667969 185.054688 220.535156 185.175781 C 219.390625 185.320312 218.257812 185.542969 217.140625 185.847656 C 216.871094 185.90625 216.601562 185.96875 216.324219 186.015625 C 216.191406 186.042969 216.054688 186.066406 215.917969 186.085938 L 215.753906 186.109375 L 215.617188 186.109375 C 215.0625 186.195312 214.507812 186.226562 213.949219 186.203125 L 213.773438 186.203125 C 213.648438 186.183594 213.527344 186.152344 213.40625 186.121094 C 213.285156 186.09375 213.167969 186.054688 213.054688 186.011719 L 212.988281 185.984375 L 212.9375 185.984375 L 212.84375 185.929688 C 212.734375 185.875 212.636719 185.804688 212.535156 185.746094 L 212.421875 185.648438 C 212.332031 185.5625 212.25 185.46875 212.164062 185.382812 L 212.019531 185.15625 C 211.972656 185.074219 211.929688 184.988281 211.886719 184.902344 L 211.886719 184.875 C 211.820312 184.71875 211.769531 184.558594 211.726562 184.394531 C 211.636719 184.070312 211.570312 183.738281 211.511719 183.40625 C 211.421875 182.757812 211.277344 182.121094 211.082031 181.496094 C 210.664062 180.394531 210.046875 179.421875 209.222656 178.582031 C 208.402344 177.738281 207.445312 177.097656 206.351562 176.65625 C 205.238281 176.171875 204.078125 175.878906 202.867188 175.773438 C 201.65625 175.671875 200.460938 175.761719 199.277344 176.046875 C 196.523438 176.71875 194.097656 178.300781 191.972656 180.164062 C 189.933594 181.960938 188.242188 184.066406 186.445312 186.09375 C 185.5625 187.105469 184.617188 188.050781 183.609375 188.9375 L 183.246094 189.238281 L 183.054688 189.394531 L 183.011719 189.425781 C 182.738281 189.632812 182.453125 189.855469 182.152344 190.023438 C 181.585938 190.394531 180.988281 190.714844 180.367188 190.984375 L 180.339844 190.984375 L 180.027344 191.101562 L 179.472656 191.292969 C 179.117188 191.410156 178.757812 191.507812 178.394531 191.601562 C 177.648438 191.785156 176.890625 191.921875 176.136719 192.03125 C 174.664062 192.230469 173.203125 192.507812 171.757812 192.855469 C 169.339844 193.511719 166.863281 194.847656 165.558594 197.070312 C 165.230469 197.625 164.992188 198.214844 164.847656 198.84375 C 164.8125 198.976562 164.800781 199.113281 164.820312 199.25 C 164.835938 199.386719 164.878906 199.515625 164.949219 199.632812 C 165.015625 199.753906 165.105469 199.855469 165.214844 199.941406 C 165.320312 200.027344 165.441406 200.085938 165.574219 200.125 C 165.707031 200.160156 165.84375 200.171875 165.980469 200.152344 C 166.117188 200.136719 166.246094 200.09375 166.367188 200.027344 C 166.484375 199.957031 166.585938 199.871094 166.671875 199.761719 C 166.757812 199.652344 166.820312 199.53125 166.855469 199.398438 C 166.914062 199.152344 166.988281 198.914062 167.074219 198.675781 C 167.074219 198.703125 167.167969 198.457031 167.195312 198.40625 C 167.273438 198.257812 167.355469 198.117188 167.441406 197.976562 C 167.511719 197.859375 167.589844 197.746094 167.667969 197.636719 L 167.804688 197.46875 C 167.996094 197.25 168.195312 197.042969 168.410156 196.847656 C 168.515625 196.753906 168.621094 196.664062 168.730469 196.574219 L 168.816406 196.507812 L 168.921875 196.429688 C 169.167969 196.257812 169.421875 196.09375 169.679688 195.941406 C 169.9375 195.792969 170.1875 195.664062 170.445312 195.539062 L 170.800781 195.378906 L 170.875 195.34375 L 171.15625 195.238281 C 173.804688 194.242188 176.695312 194.222656 179.40625 193.472656 C 180.800781 193.09375 182.105469 192.507812 183.3125 191.710938 C 184.449219 190.941406 185.492188 190.0625 186.449219 189.082031 C 188.304688 187.210938 189.886719 185.105469 191.742188 183.214844 C 192.214844 182.726562 192.699219 182.253906 193.207031 181.796875 C 193.433594 181.589844 193.667969 181.394531 193.898438 181.195312 L 194.273438 180.886719 L 194.460938 180.734375 L 194.507812 180.695312 L 194.554688 180.667969 C 195.605469 179.859375 196.730469 179.183594 197.933594 178.636719 L 198.207031 178.527344 L 198.640625 178.363281 C 198.953125 178.25 199.269531 178.15625 199.59375 178.070312 C 199.914062 177.984375 200.152344 177.933594 200.453125 177.882812 C 200.511719 177.882812 200.925781 177.777344 200.636719 177.851562 C 200.789062 177.820312 200.945312 177.804688 201.101562 177.804688 C 201.625 177.761719 202.148438 177.761719 202.675781 177.804688 L 203.066406 177.84375 L 203.101562 177.84375 L 203.253906 177.863281 C 203.542969 177.914062 203.820312 177.972656 204.113281 178.042969 C 204.40625 178.117188 204.617188 178.183594 204.863281 178.269531 L 205.230469 178.402344 L 205.375 178.457031 L 205.398438 178.457031 L 205.445312 178.480469 C 205.925781 178.695312 206.382812 178.949219 206.820312 179.238281 L 207.0625 179.414062 L 207.273438 179.578125 C 207.480469 179.761719 207.679688 179.949219 207.871094 180.148438 C 207.957031 180.238281 208.039062 180.332031 208.121094 180.425781 L 208.214844 180.539062 C 208.355469 180.738281 208.5 180.941406 208.621094 181.15625 C 208.734375 181.355469 208.832031 181.554688 208.921875 181.761719 C 208.921875 181.824219 209 181.960938 209.019531 182.003906 C 209.066406 182.148438 209.113281 182.296875 209.152344 182.433594 C 209.328125 183.09375 209.394531 183.769531 209.542969 184.433594 C 209.652344 185.097656 209.894531 185.710938 210.269531 186.269531 C 210.644531 186.828125 211.117188 187.285156 211.691406 187.640625 C 213.78125 188.8125 216.417969 188.25 218.617188 187.667969 C 219.125 187.503906 219.644531 187.398438 220.175781 187.339844 C 219.878906 187.359375 220.292969 187.339844 220.359375 187.339844 Z M 183.054688 189.273438 Z M 211.800781 184.742188 C 211.777344 184.703125 211.800781 184.71875 211.800781 184.742188 Z M 212.933594 185.933594 L 213.027344 185.972656 C 213.027344 185.972656 212.972656 185.957031 212.933594 185.933594 Z M 213.824219 186.183594 L 213.910156 186.183594 C 213.882812 186.195312 213.851562 186.203125 213.824219 186.203125 Z M 213.824219 186.183594 " fill-opacity="1" fill-rule="nonzero"/><path fill="rgb(0%, 0%, 0%)" d="M 122.097656 151.308594 L 122.0625 151.351562 C 122.023438 151.378906 121.972656 151.5 122.097656 151.308594 Z M 122.097656 151.308594 " fill-opacity="1" fill-rule="nonzero"/><path fill="rgb(0%, 0%, 0%)" d="M 122.800781 147.140625 C 122.625 147.339844 122.757812 147.199219 122.800781 147.140625 Z M 122.800781 147.140625 " fill-opacity="1" fill-rule="nonzero"/><path fill="rgb(0%, 0%, 0%)" d="M 119.996094 155.484375 C 120.054688 155.25 120.003906 155.40625 119.996094 155.484375 Z M 119.996094 155.484375 " fill-opacity="1" fill-rule="nonzero"/><path fill="rgb(0%, 0%, 0%)" d="M 193.886719 37.5625 L 193.914062 37.492188 Z M 193.886719 37.5625 " fill-opacity="1" fill-rule="nonzero"/><g clip-path="url(#id9)"><path fill="rgb(0%, 0%, 0%)" d="M 199.359375 72.273438 C 202.476562 77.347656 205.78125 82.300781 208.886719 87.382812 C 209.328125 88.105469 209.765625 88.835938 210.207031 89.570312 C 210.304688 89.726562 210.433594 89.851562 210.59375 89.9375 C 210.753906 90.027344 210.921875 90.074219 211.105469 90.074219 C 211.289062 90.074219 211.460938 90.027344 211.621094 89.9375 C 211.78125 89.851562 211.910156 89.726562 212.003906 89.570312 C 215.078125 85.074219 217.863281 80.410156 220.359375 75.570312 C 221.558594 73.324219 222.730469 71.058594 223.921875 68.808594 C 225.160156 66.480469 226.375 64.160156 227.363281 61.71875 C 229.390625 56.804688 230.625 51.695312 231.074219 46.398438 C 231.308594 43.875 231.308594 41.355469 231.074219 38.835938 C 230.894531 36.699219 230.355469 34.664062 229.449219 32.722656 C 228.53125 30.851562 227.210938 29.324219 225.492188 28.140625 C 223.472656 26.796875 221.25 26.007812 218.835938 25.777344 C 216.367188 25.503906 214.035156 25.941406 211.835938 27.097656 C 210.773438 27.699219 209.789062 28.417969 208.890625 29.246094 C 208.050781 29.996094 207.28125 30.8125 206.582031 31.699219 C 203.664062 35.394531 202.003906 40.082031 202.578125 44.816406 C 203.140625 49.347656 205.542969 54.070312 209.761719 56.195312 C 211.742188 57.191406 214.1875 57.699219 216.316406 56.847656 C 218.757812 55.871094 220.050781 53.589844 220.777344 51.179688 C 221.503906 48.765625 221.765625 45.925781 220.902344 43.4375 C 220.511719 42.273438 219.886719 41.25 219.03125 40.367188 C 218.171875 39.484375 217.167969 38.832031 216.015625 38.40625 C 214.914062 38.019531 213.792969 37.945312 212.648438 38.179688 C 212.515625 38.21875 212.394531 38.28125 212.285156 38.367188 C 212.175781 38.449219 212.085938 38.554688 212.019531 38.675781 C 211.949219 38.796875 211.910156 38.925781 211.890625 39.0625 C 211.875 39.203125 211.886719 39.335938 211.921875 39.472656 C 212.003906 39.746094 212.171875 39.953125 212.421875 40.097656 C 212.671875 40.238281 212.933594 40.273438 213.214844 40.203125 C 213.257812 40.203125 213.484375 40.164062 213.472656 40.160156 L 213.777344 40.160156 C 214 40.15625 214.226562 40.164062 214.449219 40.1875 L 214.703125 40.230469 C 214.828125 40.257812 214.949219 40.285156 215.070312 40.316406 L 215.378906 40.417969 L 215.652344 40.519531 C 216.09375 40.714844 216.503906 40.957031 216.886719 41.242188 L 217.089844 41.40625 L 217.339844 41.628906 C 217.539062 41.816406 217.726562 42.015625 217.902344 42.226562 L 218.007812 42.363281 L 218.035156 42.394531 C 218.101562 42.488281 218.164062 42.578125 218.222656 42.675781 C 218.375 42.898438 218.511719 43.136719 218.632812 43.378906 C 218.734375 43.570312 218.820312 43.765625 218.886719 43.972656 C 218.988281 44.269531 219.078125 44.570312 219.152344 44.875 C 219.285156 45.398438 219.359375 45.929688 219.367188 46.46875 C 219.386719 47.070312 219.363281 47.671875 219.292969 48.265625 C 219.292969 48.324219 219.292969 48.378906 219.292969 48.433594 C 219.292969 48.449219 219.292969 48.464844 219.292969 48.480469 C 219.269531 48.632812 219.246094 48.777344 219.21875 48.914062 C 219.164062 49.207031 219.101562 49.5 219.027344 49.796875 C 218.890625 50.367188 218.71875 50.921875 218.515625 51.46875 C 218.46875 51.601562 218.417969 51.738281 218.367188 51.867188 L 218.367188 51.890625 L 218.246094 52.066406 C 218.117188 52.339844 217.972656 52.601562 217.816406 52.859375 C 217.582031 53.304688 217.277344 53.703125 216.910156 54.046875 C 216.808594 54.140625 216.710938 54.230469 216.605469 54.320312 L 216.578125 54.320312 L 216.457031 54.40625 C 216.242188 54.554688 216.019531 54.6875 215.78125 54.796875 L 215.6875 54.84375 L 215.660156 54.84375 L 215.320312 54.960938 C 215.078125 55.03125 214.835938 55.085938 214.589844 55.125 L 214.445312 55.125 C 214.324219 55.125 214.207031 55.125 214.082031 55.125 C 213.820312 55.132812 213.5625 55.121094 213.304688 55.097656 L 213.09375 55.074219 L 212.796875 55.015625 C 212.546875 54.96875 212.300781 54.90625 212.0625 54.835938 C 211.820312 54.769531 211.574219 54.671875 211.335938 54.582031 L 211.285156 54.648438 L 211.164062 54.589844 C 211.042969 54.539062 210.925781 54.484375 210.808594 54.421875 C 210.347656 54.191406 209.90625 53.925781 209.480469 53.625 L 209.265625 53.460938 L 209.015625 53.253906 C 208.816406 53.085938 208.628906 52.910156 208.445312 52.730469 C 208.070312 52.355469 207.71875 51.960938 207.390625 51.542969 L 207.363281 51.507812 L 207.242188 51.34375 L 207.011719 51.023438 C 206.859375 50.804688 206.71875 50.59375 206.582031 50.347656 C 206.300781 49.894531 206.050781 49.421875 205.828125 48.9375 L 205.6875 48.621094 L 205.597656 48.40625 C 205.492188 48.144531 205.398438 47.875 205.308594 47.605469 C 205.136719 47.097656 204.996094 46.582031 204.878906 46.058594 C 204.828125 45.8125 204.78125 45.5625 204.738281 45.316406 C 204.710938 45.183594 204.695312 45.050781 204.671875 44.917969 C 204.671875 44.832031 204.671875 44.742188 204.636719 44.65625 C 204.582031 44.121094 204.550781 43.585938 204.546875 43.046875 C 204.542969 42.511719 204.570312 41.976562 204.621094 41.441406 L 204.660156 41.09375 L 204.660156 41.0625 L 204.6875 40.871094 C 204.730469 40.601562 204.777344 40.335938 204.832031 40.074219 C 204.945312 39.539062 205.082031 39.015625 205.242188 38.5 C 205.316406 38.257812 205.398438 38.019531 205.484375 37.78125 C 205.53125 37.652344 205.578125 37.527344 205.632812 37.398438 C 205.652344 37.339844 205.679688 37.273438 205.703125 37.214844 L 205.703125 37.132812 C 206.132812 36.132812 206.648438 35.179688 207.25 34.277344 C 207.390625 34.066406 207.535156 33.847656 207.679688 33.648438 C 207.757812 33.539062 207.839844 33.429688 207.921875 33.324219 L 207.96875 33.257812 L 208.105469 33.089844 C 208.445312 32.660156 208.804688 32.257812 209.179688 31.863281 C 209.558594 31.464844 209.925781 31.113281 210.316406 30.761719 C 210.519531 30.582031 210.746094 30.402344 210.933594 30.226562 L 211.253906 29.972656 L 211.308594 29.929688 L 211.445312 29.828125 C 211.890625 29.492188 212.359375 29.191406 212.847656 28.925781 C 213.078125 28.800781 213.316406 28.683594 213.558594 28.578125 C 213.601562 28.578125 213.742188 28.503906 213.765625 28.492188 L 214.195312 28.335938 C 214.714844 28.164062 215.246094 28.035156 215.78125 27.941406 L 216.058594 27.902344 C 216.179688 27.882812 216.300781 27.871094 216.417969 27.863281 C 216.691406 27.835938 216.964844 27.824219 217.238281 27.820312 C 219.402344 27.78125 221.433594 28.265625 223.34375 29.28125 C 223.773438 29.515625 224.191406 29.773438 224.589844 30.054688 L 224.832031 30.234375 L 224.964844 30.347656 C 225.160156 30.507812 225.34375 30.671875 225.519531 30.839844 C 225.835938 31.140625 226.136719 31.464844 226.410156 31.808594 C 226.445312 31.851562 226.480469 31.890625 226.511719 31.933594 C 226.566406 32.015625 226.632812 32.09375 226.6875 32.171875 C 226.824219 32.367188 226.957031 32.570312 227.082031 32.773438 C 227.324219 33.160156 227.539062 33.558594 227.730469 33.972656 C 227.777344 34.074219 227.820312 34.183594 227.875 34.285156 C 227.890625 34.320312 227.902344 34.355469 227.917969 34.390625 C 228.011719 34.617188 228.097656 34.847656 228.175781 35.082031 C 228.480469 35.992188 228.710938 36.921875 228.863281 37.871094 C 228.863281 37.980469 228.890625 38.085938 228.910156 38.195312 C 228.910156 38.234375 228.910156 38.273438 228.910156 38.308594 C 228.910156 38.332031 228.910156 38.355469 228.910156 38.378906 C 228.9375 38.628906 228.96875 38.878906 228.992188 39.132812 C 229.042969 39.6875 229.074219 40.25 229.09375 40.808594 C 229.140625 42.054688 229.140625 43.300781 229.09375 44.542969 C 228.996094 46.984375 228.703125 49.402344 228.207031 51.792969 C 227.707031 54.242188 227.035156 56.644531 226.183594 58.992188 C 225.359375 61.285156 224.375 63.5 223.230469 65.648438 C 222.117188 67.753906 220.992188 69.863281 219.882812 71.972656 C 217.515625 76.496094 215.101562 81 212.34375 85.300781 C 211.949219 85.921875 211.542969 86.539062 211.128906 87.148438 C 208.253906 82.421875 205.230469 77.789062 202.289062 73.109375 C 200.957031 70.984375 199.648438 68.84375 198.417969 66.660156 C 197.847656 65.628906 197.292969 64.578125 196.769531 63.515625 C 196.515625 63.007812 196.273438 62.492188 196.035156 61.96875 L 195.726562 61.273438 L 195.558594 60.886719 L 195.523438 60.808594 C 195.523438 60.78125 195.441406 60.609375 195.433594 60.589844 C 194.578125 58.519531 193.894531 56.394531 193.382812 54.21875 C 193.117188 53.101562 192.898438 51.964844 192.730469 50.824219 L 192.675781 50.464844 C 192.675781 50.464844 192.648438 50.230469 192.640625 50.179688 C 192.601562 49.867188 192.566406 49.554688 192.53125 49.238281 C 192.472656 48.632812 192.417969 48.023438 192.386719 47.40625 C 192.296875 46.160156 192.296875 44.910156 192.386719 43.664062 C 192.386719 43.371094 192.4375 43.082031 192.472656 42.804688 C 192.472656 42.746094 192.511719 42.539062 192.472656 42.761719 L 192.496094 42.574219 C 192.523438 42.394531 192.554688 42.214844 192.585938 42.027344 C 192.695312 41.421875 192.828125 40.824219 192.992188 40.230469 C 193.15625 39.640625 193.339844 39.050781 193.550781 38.472656 C 193.652344 38.179688 193.769531 37.898438 193.886719 37.613281 C 193.898438 37.589844 193.90625 37.570312 193.914062 37.546875 C 193.9375 37.503906 193.953125 37.453125 193.976562 37.410156 C 194.042969 37.253906 194.113281 37.101562 194.1875 36.949219 C 194.710938 35.824219 195.324219 34.753906 196.019531 33.730469 C 196.199219 33.476562 196.375 33.222656 196.558594 32.976562 L 196.671875 32.828125 L 196.765625 32.703125 C 196.800781 32.660156 196.851562 32.59375 196.851562 32.597656 L 197.023438 32.382812 C 197.414062 31.898438 197.824219 31.4375 198.246094 30.988281 C 198.675781 30.558594 199.105469 30.128906 199.578125 29.699219 C 199.808594 29.492188 200.042969 29.292969 200.28125 29.097656 L 200.605469 28.835938 L 200.730469 28.734375 L 200.871094 28.628906 C 201.855469 27.886719 202.898438 27.234375 204 26.667969 C 204.269531 26.53125 204.546875 26.394531 204.828125 26.265625 L 205.257812 26.078125 L 205.308594 26.078125 L 205.519531 25.992188 C 206.089844 25.761719 206.675781 25.5625 207.265625 25.382812 C 207.851562 25.203125 208.460938 25.058594 209.066406 24.953125 C 209.199219 24.914062 209.320312 24.851562 209.429688 24.765625 C 209.539062 24.683594 209.625 24.578125 209.695312 24.457031 C 209.761719 24.335938 209.804688 24.207031 209.820312 24.070312 C 209.839844 23.933594 209.828125 23.796875 209.792969 23.664062 C 209.710938 23.386719 209.542969 23.179688 209.292969 23.039062 C 209.042969 22.898438 208.78125 22.863281 208.503906 22.9375 C 205.960938 23.480469 203.585938 24.429688 201.375 25.789062 C 199.160156 27.152344 197.238281 28.84375 195.609375 30.863281 C 192.308594 34.890625 190.25 39.953125 190.226562 45.199219 C 190.226562 50.085938 191.074219 54.828125 192.761719 59.414062 C 194.441406 63.902344 196.824219 68.160156 199.359375 72.273438 Z M 217.984375 42.324219 Z M 217.984375 42.324219 " fill-opacity="1" fill-rule="nonzero"/></g><g fill="rgb(0%, 0%, 0%)" fill-opacity="1"><g transform="translate(87.758189, 246.454685)"><g><path d="M 16.308594 0 L 16.308594 -27.355469 L 24.824219 -27.355469 L 24.824219 -34.148438 L 0.957031 -34.148438 L 0.957031 -27.355469 L 9.46875 -27.355469 L 9.46875 0 Z M 16.308594 0 "/></g></g></g><g fill="rgb(0%, 0%, 0%)" fill-opacity="1"><g transform="translate(113.917996, 246.454685)"><g><path d="M 20.851562 0 L 28.601562 0 L 20.660156 -14.109375 C 30.707031 -17.027344 29.507812 -34.195312 17.3125 -34.195312 L 3.828125 -34.195312 L 3.828125 0 L 10.664062 0 L 10.664062 -13.058594 L 13.964844 -13.058594 Z M 10.664062 -19.703125 L 10.664062 -27.355469 L 16.691406 -27.355469 C 21.332031 -27.355469 21.332031 -19.703125 16.691406 -19.703125 Z M 10.664062 -19.703125 "/></g></g></g><g fill="rgb(0%, 0%, 0%)" fill-opacity="1"><g transform="translate(143.234198, 246.454685)"><g><path d="M 0.765625 0 L 8.511719 0 L 9.851562 -3.683594 L 21.1875 -3.683594 L 22.574219 0 L 30.273438 0 L 15.878906 -35.441406 L 15.160156 -35.441406 Z M 12.339844 -10.089844 L 15.542969 -18.988281 L 18.652344 -10.089844 Z M 12.339844 -10.089844 "/></g></g></g><g fill="rgb(0%, 0%, 0%)" fill-opacity="1"><g transform="translate(174.46336, 246.454685)"><g><path d="M 14.445312 0.71875 L 15.972656 0.71875 L 30.132812 -34.195312 L 22.238281 -34.195312 L 17.648438 -22.574219 L 15.210938 -15.734375 L 12.722656 -22.8125 L 8.179688 -34.195312 L 0.285156 -34.195312 Z M 14.445312 0.71875 "/></g></g></g><g fill="rgb(0%, 0%, 0%)" fill-opacity="1"><g transform="translate(204.927336, 246.454685)"><g><path d="M 3.828125 0 L 10.664062 0 L 10.664062 -13.390625 L 19.753906 0 L 28.21875 0 L 16.164062 -17.3125 L 27.261719 -34.195312 L 19.273438 -34.195312 L 10.664062 -20.566406 L 10.664062 -34.195312 L 3.828125 -34.195312 Z M 3.828125 0 "/></g></g></g><g fill="rgb(0%, 0%, 0%)" fill-opacity="1"><g transform="translate(233.813114, 246.454685)"><g><path d="M 21.523438 0 L 21.523438 -6.839844 L 10.664062 -6.839844 L 10.664062 -13.679688 L 19.65625 -13.679688 L 19.65625 -20.519531 L 10.664062 -20.519531 L 10.664062 -27.355469 L 20.949219 -27.355469 L 20.949219 -34.195312 L 3.828125 -34.195312 L 3.828125 0 Z M 21.523438 0 "/></g></g></g><g fill="rgb(0%, 0%, 0%)" fill-opacity="1"><g transform="translate(257.916487, 246.454685)"><g><path d="M 20.851562 0 L 28.601562 0 L 20.660156 -14.109375 C 30.707031 -17.027344 29.507812 -34.195312 17.3125 -34.195312 L 3.828125 -34.195312 L 3.828125 0 L 10.664062 0 L 10.664062 -13.058594 L 13.964844 -13.058594 Z M 10.664062 -19.703125 L 10.664062 -27.355469 L 16.691406 -27.355469 C 21.332031 -27.355469 21.332031 -19.703125 16.691406 -19.703125 Z M 10.664062 -19.703125 "/></g></g></g><g fill="rgb(0%, 0%, 0%)" fill-opacity="1"><g transform="translate(56.954802, 287.115742)"><g><path d="M 7.65625 0.25 C 7.332031 0.25 7.082031 0.144531 6.90625 -0.0625 C 6.726562 -0.28125 6.640625 -0.515625 6.640625 -0.765625 L 6.640625 -6.890625 L 0.640625 -16.21875 C 0.378906 -16.59375 0.25 -16.890625 0.25 -17.109375 C 0.25 -17.367188 0.335938 -17.601562 0.515625 -17.8125 C 0.703125 -18.03125 0.957031 -18.140625 1.28125 -18.140625 C 1.46875 -18.140625 1.628906 -18.097656 1.765625 -18.015625 C 1.898438 -17.941406 2.035156 -17.8125 2.171875 -17.625 L 7.609375 -9.0625 L 7.71875 -9.0625 L 13.15625 -17.625 C 13.289062 -17.8125 13.425781 -17.941406 13.5625 -18.015625 C 13.695312 -18.097656 13.859375 -18.140625 14.046875 -18.140625 C 14.367188 -18.140625 14.617188 -18.03125 14.796875 -17.8125 C 14.984375 -17.601562 15.078125 -17.367188 15.078125 -17.109375 C 15.078125 -16.890625 14.945312 -16.59375 14.6875 -16.21875 L 8.6875 -6.890625 L 8.6875 -0.765625 C 8.6875 -0.515625 8.597656 -0.28125 8.421875 -0.0625 C 8.242188 0.144531 7.988281 0.25 7.65625 0.25 Z M 7.65625 0.25 "/></g></g></g><g fill="rgb(0%, 0%, 0%)" fill-opacity="1"><g transform="translate(74.531929, 287.115742)"><g><path d="M 7.03125 0.390625 C 6.226562 0.390625 5.488281 0.257812 4.8125 0 C 4.144531 -0.269531 3.566406 -0.632812 3.078125 -1.09375 C 2.585938 -1.550781 2.207031 -2.082031 1.9375 -2.6875 C 1.664062 -3.300781 1.53125 -3.9375 1.53125 -4.59375 L 1.53125 -7.796875 C 1.53125 -8.453125 1.664062 -9.082031 1.9375 -9.6875 C 2.207031 -10.300781 2.585938 -10.835938 3.078125 -11.296875 C 3.566406 -11.753906 4.144531 -12.113281 4.8125 -12.375 C 5.488281 -12.632812 6.226562 -12.765625 7.03125 -12.765625 C 7.820312 -12.765625 8.554688 -12.632812 9.234375 -12.375 C 9.910156 -12.113281 10.488281 -11.753906 10.96875 -11.296875 C 11.457031 -10.835938 11.835938 -10.300781 12.109375 -9.6875 C 12.378906 -9.082031 12.515625 -8.453125 12.515625 -7.796875 L 12.515625 -4.59375 C 12.515625 -3.9375 12.378906 -3.300781 12.109375 -2.6875 C 11.835938 -2.082031 11.457031 -1.550781 10.96875 -1.09375 C 10.488281 -0.632812 9.910156 -0.269531 9.234375 0 C 8.554688 0.257812 7.820312 0.390625 7.03125 0.390625 Z M 7.03125 -1.40625 C 7.539062 -1.40625 8.003906 -1.484375 8.421875 -1.640625 C 8.847656 -1.804688 9.210938 -2.035156 9.515625 -2.328125 C 9.816406 -2.617188 10.050781 -2.957031 10.21875 -3.34375 C 10.382812 -3.738281 10.46875 -4.15625 10.46875 -4.59375 L 10.46875 -7.796875 C 10.46875 -8.234375 10.382812 -8.644531 10.21875 -9.03125 C 10.050781 -9.425781 9.816406 -9.769531 9.515625 -10.0625 C 9.210938 -10.351562 8.847656 -10.578125 8.421875 -10.734375 C 8.003906 -10.898438 7.539062 -10.984375 7.03125 -10.984375 C 6.519531 -10.984375 6.050781 -10.898438 5.625 -10.734375 C 5.195312 -10.578125 4.832031 -10.351562 4.53125 -10.0625 C 4.238281 -9.769531 4.003906 -9.425781 3.828125 -9.03125 C 3.660156 -8.644531 3.578125 -8.234375 3.578125 -7.796875 L 3.578125 -4.59375 C 3.578125 -4.15625 3.660156 -3.738281 3.828125 -3.34375 C 4.003906 -2.957031 4.238281 -2.617188 4.53125 -2.328125 C 4.832031 -2.035156 5.195312 -1.804688 5.625 -1.640625 C 6.050781 -1.484375 6.519531 -1.40625 7.03125 -1.40625 Z M 7.03125 -1.40625 "/></g></g></g><g fill="rgb(0%, 0%, 0%)" fill-opacity="1"><g transform="translate(90.831713, 287.115742)"><g><path d="M 6.765625 0.390625 C 6.117188 0.390625 5.507812 0.257812 4.9375 0 C 4.375 -0.257812 3.878906 -0.597656 3.453125 -1.015625 C 3.023438 -1.441406 2.679688 -1.941406 2.421875 -2.515625 C 2.171875 -3.085938 2.046875 -3.695312 2.046875 -4.34375 L 2.046875 -11.5 C 2.046875 -11.75 2.132812 -11.976562 2.3125 -12.1875 C 2.488281 -12.40625 2.738281 -12.515625 3.0625 -12.515625 C 3.382812 -12.515625 3.632812 -12.40625 3.8125 -12.1875 C 4 -11.976562 4.09375 -11.75 4.09375 -11.5 L 4.09375 -4.34375 C 4.09375 -3.507812 4.378906 -2.8125 4.953125 -2.25 C 5.535156 -1.6875 6.3125 -1.40625 7.28125 -1.40625 C 8.25 -1.40625 9.019531 -1.6875 9.59375 -2.25 C 10.175781 -2.8125 10.46875 -3.507812 10.46875 -4.34375 L 10.46875 -11.5 C 10.46875 -11.75 10.554688 -11.976562 10.734375 -12.1875 C 10.921875 -12.40625 11.175781 -12.515625 11.5 -12.515625 C 11.820312 -12.515625 12.070312 -12.40625 12.25 -12.1875 C 12.425781 -11.976562 12.515625 -11.75 12.515625 -11.5 L 12.515625 -0.890625 C 12.515625 -0.640625 12.425781 -0.40625 12.25 -0.1875 C 12.070312 0.0195312 11.820312 0.125 11.5 0.125 C 11.175781 0.125 10.921875 0.0195312 10.734375 -0.1875 C 10.554688 -0.40625 10.46875 -0.640625 10.46875 -0.890625 L 10.46875 -1.15625 L 10.34375 -1.15625 C 10.101562 -0.863281 9.816406 -0.609375 9.484375 -0.390625 C 9.191406 -0.203125 8.8125 -0.0234375 8.34375 0.140625 C 7.882812 0.304688 7.359375 0.390625 6.765625 0.390625 Z M 6.765625 0.390625 "/></g></g></g><g fill="rgb(0%, 0%, 0%)" fill-opacity="1"><g transform="translate(107.642428, 287.115742)"><g><path d="M 3.0625 0.125 C 2.738281 0.125 2.488281 0.0195312 2.3125 -0.1875 C 2.132812 -0.40625 2.046875 -0.640625 2.046875 -0.890625 L 2.046875 -11.5 C 2.046875 -11.75 2.132812 -11.976562 2.3125 -12.1875 C 2.488281 -12.40625 2.738281 -12.515625 3.0625 -12.515625 C 3.382812 -12.515625 3.632812 -12.40625 3.8125 -12.1875 C 4 -11.976562 4.09375 -11.75 4.09375 -11.5 L 4.09375 -11.234375 L 4.21875 -11.234375 C 4.382812 -11.523438 4.613281 -11.78125 4.90625 -12 C 5.144531 -12.1875 5.453125 -12.359375 5.828125 -12.515625 C 6.203125 -12.679688 6.644531 -12.765625 7.15625 -12.765625 L 8.296875 -12.765625 C 8.554688 -12.765625 8.769531 -12.679688 8.9375 -12.515625 C 9.113281 -12.347656 9.203125 -12.132812 9.203125 -11.875 C 9.203125 -11.625 9.113281 -11.410156 8.9375 -11.234375 C 8.769531 -11.066406 8.554688 -10.984375 8.296875 -10.984375 L 6.890625 -10.984375 C 6.503906 -10.984375 6.140625 -10.90625 5.796875 -10.75 C 5.453125 -10.601562 5.148438 -10.390625 4.890625 -10.109375 C 4.640625 -9.835938 4.441406 -9.515625 4.296875 -9.140625 C 4.160156 -8.765625 4.09375 -8.359375 4.09375 -7.921875 L 4.09375 -0.890625 C 4.09375 -0.640625 4 -0.40625 3.8125 -0.1875 C 3.632812 0.0195312 3.382812 0.125 3.0625 0.125 Z M 3.0625 0.125 "/></g></g></g><g fill="rgb(0%, 0%, 0%)" fill-opacity="1"><g transform="translate(119.088327, 287.115742)"><g/></g></g><g fill="rgb(0%, 0%, 0%)" fill-opacity="1"><g transform="translate(127.468606, 287.115742)"><g><path d="M 7.15625 0.25 C 6.832031 0.25 6.578125 0.144531 6.390625 -0.0625 C 6.210938 -0.28125 6.125 -0.515625 6.125 -0.765625 L 6.125 -16.09375 L 1.28125 -16.09375 C 0.957031 -16.09375 0.703125 -16.175781 0.515625 -16.34375 C 0.335938 -16.519531 0.25 -16.734375 0.25 -16.984375 C 0.25 -17.242188 0.335938 -17.457031 0.515625 -17.625 C 0.703125 -17.789062 0.957031 -17.875 1.28125 -17.875 L 13.03125 -17.875 C 13.351562 -17.875 13.601562 -17.789062 13.78125 -17.625 C 13.957031 -17.457031 14.046875 -17.242188 14.046875 -16.984375 C 14.046875 -16.734375 13.957031 -16.519531 13.78125 -16.34375 C 13.601562 -16.175781 13.351562 -16.09375 13.03125 -16.09375 L 8.171875 -16.09375 L 8.171875 -0.765625 C 8.171875 -0.515625 8.082031 -0.28125 7.90625 -0.0625 C 7.726562 0.144531 7.476562 0.25 7.15625 0.25 Z M 7.15625 0.25 "/></g></g></g><g fill="rgb(0%, 0%, 0%)" fill-opacity="1"><g transform="translate(144.023857, 287.115742)"><g><path d="M 3.0625 0.125 C 2.738281 0.125 2.488281 0.0195312 2.3125 -0.1875 C 2.132812 -0.40625 2.046875 -0.640625 2.046875 -0.890625 L 2.046875 -11.5 C 2.046875 -11.75 2.132812 -11.976562 2.3125 -12.1875 C 2.488281 -12.40625 2.738281 -12.515625 3.0625 -12.515625 C 3.382812 -12.515625 3.632812 -12.40625 3.8125 -12.1875 C 4 -11.976562 4.09375 -11.75 4.09375 -11.5 L 4.09375 -11.234375 L 4.21875 -11.234375 C 4.382812 -11.523438 4.613281 -11.78125 4.90625 -12 C 5.144531 -12.1875 5.453125 -12.359375 5.828125 -12.515625 C 6.203125 -12.679688 6.644531 -12.765625 7.15625 -12.765625 L 8.296875 -12.765625 C 8.554688 -12.765625 8.769531 -12.679688 8.9375 -12.515625 C 9.113281 -12.347656 9.203125 -12.132812 9.203125 -11.875 C 9.203125 -11.625 9.113281 -11.410156 8.9375 -11.234375 C 8.769531 -11.066406 8.554688 -10.984375 8.296875 -10.984375 L 6.890625 -10.984375 C 6.503906 -10.984375 6.140625 -10.90625 5.796875 -10.75 C 5.453125 -10.601562 5.148438 -10.390625 4.890625 -10.109375 C 4.640625 -9.835938 4.441406 -9.515625 4.296875 -9.140625 C 4.160156 -8.765625 4.09375 -8.359375 4.09375 -7.921875 L 4.09375 -0.890625 C 4.09375 -0.640625 4 -0.40625 3.8125 -0.1875 C 3.632812 0.0195312 3.382812 0.125 3.0625 0.125 Z M 3.0625 0.125 "/></g></g></g><g fill="rgb(0%, 0%, 0%)" fill-opacity="1"><g transform="translate(155.46975, 287.115742)"><g><path d="M 5.359375 0.390625 C 4.710938 0.390625 4.132812 0.289062 3.625 0.09375 C 3.113281 -0.101562 2.671875 -0.367188 2.296875 -0.703125 C 1.921875 -1.046875 1.632812 -1.453125 1.4375 -1.921875 C 1.25 -2.390625 1.15625 -2.898438 1.15625 -3.453125 C 1.15625 -3.960938 1.257812 -4.445312 1.46875 -4.90625 C 1.675781 -5.363281 1.984375 -5.769531 2.390625 -6.125 C 2.804688 -6.488281 3.304688 -6.769531 3.890625 -6.96875 C 4.484375 -7.175781 5.144531 -7.28125 5.875 -7.28125 L 9.578125 -7.28125 L 9.578125 -8.046875 C 9.578125 -8.878906 9.285156 -9.578125 8.703125 -10.140625 C 8.128906 -10.703125 7.359375 -10.984375 6.390625 -10.984375 C 5.617188 -10.984375 5.023438 -10.832031 4.609375 -10.53125 C 4.191406 -10.238281 3.890625 -9.960938 3.703125 -9.703125 C 3.515625 -9.453125 3.335938 -9.257812 3.171875 -9.125 C 3.015625 -9 2.804688 -8.9375 2.546875 -8.9375 C 2.296875 -8.9375 2.082031 -9.019531 1.90625 -9.1875 C 1.738281 -9.363281 1.65625 -9.578125 1.65625 -9.828125 C 1.65625 -10.015625 1.695312 -10.195312 1.78125 -10.375 C 1.820312 -10.457031 1.867188 -10.535156 1.921875 -10.609375 C 2.015625 -10.753906 2.179688 -10.953125 2.421875 -11.203125 C 2.660156 -11.453125 2.96875 -11.691406 3.34375 -11.921875 C 3.71875 -12.148438 4.15625 -12.347656 4.65625 -12.515625 C 5.164062 -12.679688 5.742188 -12.765625 6.390625 -12.765625 C 7.148438 -12.765625 7.847656 -12.632812 8.484375 -12.375 C 9.128906 -12.125 9.6875 -11.785156 10.15625 -11.359375 C 10.625 -10.941406 10.984375 -10.441406 11.234375 -9.859375 C 11.492188 -9.285156 11.625 -8.679688 11.625 -8.046875 L 11.625 -0.890625 C 11.625 -0.640625 11.535156 -0.40625 11.359375 -0.1875 C 11.179688 0.0195312 10.929688 0.125 10.609375 0.125 C 10.273438 0.125 10.019531 0.0195312 9.84375 -0.1875 C 9.664062 -0.40625 9.578125 -0.640625 9.578125 -0.890625 L 9.578125 -1.015625 L 9.453125 -1.015625 C 9.128906 -0.742188 8.765625 -0.507812 8.359375 -0.3125 C 7.992188 -0.125 7.5625 0.0351562 7.0625 0.171875 C 6.570312 0.316406 6.003906 0.390625 5.359375 0.390625 Z M 5.625 -1.40625 C 6.332031 -1.40625 6.929688 -1.488281 7.421875 -1.65625 C 7.921875 -1.832031 8.332031 -2.019531 8.65625 -2.21875 C 9.03125 -2.457031 9.335938 -2.738281 9.578125 -3.0625 L 9.578125 -5.5 L 5.875 -5.5 C 4.96875 -5.5 4.289062 -5.300781 3.84375 -4.90625 C 3.40625 -4.507812 3.1875 -4.023438 3.1875 -3.453125 C 3.1875 -2.867188 3.398438 -2.378906 3.828125 -1.984375 C 4.253906 -1.597656 4.851562 -1.40625 5.625 -1.40625 Z M 5.625 -1.40625 "/></g></g></g><g fill="rgb(0%, 0%, 0%)" fill-opacity="1"><g transform="translate(171.130863, 287.115742)"><g><path d="M 6.125 0.390625 C 5.738281 0.390625 5.421875 0.273438 5.171875 0.046875 C 4.921875 -0.171875 4.726562 -0.441406 4.59375 -0.765625 L 0.640625 -10.609375 C 0.585938 -10.742188 0.53125 -10.890625 0.46875 -11.046875 C 0.414062 -11.210938 0.390625 -11.363281 0.390625 -11.5 C 0.390625 -11.75 0.476562 -11.976562 0.65625 -12.1875 C 0.832031 -12.40625 1.082031 -12.515625 1.40625 -12.515625 C 1.65625 -12.515625 1.863281 -12.429688 2.03125 -12.265625 C 2.207031 -12.109375 2.335938 -11.9375 2.421875 -11.75 L 6.078125 -2.546875 L 6.1875 -2.546875 L 9.828125 -11.75 C 9.921875 -11.9375 10.050781 -12.109375 10.21875 -12.265625 C 10.382812 -12.429688 10.597656 -12.515625 10.859375 -12.515625 C 11.179688 -12.515625 11.429688 -12.40625 11.609375 -12.1875 C 11.785156 -11.976562 11.875 -11.75 11.875 -11.5 C 11.875 -11.363281 11.84375 -11.210938 11.78125 -11.046875 C 11.726562 -10.890625 11.675781 -10.742188 11.625 -10.609375 L 7.65625 -0.765625 C 7.519531 -0.441406 7.328125 -0.171875 7.078125 0.046875 C 6.835938 0.273438 6.519531 0.390625 6.125 0.390625 Z M 6.125 0.390625 "/></g></g></g><g fill="rgb(0%, 0%, 0%)" fill-opacity="1"><g transform="translate(185.642371, 287.115742)"><g><path d="M 7.03125 0.390625 C 6.226562 0.390625 5.488281 0.257812 4.8125 0 C 4.144531 -0.269531 3.566406 -0.632812 3.078125 -1.09375 C 2.585938 -1.550781 2.207031 -2.082031 1.9375 -2.6875 C 1.664062 -3.300781 1.53125 -3.9375 1.53125 -4.59375 L 1.53125 -7.796875 C 1.53125 -8.453125 1.664062 -9.082031 1.9375 -9.6875 C 2.207031 -10.300781 2.585938 -10.835938 3.078125 -11.296875 C 3.566406 -11.753906 4.144531 -12.113281 4.8125 -12.375 C 5.488281 -12.632812 6.226562 -12.765625 7.03125 -12.765625 C 7.820312 -12.765625 8.554688 -12.632812 9.234375 -12.375 C 9.910156 -12.113281 10.488281 -11.753906 10.96875 -11.296875 C 11.457031 -10.835938 11.835938 -10.300781 12.109375 -9.6875 C 12.378906 -9.082031 12.515625 -8.453125 12.515625 -7.796875 L 12.515625 -6.390625 C 12.515625 -6.128906 12.425781 -5.890625 12.25 -5.671875 C 12.070312 -5.460938 11.820312 -5.359375 11.5 -5.359375 L 3.578125 -5.359375 L 3.578125 -4.59375 C 3.578125 -4.15625 3.660156 -3.738281 3.828125 -3.34375 C 4.003906 -2.957031 4.238281 -2.617188 4.53125 -2.328125 C 4.832031 -2.035156 5.195312 -1.804688 5.625 -1.640625 C 6.050781 -1.484375 6.519531 -1.40625 7.03125 -1.40625 C 7.789062 -1.40625 8.390625 -1.503906 8.828125 -1.703125 C 9.273438 -1.898438 9.640625 -2.117188 9.921875 -2.359375 C 10.203125 -2.609375 10.441406 -2.832031 10.640625 -3.03125 C 10.835938 -3.226562 11.082031 -3.328125 11.375 -3.328125 C 11.625 -3.328125 11.832031 -3.238281 12 -3.0625 C 12.175781 -2.894531 12.265625 -2.679688 12.265625 -2.421875 C 12.265625 -2.203125 12.144531 -1.929688 11.90625 -1.609375 C 11.664062 -1.285156 11.320312 -0.976562 10.875 -0.6875 C 10.4375 -0.394531 9.894531 -0.144531 9.25 0.0625 C 8.601562 0.28125 7.863281 0.390625 7.03125 0.390625 Z M 10.46875 -7.15625 L 10.46875 -7.796875 C 10.46875 -8.234375 10.382812 -8.644531 10.21875 -9.03125 C 10.050781 -9.425781 9.816406 -9.769531 9.515625 -10.0625 C 9.210938 -10.351562 8.847656 -10.578125 8.421875 -10.734375 C 8.003906 -10.898438 7.539062 -10.984375 7.03125 -10.984375 C 6.519531 -10.984375 6.050781 -10.898438 5.625 -10.734375 C 5.195312 -10.578125 4.832031 -10.351562 4.53125 -10.0625 C 4.238281 -9.769531 4.003906 -9.425781 3.828125 -9.03125 C 3.660156 -8.644531 3.578125 -8.234375 3.578125 -7.796875 L 3.578125 -7.15625 Z M 10.46875 -7.15625 "/></g></g></g><g fill="rgb(0%, 0%, 0%)" fill-opacity="1"><g transform="translate(201.686689, 287.115742)"><g><path d="M 3.0625 0.125 C 2.738281 0.125 2.488281 0.0195312 2.3125 -0.1875 C 2.132812 -0.40625 2.046875 -0.640625 2.046875 -0.890625 L 2.046875 -16.734375 C 2.046875 -16.984375 2.132812 -17.210938 2.3125 -17.421875 C 2.488281 -17.640625 2.738281 -17.75 3.0625 -17.75 C 3.382812 -17.75 3.632812 -17.640625 3.8125 -17.421875 C 4 -17.210938 4.09375 -16.984375 4.09375 -16.734375 L 4.09375 -0.890625 C 4.09375 -0.640625 4 -0.40625 3.8125 -0.1875 C 3.632812 0.0195312 3.382812 0.125 3.0625 0.125 Z M 3.0625 0.125 "/></g></g></g><g fill="rgb(0%, 0%, 0%)" fill-opacity="1"><g transform="translate(210.066968, 287.115742)"><g/></g></g><g fill="rgb(0%, 0%, 0%)" fill-opacity="1"><g transform="translate(218.447248, 287.115742)"><g><path d="M 7.15625 0.25 C 6.832031 0.25 6.578125 0.144531 6.390625 -0.0625 C 6.210938 -0.28125 6.125 -0.515625 6.125 -0.765625 L 6.125 -16.09375 L 1.28125 -16.09375 C 0.957031 -16.09375 0.703125 -16.175781 0.515625 -16.34375 C 0.335938 -16.519531 0.25 -16.734375 0.25 -16.984375 C 0.25 -17.242188 0.335938 -17.457031 0.515625 -17.625 C 0.703125 -17.789062 0.957031 -17.875 1.28125 -17.875 L 13.03125 -17.875 C 13.351562 -17.875 13.601562 -17.789062 13.78125 -17.625 C 13.957031 -17.457031 14.046875 -17.242188 14.046875 -16.984375 C 14.046875 -16.734375 13.957031 -16.519531 13.78125 -16.34375 C 13.601562 -16.175781 13.351562 -16.09375 13.03125 -16.09375 L 8.171875 -16.09375 L 8.171875 -0.765625 C 8.171875 -0.515625 8.082031 -0.28125 7.90625 -0.0625 C 7.726562 0.144531 7.476562 0.25 7.15625 0.25 Z M 7.15625 0.25 "/></g></g></g><g fill="rgb(0%, 0%, 0%)" fill-opacity="1"><g transform="translate(235.002498, 287.115742)"><g><path d="M 3.0625 0.125 C 2.738281 0.125 2.488281 0.0195312 2.3125 -0.1875 C 2.132812 -0.40625 2.046875 -0.640625 2.046875 -0.890625 L 2.046875 -11.5 C 2.046875 -11.75 2.132812 -11.976562 2.3125 -12.1875 C 2.488281 -12.40625 2.738281 -12.515625 3.0625 -12.515625 C 3.382812 -12.515625 3.632812 -12.40625 3.8125 -12.1875 C 4 -11.976562 4.09375 -11.75 4.09375 -11.5 L 4.09375 -11.234375 L 4.21875 -11.234375 C 4.382812 -11.523438 4.613281 -11.78125 4.90625 -12 C 5.144531 -12.1875 5.453125 -12.359375 5.828125 -12.515625 C 6.203125 -12.679688 6.644531 -12.765625 7.15625 -12.765625 L 8.296875 -12.765625 C 8.554688 -12.765625 8.769531 -12.679688 8.9375 -12.515625 C 9.113281 -12.347656 9.203125 -12.132812 9.203125 -11.875 C 9.203125 -11.625 9.113281 -11.410156 8.9375 -11.234375 C 8.769531 -11.066406 8.554688 -10.984375 8.296875 -10.984375 L 6.890625 -10.984375 C 6.503906 -10.984375 6.140625 -10.90625 5.796875 -10.75 C 5.453125 -10.601562 5.148438 -10.390625 4.890625 -10.109375 C 4.640625 -9.835938 4.441406 -9.515625 4.296875 -9.140625 C 4.160156 -8.765625 4.09375 -8.359375 4.09375 -7.921875 L 4.09375 -0.890625 C 4.09375 -0.640625 4 -0.40625 3.8125 -0.1875 C 3.632812 0.0195312 3.382812 0.125 3.0625 0.125 Z M 3.0625 0.125 "/></g></g></g><g fill="rgb(0%, 0%, 0%)" fill-opacity="1"><g transform="translate(246.448397, 287.115742)"><g><path d="M 5.359375 0.390625 C 4.710938 0.390625 4.132812 0.289062 3.625 0.09375 C 3.113281 -0.101562 2.671875 -0.367188 2.296875 -0.703125 C 1.921875 -1.046875 1.632812 -1.453125 1.4375 -1.921875 C 1.25 -2.390625 1.15625 -2.898438 1.15625 -3.453125 C 1.15625 -3.960938 1.257812 -4.445312 1.46875 -4.90625 C 1.675781 -5.363281 1.984375 -5.769531 2.390625 -6.125 C 2.804688 -6.488281 3.304688 -6.769531 3.890625 -6.96875 C 4.484375 -7.175781 5.144531 -7.28125 5.875 -7.28125 L 9.578125 -7.28125 L 9.578125 -8.046875 C 9.578125 -8.878906 9.285156 -9.578125 8.703125 -10.140625 C 8.128906 -10.703125 7.359375 -10.984375 6.390625 -10.984375 C 5.617188 -10.984375 5.023438 -10.832031 4.609375 -10.53125 C 4.191406 -10.238281 3.890625 -9.960938 3.703125 -9.703125 C 3.515625 -9.453125 3.335938 -9.257812 3.171875 -9.125 C 3.015625 -9 2.804688 -8.9375 2.546875 -8.9375 C 2.296875 -8.9375 2.082031 -9.019531 1.90625 -9.1875 C 1.738281 -9.363281 1.65625 -9.578125 1.65625 -9.828125 C 1.65625 -10.015625 1.695312 -10.195312 1.78125 -10.375 C 1.820312 -10.457031 1.867188 -10.535156 1.921875 -10.609375 C 2.015625 -10.753906 2.179688 -10.953125 2.421875 -11.203125 C 2.660156 -11.453125 2.96875 -11.691406 3.34375 -11.921875 C 3.71875 -12.148438 4.15625 -12.347656 4.65625 -12.515625 C 5.164062 -12.679688 5.742188 -12.765625 6.390625 -12.765625 C 7.148438 -12.765625 7.847656 -12.632812 8.484375 -12.375 C 9.128906 -12.125 9.6875 -11.785156 10.15625 -11.359375 C 10.625 -10.941406 10.984375 -10.441406 11.234375 -9.859375 C 11.492188 -9.285156 11.625 -8.679688 11.625 -8.046875 L 11.625 -0.890625 C 11.625 -0.640625 11.535156 -0.40625 11.359375 -0.1875 C 11.179688 0.0195312 10.929688 0.125 10.609375 0.125 C 10.273438 0.125 10.019531 0.0195312 9.84375 -0.1875 C 9.664062 -0.40625 9.578125 -0.640625 9.578125 -0.890625 L 9.578125 -1.015625 L 9.453125 -1.015625 C 9.128906 -0.742188 8.765625 -0.507812 8.359375 -0.3125 C 7.992188 -0.125 7.5625 0.0351562 7.0625 0.171875 C 6.570312 0.316406 6.003906 0.390625 5.359375 0.390625 Z M 5.625 -1.40625 C 6.332031 -1.40625 6.929688 -1.488281 7.421875 -1.65625 C 7.921875 -1.832031 8.332031 -2.019531 8.65625 -2.21875 C 9.03125 -2.457031 9.335938 -2.738281 9.578125 -3.0625 L 9.578125 -5.5 L 5.875 -5.5 C 4.96875 -5.5 4.289062 -5.300781 3.84375 -4.90625 C 3.40625 -4.507812 3.1875 -4.023438 3.1875 -3.453125 C 3.1875 -2.867188 3.398438 -2.378906 3.828125 -1.984375 C 4.253906 -1.597656 4.851562 -1.40625 5.625 -1.40625 Z M 5.625 -1.40625 "/></g></g></g><g fill="rgb(0%, 0%, 0%)" fill-opacity="1"><g transform="translate(262.109499, 287.115742)"><g><path d="M 7.03125 0.390625 C 6.226562 0.390625 5.488281 0.257812 4.8125 0 C 4.144531 -0.269531 3.566406 -0.632812 3.078125 -1.09375 C 2.585938 -1.550781 2.207031 -2.082031 1.9375 -2.6875 C 1.664062 -3.300781 1.53125 -3.9375 1.53125 -4.59375 L 1.53125 -7.796875 C 1.53125 -8.453125 1.664062 -9.082031 1.9375 -9.6875 C 2.207031 -10.300781 2.585938 -10.835938 3.078125 -11.296875 C 3.566406 -11.753906 4.144531 -12.113281 4.8125 -12.375 C 5.488281 -12.632812 6.226562 -12.765625 7.03125 -12.765625 C 7.6875 -12.765625 8.285156 -12.671875 8.828125 -12.484375 C 9.378906 -12.304688 9.859375 -12.078125 10.265625 -11.796875 C 10.679688 -11.515625 11.019531 -11.207031 11.28125 -10.875 C 11.539062 -10.550781 11.738281 -10.25 11.875 -9.96875 C 11.894531 -9.914062 11.914062 -9.851562 11.9375 -9.78125 C 11.945312 -9.726562 11.957031 -9.660156 11.96875 -9.578125 C 11.988281 -9.492188 12 -9.410156 12 -9.328125 C 12 -9.066406 11.914062 -8.851562 11.75 -8.6875 C 11.582031 -8.519531 11.367188 -8.4375 11.109375 -8.4375 C 10.859375 -8.4375 10.664062 -8.5 10.53125 -8.625 C 10.394531 -8.75 10.25 -8.941406 10.09375 -9.203125 C 9.769531 -9.710938 9.382812 -10.132812 8.9375 -10.46875 C 8.5 -10.8125 7.863281 -10.984375 7.03125 -10.984375 C 6.519531 -10.984375 6.050781 -10.898438 5.625 -10.734375 C 5.195312 -10.578125 4.832031 -10.351562 4.53125 -10.0625 C 4.238281 -9.769531 4.003906 -9.425781 3.828125 -9.03125 C 3.660156 -8.644531 3.578125 -8.234375 3.578125 -7.796875 L 3.578125 -4.59375 C 3.578125 -4.15625 3.660156 -3.738281 3.828125 -3.34375 C 4.003906 -2.957031 4.238281 -2.617188 4.53125 -2.328125 C 4.832031 -2.035156 5.195312 -1.804688 5.625 -1.640625 C 6.050781 -1.484375 6.519531 -1.40625 7.03125 -1.40625 C 7.914062 -1.40625 8.625 -1.617188 9.15625 -2.046875 C 9.695312 -2.472656 10.09375 -2.941406 10.34375 -3.453125 C 10.476562 -3.703125 10.617188 -3.890625 10.765625 -4.015625 C 10.910156 -4.148438 11.113281 -4.21875 11.375 -4.21875 C 11.625 -4.21875 11.832031 -4.128906 12 -3.953125 C 12.175781 -3.785156 12.265625 -3.578125 12.265625 -3.328125 C 12.265625 -3.222656 12.253906 -3.128906 12.234375 -3.046875 C 12.222656 -2.972656 12.207031 -2.910156 12.1875 -2.859375 C 12.164062 -2.796875 12.148438 -2.738281 12.140625 -2.6875 C 12.003906 -2.363281 11.796875 -2.019531 11.515625 -1.65625 C 11.234375 -1.300781 10.875 -0.96875 10.4375 -0.65625 C 10 -0.351562 9.492188 -0.101562 8.921875 0.09375 C 8.359375 0.289062 7.726562 0.390625 7.03125 0.390625 Z M 7.03125 0.390625 "/></g></g></g><g fill="rgb(0%, 0%, 0%)" fill-opacity="1"><g transform="translate(277.387406, 287.115742)"><g><path d="M 3.0625 0.125 C 2.738281 0.125 2.488281 0.0195312 2.3125 -0.1875 C 2.132812 -0.40625 2.046875 -0.640625 2.046875 -0.890625 L 2.046875 -16.734375 C 2.046875 -16.984375 2.132812 -17.210938 2.3125 -17.421875 C 2.488281 -17.640625 2.738281 -17.75 3.0625 -17.75 C 3.382812 -17.75 3.632812 -17.640625 3.8125 -17.421875 C 4 -17.210938 4.09375 -16.984375 4.09375 -16.734375 L 4.09375 -7.28125 L 6.515625 -7.28125 L 10.21875 -11.875 C 10.320312 -12.007812 10.453125 -12.148438 10.609375 -12.296875 C 10.773438 -12.441406 10.984375 -12.515625 11.234375 -12.515625 C 11.554688 -12.515625 11.804688 -12.40625 11.984375 -12.1875 C 12.171875 -11.976562 12.265625 -11.75 12.265625 -11.5 C 12.265625 -11.3125 12.222656 -11.144531 12.140625 -11 C 12.066406 -10.851562 11.976562 -10.722656 11.875 -10.609375 L 8.296875 -6.390625 L 12.140625 -1.78125 C 12.234375 -1.664062 12.316406 -1.535156 12.390625 -1.390625 C 12.472656 -1.242188 12.515625 -1.078125 12.515625 -0.890625 C 12.515625 -0.640625 12.425781 -0.40625 12.25 -0.1875 C 12.070312 0.0195312 11.820312 0.125 11.5 0.125 C 11.238281 0.125 11.023438 0.0507812 10.859375 -0.09375 C 10.703125 -0.238281 10.570312 -0.378906 10.46875 -0.515625 L 6.515625 -5.5 L 4.09375 -5.5 L 4.09375 -0.890625 C 4.09375 -0.640625 4 -0.40625 3.8125 -0.1875 C 3.632812 0.0195312 3.382812 0.125 3.0625 0.125 Z M 3.0625 0.125 "/></g></g></g><g fill="rgb(0%, 0%, 0%)" fill-opacity="1"><g transform="translate(292.793052, 287.115742)"><g><path d="M 7.03125 0.390625 C 6.226562 0.390625 5.488281 0.257812 4.8125 0 C 4.144531 -0.269531 3.566406 -0.632812 3.078125 -1.09375 C 2.585938 -1.550781 2.207031 -2.082031 1.9375 -2.6875 C 1.664062 -3.300781 1.53125 -3.9375 1.53125 -4.59375 L 1.53125 -7.796875 C 1.53125 -8.453125 1.664062 -9.082031 1.9375 -9.6875 C 2.207031 -10.300781 2.585938 -10.835938 3.078125 -11.296875 C 3.566406 -11.753906 4.144531 -12.113281 4.8125 -12.375 C 5.488281 -12.632812 6.226562 -12.765625 7.03125 -12.765625 C 7.820312 -12.765625 8.554688 -12.632812 9.234375 -12.375 C 9.910156 -12.113281 10.488281 -11.753906 10.96875 -11.296875 C 11.457031 -10.835938 11.835938 -10.300781 12.109375 -9.6875 C 12.378906 -9.082031 12.515625 -8.453125 12.515625 -7.796875 L 12.515625 -6.390625 C 12.515625 -6.128906 12.425781 -5.890625 12.25 -5.671875 C 12.070312 -5.460938 11.820312 -5.359375 11.5 -5.359375 L 3.578125 -5.359375 L 3.578125 -4.59375 C 3.578125 -4.15625 3.660156 -3.738281 3.828125 -3.34375 C 4.003906 -2.957031 4.238281 -2.617188 4.53125 -2.328125 C 4.832031 -2.035156 5.195312 -1.804688 5.625 -1.640625 C 6.050781 -1.484375 6.519531 -1.40625 7.03125 -1.40625 C 7.789062 -1.40625 8.390625 -1.503906 8.828125 -1.703125 C 9.273438 -1.898438 9.640625 -2.117188 9.921875 -2.359375 C 10.203125 -2.609375 10.441406 -2.832031 10.640625 -3.03125 C 10.835938 -3.226562 11.082031 -3.328125 11.375 -3.328125 C 11.625 -3.328125 11.832031 -3.238281 12 -3.0625 C 12.175781 -2.894531 12.265625 -2.679688 12.265625 -2.421875 C 12.265625 -2.203125 12.144531 -1.929688 11.90625 -1.609375 C 11.664062 -1.285156 11.320312 -0.976562 10.875 -0.6875 C 10.4375 -0.394531 9.894531 -0.144531 9.25 0.0625 C 8.601562 0.28125 7.863281 0.390625 7.03125 0.390625 Z M 10.46875 -7.15625 L 10.46875 -7.796875 C 10.46875 -8.234375 10.382812 -8.644531 10.21875 -9.03125 C 10.050781 -9.425781 9.816406 -9.769531 9.515625 -10.0625 C 9.210938 -10.351562 8.847656 -10.578125 8.421875 -10.734375 C 8.003906 -10.898438 7.539062 -10.984375 7.03125 -10.984375 C 6.519531 -10.984375 6.050781 -10.898438 5.625 -10.734375 C 5.195312 -10.578125 4.832031 -10.351562 4.53125 -10.0625 C 4.238281 -9.769531 4.003906 -9.425781 3.828125 -9.03125 C 3.660156 -8.644531 3.578125 -8.234375 3.578125 -7.796875 L 3.578125 -7.15625 Z M 10.46875 -7.15625 "/></g></g></g><g fill="rgb(0%, 0%, 0%)" fill-opacity="1"><g transform="translate(308.837371, 287.115742)"><g><path d="M 3.0625 0.125 C 2.738281 0.125 2.488281 0.0195312 2.3125 -0.1875 C 2.132812 -0.40625 2.046875 -0.640625 2.046875 -0.890625 L 2.046875 -11.5 C 2.046875 -11.75 2.132812 -11.976562 2.3125 -12.1875 C 2.488281 -12.40625 2.738281 -12.515625 3.0625 -12.515625 C 3.382812 -12.515625 3.632812 -12.40625 3.8125 -12.1875 C 4 -11.976562 4.09375 -11.75 4.09375 -11.5 L 4.09375 -11.234375 L 4.21875 -11.234375 C 4.382812 -11.523438 4.613281 -11.78125 4.90625 -12 C 5.144531 -12.1875 5.453125 -12.359375 5.828125 -12.515625 C 6.203125 -12.679688 6.644531 -12.765625 7.15625 -12.765625 L 8.296875 -12.765625 C 8.554688 -12.765625 8.769531 -12.679688 8.9375 -12.515625 C 9.113281 -12.347656 9.203125 -12.132812 9.203125 -11.875 C 9.203125 -11.625 9.113281 -11.410156 8.9375 -11.234375 C 8.769531 -11.066406 8.554688 -10.984375 8.296875 -10.984375 L 6.890625 -10.984375 C 6.503906 -10.984375 6.140625 -10.90625 5.796875 -10.75 C 5.453125 -10.601562 5.148438 -10.390625 4.890625 -10.109375 C 4.640625 -9.835938 4.441406 -9.515625 4.296875 -9.140625 C 4.160156 -8.765625 4.09375 -8.359375 4.09375 -7.921875 L 4.09375 -0.890625 C 4.09375 -0.640625 4 -0.40625 3.8125 -0.1875 C 3.632812 0.0195312 3.382812 0.125 3.0625 0.125 Z M 3.0625 0.125 "/></g></g></g></svg>