<svg xmlns="http://www.w3.org/2000/svg" xmlns:xlink="http://www.w3.org/1999/xlink" width="500" zoomAndPan="magnify" viewBox="0 0 375 374.999991" height="500" preserveAspectRatio="xMidYMid meet" version="1.0"><defs><filter x="0%" y="0%" width="100%" height="100%" id="id1"><feColorMatrix values="0 0 0 0 1 0 0 0 0 1 0 0 0 0 1 0 0 0 1 0" color-interpolation-filters="sRGB"/></filter><mask id="id2"><g filter="url(#id1)"><rect x="-37.5" width="450" fill="rgb(0%, 0%, 0%)" y="-37.499999" height="449.999989" fill-opacity="0.2471"/></g></mask><clipPath id="id3"><path d="M 25 67 L 245 67 L 245 236 L 25 236 Z M 25 67 " clip-rule="nonzero"/></clipPath><clipPath id="id4"><path d="M 286.484375 197.933594 L 59.527344 290.878906 L -21.195312 93.769531 L 205.761719 0.824219 Z M 286.484375 197.933594 " clip-rule="nonzero"/></clipPath><clipPath id="id5"><path d="M 286.484375 197.933594 L 59.527344 290.878906 L -21.195312 93.769531 L 205.761719 0.824219 Z M 286.484375 197.933594 " clip-rule="nonzero"/></clipPath><clipPath id="id6"><path d="M 286.484375 197.933594 L 59.527344 290.878906 L -21.195312 93.769531 L 205.761719 0.824219 Z M 286.484375 197.933594 " clip-rule="nonzero"/></clipPath><clipPath id="id7"><rect x="0" width="287" y="0" height="291"/></clipPath><clipPath id="id8"><path d="M 47 55 L 317 55 L 317 324.652344 L 47 324.652344 Z M 47 55 " clip-rule="nonzero"/></clipPath><clipPath id="id9"><path d="M 191 32.152344 L 257 32.152344 L 257 140 L 191 140 Z M 191 32.152344 " clip-rule="nonzero"/></clipPath></defs><g mask="url(#id2)"><g transform="matrix(1, 0, 0, 1, 0, 52)"><g clip-path="url(#id7)"><g clip-path="url(#id3)"><g clip-path="url(#id4)"><g clip-path="url(#id5)"><g clip-path="url(#id6)"><path fill="rgb(46.269226%, 79.998779%, 81.17981%)" d="M 107.164062 229.609375 C 65.671875 214.640625 -12.339844 114.96875 47.089844 75.832031 C 87.273438 49.347656 93.625 91.675781 148.652344 124.765625 C 166.886719 135.707031 256.132812 124.25 242.960938 180.722656 C 235.148438 214.1875 161.421875 249.152344 107.164062 229.609375 Z M 107.164062 229.609375 " fill-opacity="1" fill-rule="nonzero"/></g></g></g></g></g></g></g><g clip-path="url(#id8)"><path fill="rgb(19.999695%, 41.958618%, 52.938843%)" d="M 262.351562 81.90625 C 262.175781 81.769531 261.980469 81.667969 261.765625 81.609375 C 261.550781 81.550781 261.332031 81.535156 261.109375 81.5625 C 260.890625 81.59375 260.683594 81.664062 260.488281 81.777344 C 260.296875 81.890625 260.132812 82.039062 260 82.214844 C 259.867188 82.394531 259.773438 82.59375 259.71875 82.8125 C 259.667969 83.027344 259.65625 83.25 259.691406 83.46875 C 259.730469 83.691406 259.804688 83.894531 259.925781 84.085938 C 260.042969 84.273438 260.195312 84.433594 260.375 84.5625 C 293.398438 109.152344 312.613281 146.984375 313.113281 188.359375 C 313.28125 202.085938 311.355469 215.511719 307.335938 228.636719 C 304.792969 231.878906 302.265625 235.128906 299.648438 238.3125 C 296.699219 241.980469 293.566406 245.480469 290.25 248.816406 C 289.496094 249.558594 288.726562 250.273438 287.945312 250.964844 C 287.566406 251.304688 287.183594 251.632812 286.796875 251.953125 L 286.257812 252.390625 L 286.023438 252.574219 C 286.203125 252.429688 285.976562 252.574219 285.929688 252.644531 C 284.035156 254.082031 281.996094 255.324219 280.050781 256.6875 C 277.921875 258.085938 276.007812 259.734375 274.308594 261.628906 C 272.664062 263.539062 271.511719 265.710938 270.847656 268.144531 C 270.539062 269.304688 270.347656 270.484375 270.277344 271.6875 C 270.210938 272.886719 270.265625 274.082031 270.441406 275.269531 C 270.617188 276.457031 270.914062 277.617188 271.328125 278.746094 C 271.742188 279.875 272.265625 280.949219 272.898438 281.96875 C 273.242188 282.488281 273.617188 282.980469 274.007812 283.46875 C 270.992188 286.460938 267.839844 289.296875 264.546875 291.980469 C 261.257812 294.664062 257.839844 297.179688 254.304688 299.527344 C 250.765625 301.875 247.125 304.046875 243.375 306.035156 C 239.625 308.027344 235.789062 309.832031 231.863281 311.449219 C 227.9375 313.0625 223.941406 314.484375 219.875 315.710938 C 215.8125 316.933594 211.699219 317.957031 207.53125 318.777344 C 203.367188 319.601562 199.175781 320.214844 194.949219 320.628906 C 190.726562 321.039062 186.492188 321.242188 182.246094 321.238281 L 182.019531 321.238281 C 177.824219 321.253906 173.636719 321.066406 169.457031 320.679688 C 165.277344 320.289062 161.128906 319.703125 157.003906 318.910156 C 152.882812 318.121094 148.808594 317.136719 144.78125 315.953125 C 140.753906 314.765625 136.796875 313.390625 132.902344 311.824219 C 129.007812 310.257812 125.199219 308.507812 121.472656 306.574219 C 117.746094 304.636719 114.125 302.527344 110.601562 300.242188 C 107.082031 297.957031 103.675781 295.503906 100.390625 292.890625 C 97.105469 290.277344 93.953125 287.507812 90.9375 284.589844 C 91.929688 282.855469 92.695312 281.023438 93.230469 279.09375 C 93.761719 277.164062 94.050781 275.203125 94.09375 273.203125 C 94.132812 271.199219 93.929688 269.226562 93.476562 267.277344 C 93.023438 265.328125 92.335938 263.464844 91.414062 261.691406 C 89.574219 258.171875 86.675781 255.53125 83.941406 252.753906 C 83.261719 252.070312 82.636719 251.382812 82.035156 250.699219 L 81.621094 250.191406 L 81.578125 250.144531 C 81.515625 250.078125 81.460938 249.988281 81.40625 249.914062 C 81.140625 249.558594 80.886719 249.1875 80.65625 248.804688 C 80.429688 248.449219 80.226562 248.082031 80.039062 247.703125 L 79.898438 247.386719 C 79.816406 247.175781 79.738281 246.964844 79.664062 246.742188 C 79.535156 246.34375 79.433594 245.9375 79.355469 245.527344 C 79.355469 245.445312 79.316406 245.335938 79.308594 245.238281 L 79.308594 245.15625 C 79.308594 244.929688 79.308594 244.710938 79.269531 244.472656 C 79.269531 244.117188 79.269531 243.789062 79.316406 243.410156 C 79.316406 243.410156 79.316406 243.445312 79.316406 243.464844 C 79.339844 243.371094 79.355469 243.277344 79.363281 243.179688 C 79.363281 242.992188 79.433594 242.808594 79.480469 242.625 C 79.558594 242.285156 79.65625 241.949219 79.773438 241.617188 C 79.835938 241.441406 79.902344 241.269531 79.964844 241.089844 L 80.066406 240.859375 C 80.722656 239.472656 81.515625 238.171875 82.445312 236.957031 C 82.507812 236.875 82.578125 236.792969 82.632812 236.710938 L 82.960938 236.292969 L 83.753906 235.320312 C 84.257812 234.699219 84.769531 234.089844 85.269531 233.46875 C 86.34375 232.1875 87.324219 230.84375 88.214844 229.429688 C 89.964844 226.519531 90.855469 223.042969 89.773438 219.726562 C 88.496094 215.832031 85.113281 213.03125 81.53125 211.292969 C 77.277344 209.328125 72.8125 208.234375 68.132812 208.015625 C 63.382812 207.722656 58.726562 208.261719 54.167969 209.636719 C 53.574219 209.816406 52.992188 210.015625 52.417969 210.21875 C 51.441406 203.8125 50.929688 197.371094 50.886719 190.890625 C 50.820312 183.25 51.421875 175.65625 52.683594 168.117188 C 53.945312 160.582031 55.855469 153.207031 58.40625 146.003906 C 58.769531 145.007812 59.25 144.066406 59.839844 143.179688 C 60.429688 142.296875 61.117188 141.496094 61.902344 140.777344 C 62.683594 140.058594 63.542969 139.445312 64.472656 138.933594 C 65.402344 138.421875 66.382812 138.027344 67.40625 137.75 C 72.957031 136.199219 77.136719 136.183594 79.152344 137.75 C 80.265625 138.59375 80.804688 139.976562 80.804688 141.960938 C 80.804688 148.460938 77.824219 154.695312 74.652344 161.300781 C 71.480469 167.90625 68.195312 174.816406 68.195312 182.070312 C 68.195312 186.011719 68.578125 190.207031 71.414062 191.386719 C 75.308594 193 80.75 188.441406 96.199219 172.976562 C 105.140625 164.023438 113.789062 162.027344 120.734375 160.390625 C 128.667969 158.542969 135.523438 156.96875 137.855469 145.921875 C 139.96875 135.910156 136.339844 126.273438 133.140625 117.765625 C 130.050781 109.554688 127.136719 101.84375 129.761719 95.183594 C 132.652344 87.847656 135.847656 84.789062 138.582031 82.753906 C 139.289062 82.242188 139.949219 81.679688 140.566406 81.0625 C 141.1875 80.449219 141.75 79.785156 142.265625 79.078125 C 142.777344 78.375 143.230469 77.628906 143.625 76.851562 C 144.023438 76.074219 144.351562 75.269531 144.621094 74.4375 C 144.886719 73.605469 145.089844 72.757812 145.222656 71.894531 C 145.355469 71.03125 145.417969 70.164062 145.414062 69.292969 C 145.410156 68.417969 145.335938 67.550781 145.195312 66.6875 C 145.054688 65.828125 144.84375 64.980469 144.566406 64.152344 C 155.839844 60.808594 167.347656 59.007812 179.101562 58.753906 L 179.140625 58.753906 C 180.507812 58.753906 181.808594 58.714844 183.140625 58.753906 C 183.359375 58.753906 183.570312 58.710938 183.773438 58.628906 C 183.976562 58.542969 184.15625 58.425781 184.3125 58.269531 C 184.464844 58.113281 184.585938 57.933594 184.667969 57.730469 C 184.753906 57.527344 184.796875 57.316406 184.796875 57.097656 C 184.796875 56.878906 184.753906 56.667969 184.667969 56.464844 C 184.585938 56.261719 184.464844 56.082031 184.3125 55.925781 C 184.15625 55.773438 183.976562 55.652344 183.773438 55.566406 C 183.570312 55.484375 183.359375 55.441406 183.140625 55.441406 L 181.679688 55.441406 C 177.089844 55.445312 172.515625 55.683594 167.953125 56.152344 C 163.386719 56.625 158.859375 57.328125 154.371094 58.265625 C 149.878906 59.203125 145.445312 60.367188 141.074219 61.757812 C 136.699219 63.148438 132.410156 64.757812 128.203125 66.589844 C 123.996094 68.417969 119.890625 70.460938 115.894531 72.710938 C 111.894531 74.960938 108.019531 77.410156 104.273438 80.058594 C 100.523438 82.707031 96.917969 85.542969 93.460938 88.558594 C 90.003906 91.578125 86.707031 94.761719 83.574219 98.121094 C 83.421875 98.28125 83.304688 98.460938 83.226562 98.667969 C 83.144531 98.875 83.109375 99.089844 83.117188 99.3125 C 83.121094 99.53125 83.171875 99.746094 83.261719 99.945312 C 83.351562 100.148438 83.480469 100.324219 83.640625 100.476562 C 83.804688 100.625 83.988281 100.742188 84.195312 100.816406 C 84.402344 100.894531 84.617188 100.929688 84.839844 100.917969 C 85.058594 100.910156 85.269531 100.859375 85.46875 100.765625 C 85.671875 100.671875 85.84375 100.542969 85.992188 100.378906 C 89.769531 96.324219 93.785156 92.527344 98.042969 88.984375 C 102.300781 85.445312 106.765625 82.183594 111.433594 79.210938 C 116.105469 76.234375 120.945312 73.566406 125.953125 71.203125 C 130.960938 68.84375 136.097656 66.808594 141.363281 65.097656 C 141.589844 65.765625 141.761719 66.441406 141.878906 67.136719 C 141.996094 67.828125 142.058594 68.527344 142.0625 69.230469 C 142.070312 69.933594 142.019531 70.632812 141.914062 71.324219 C 141.808594 72.019531 141.652344 72.703125 141.4375 73.371094 C 141.222656 74.042969 140.957031 74.691406 140.640625 75.316406 C 140.320312 75.945312 139.957031 76.542969 139.542969 77.109375 C 139.132812 77.679688 138.675781 78.210938 138.179688 78.707031 C 137.679688 79.203125 137.148438 79.65625 136.578125 80.066406 C 133.46875 82.371094 129.859375 85.820312 126.652344 93.9375 C 123.5625 101.78125 126.691406 110.101562 130.007812 118.902344 C 133.199219 127.375 136.503906 136.136719 134.589844 145.203125 C 132.695312 154.15625 127.894531 155.277344 119.953125 157.125 C 112.597656 158.84375 103.4375 160.972656 93.835938 170.59375 C 86.382812 178.046875 75.140625 189.296875 72.644531 188.285156 C 72.445312 188.203125 71.46875 187.519531 71.46875 182.035156 C 71.46875 175.535156 74.449219 169.300781 77.621094 162.695312 C 80.792969 156.09375 84.085938 149.179688 84.085938 141.925781 C 84.085938 138.875 83.089844 136.566406 81.128906 135.082031 C 78.179688 132.84375 73.253906 132.667969 66.484375 134.5625 C 65.207031 134.914062 63.988281 135.414062 62.832031 136.058594 C 61.671875 136.707031 60.605469 137.480469 59.632812 138.378906 C 58.660156 139.28125 57.808594 140.285156 57.078125 141.390625 C 56.34375 142.496094 55.753906 143.675781 55.300781 144.921875 C 54.402344 147.449219 53.574219 150.003906 52.828125 152.578125 C 52.078125 155.15625 51.40625 157.75 50.8125 160.367188 C 50.21875 162.984375 49.703125 165.617188 49.265625 168.265625 C 48.832031 170.914062 48.476562 173.570312 48.199219 176.238281 C 47.921875 178.910156 47.722656 181.582031 47.605469 184.265625 C 47.488281 186.945312 47.453125 189.625 47.496094 192.308594 C 47.539062 194.992188 47.660156 197.671875 47.867188 200.347656 C 48.070312 203.023438 48.351562 205.691406 48.714844 208.347656 C 49.078125 211.007812 49.519531 213.652344 50.042969 216.285156 C 50.5625 218.917969 51.164062 221.53125 51.839844 224.128906 C 52.519531 226.722656 53.273438 229.296875 54.105469 231.847656 C 54.9375 234.398438 55.84375 236.921875 56.824219 239.417969 C 57.808594 241.914062 58.863281 244.378906 59.996094 246.8125 C 61.125 249.246094 62.328125 251.644531 63.601562 254.003906 C 64.875 256.367188 66.21875 258.6875 67.628906 260.96875 C 69.042969 263.25 70.519531 265.484375 72.066406 267.675781 C 73.613281 269.867188 75.222656 272.011719 76.898438 274.105469 C 78.570312 276.203125 80.308594 278.246094 82.105469 280.238281 C 83.902344 282.230469 85.753906 284.164062 87.667969 286.042969 C 89.578125 287.925781 91.546875 289.746094 93.566406 291.507812 C 95.589844 293.269531 97.660156 294.96875 99.785156 296.609375 C 101.90625 298.246094 104.078125 299.816406 106.292969 301.324219 C 108.511719 302.832031 110.773438 304.273438 113.074219 305.644531 C 115.378906 307.019531 117.71875 308.320312 120.101562 309.550781 C 122.484375 310.785156 124.898438 311.941406 127.347656 313.03125 C 129.800781 314.117188 132.28125 315.128906 134.789062 316.066406 C 137.300781 317.007812 139.839844 317.867188 142.402344 318.652344 C 144.964844 319.441406 147.546875 320.148438 150.152344 320.78125 C 152.757812 321.410156 155.378906 321.964844 158.015625 322.4375 C 160.65625 322.910156 163.304688 323.304688 165.96875 323.621094 C 168.628906 323.9375 171.296875 324.171875 173.972656 324.324219 C 176.648438 324.480469 179.328125 324.554688 182.007812 324.550781 L 182.246094 324.550781 C 184.460938 324.546875 186.671875 324.488281 188.886719 324.375 C 191.097656 324.261719 193.304688 324.09375 195.507812 323.871094 C 197.710938 323.648438 199.910156 323.371094 202.097656 323.039062 C 204.289062 322.707031 206.46875 322.324219 208.640625 321.882812 C 210.808594 321.445312 212.96875 320.953125 215.113281 320.40625 C 217.261719 319.859375 219.394531 319.261719 221.511719 318.609375 C 223.628906 317.957031 225.726562 317.253906 227.808594 316.5 C 229.890625 315.742188 231.953125 314.9375 233.996094 314.078125 C 236.039062 313.222656 238.058594 312.3125 240.054688 311.355469 C 242.054688 310.398438 244.027344 309.394531 245.972656 308.339844 C 247.921875 307.285156 249.84375 306.179688 251.734375 305.03125 C 253.628906 303.878906 255.492188 302.683594 257.328125 301.441406 C 259.160156 300.199219 260.964844 298.914062 262.734375 297.582031 C 264.507812 296.25 266.242188 294.875 267.945312 293.457031 C 269.648438 292.039062 271.316406 290.582031 272.949219 289.082031 C 274.578125 287.582031 276.171875 286.042969 277.726562 284.464844 C 279.28125 282.886719 280.796875 281.269531 282.273438 279.613281 C 283.746094 277.960938 285.179688 276.273438 286.574219 274.546875 C 287.964844 272.824219 289.3125 271.066406 290.617188 269.273438 C 291.921875 267.480469 293.183594 265.660156 294.398438 263.804688 C 295.613281 261.953125 296.78125 260.070312 297.902344 258.15625 C 299.027344 256.246094 300.101562 254.308594 301.128906 252.34375 C 302.152344 250.378906 303.132812 248.390625 304.058594 246.375 C 304.988281 244.363281 305.867188 242.328125 306.695312 240.273438 C 307.519531 238.214844 308.296875 236.140625 309.023438 234.042969 C 309.75 231.949219 310.421875 229.835938 311.042969 227.710938 C 311.664062 225.582031 312.234375 223.4375 312.746094 221.28125 C 313.261719 219.125 313.726562 216.957031 314.132812 214.777344 C 314.542969 212.597656 314.894531 210.410156 315.195312 208.214844 C 315.496094 206.019531 315.742188 203.816406 315.933594 201.605469 C 316.125 199.398438 316.261719 197.183594 316.34375 194.96875 C 316.429688 192.753906 316.457031 190.535156 316.429688 188.320312 C 315.914062 145.902344 296.207031 107.113281 262.351562 81.90625 Z M 52.976562 213.578125 C 54.734375 212.925781 56.527344 212.410156 58.359375 212.027344 C 58.898438 211.917969 59.445312 211.8125 59.992188 211.726562 L 60.851562 211.59375 L 60.902344 211.59375 L 61.503906 211.519531 C 62.601562 211.402344 63.710938 211.328125 64.824219 211.300781 C 65.9375 211.273438 67.140625 211.300781 68.304688 211.375 C 68.855469 211.410156 69.402344 211.457031 69.957031 211.519531 L 70.601562 211.59375 L 70.867188 211.636719 L 71.316406 211.703125 C 73.546875 212.050781 75.726562 212.597656 77.851562 213.347656 L 78.535156 213.605469 L 78.871094 213.742188 C 79.324219 213.929688 79.765625 214.140625 80.199219 214.359375 C 81.027344 214.773438 81.820312 215.242188 82.582031 215.769531 C 82.761719 215.898438 82.960938 216.023438 83.128906 216.167969 L 83.417969 216.398438 C 83.792969 216.714844 84.15625 217.042969 84.496094 217.390625 C 84.78125 217.667969 85.046875 217.960938 85.289062 218.273438 C 85.25 218.21875 85.222656 218.191406 85.289062 218.335938 L 85.496094 218.625 C 85.625 218.816406 85.753906 219.011719 85.871094 219.21875 C 85.992188 219.417969 86.105469 219.625 86.207031 219.835938 C 86.246094 219.902344 86.277344 219.972656 86.308594 220.046875 C 86.308594 220.066406 86.308594 220.082031 86.308594 220.101562 C 86.519531 220.519531 86.652344 220.960938 86.710938 221.421875 C 86.769531 221.597656 86.804688 221.773438 86.820312 221.957031 L 86.820312 222.050781 C 86.828125 222.140625 86.828125 222.230469 86.820312 222.320312 C 86.847656 222.691406 86.847656 223.0625 86.820312 223.433594 C 86.820312 223.585938 86.691406 224.222656 86.820312 223.652344 C 86.785156 223.8125 86.773438 223.96875 86.738281 224.117188 C 86.695312 224.488281 86.632812 224.851562 86.546875 225.214844 C 86.453125 225.515625 86.335938 225.800781 86.226562 226.097656 L 86.125 226.324219 L 85.863281 226.84375 C 85.511719 227.511719 85.121094 228.15625 84.695312 228.78125 C 84.496094 229.074219 84.292969 229.359375 84.078125 229.648438 C 83.96875 229.800781 83.859375 229.949219 83.746094 230.09375 C 83.675781 230.167969 83.621094 230.257812 83.554688 230.339844 C 82.589844 231.566406 81.578125 232.753906 80.601562 233.972656 C 78.644531 236.421875 76.664062 239.128906 76.109375 242.289062 C 75.765625 244.125 75.878906 245.933594 76.457031 247.707031 C 77.132812 249.554688 78.109375 251.222656 79.390625 252.710938 C 80.589844 254.117188 81.855469 255.460938 83.191406 256.734375 C 83.875 257.421875 84.515625 258.050781 85.152344 258.726562 C 85.445312 259.042969 85.734375 259.355469 86.015625 259.679688 L 86.480469 260.234375 L 86.636719 260.425781 L 86.753906 260.566406 C 87.320312 261.332031 87.835938 262.128906 88.296875 262.964844 C 88.507812 263.347656 88.707031 263.742188 88.898438 264.140625 C 88.996094 264.351562 89.089844 264.558594 89.179688 264.769531 L 89.363281 265.242188 C 89.699219 266.136719 89.976562 267.050781 90.199219 267.980469 C 90.292969 268.410156 90.382812 268.847656 90.464844 269.289062 C 90.464844 269.5 90.546875 269.726562 90.566406 269.972656 C 90.566406 270.144531 90.601562 270.308594 90.621094 270.476562 C 90.714844 271.40625 90.75 272.332031 90.730469 273.261719 C 90.730469 273.730469 90.695312 274.195312 90.65625 274.632812 C 90.65625 274.886719 90.609375 275.136719 90.582031 275.390625 C 90.582031 275.390625 90.582031 275.570312 90.582031 275.617188 C 90.582031 275.664062 90.582031 275.761719 90.546875 275.828125 C 90.402344 276.753906 90.199219 277.667969 89.9375 278.566406 C 89.808594 279.011719 89.664062 279.449219 89.507812 279.886719 L 89.234375 280.574219 L 89.050781 280.988281 C 88.863281 281.378906 88.671875 281.757812 88.46875 282.132812 C 83.871094 277.476562 79.652344 272.503906 75.804688 267.210938 C 71.960938 261.917969 68.535156 256.363281 65.523438 250.554688 C 62.515625 244.742188 59.960938 238.738281 57.859375 232.539062 C 55.753906 226.34375 54.128906 220.023438 52.976562 213.578125 Z M 273.691406 270.664062 Z M 274.628906 278.15625 L 274.675781 278.273438 C 274.652344 278.234375 274.636719 278.1875 274.628906 278.144531 Z M 276.351562 281.125 L 276.132812 280.824219 C 275.972656 280.605469 275.824219 280.378906 275.679688 280.140625 C 275.390625 279.683594 275.125 279.207031 274.886719 278.71875 L 274.703125 278.320312 C 274.59375 278.046875 274.492188 277.773438 274.394531 277.5 C 274.21875 276.984375 274.070312 276.460938 273.945312 275.933594 C 273.890625 275.6875 273.84375 275.441406 273.792969 275.191406 C 273.792969 275.050781 273.746094 274.914062 273.726562 274.769531 C 273.707031 274.625 273.726562 274.660156 273.726562 274.640625 C 273.664062 274.097656 273.628906 273.550781 273.617188 273.003906 C 273.605469 272.457031 273.617188 271.914062 273.671875 271.375 C 273.671875 271.230469 273.671875 271.082031 273.71875 270.9375 L 273.71875 270.875 C 273.800781 270.59375 273.847656 270.304688 273.863281 270.011719 C 273.972656 269.480469 274.109375 268.953125 274.265625 268.433594 C 274.339844 268.199219 274.421875 267.960938 274.511719 267.746094 C 274.601562 267.535156 274.621094 267.472656 274.667969 267.335938 C 274.71875 267.199219 274.621094 267.4375 274.621094 267.4375 C 274.648438 267.359375 274.683594 267.285156 274.722656 267.214844 C 274.949219 266.71875 275.199219 266.238281 275.476562 265.769531 C 275.613281 265.535156 275.761719 265.304688 275.914062 265.085938 L 276.144531 264.757812 L 276.308594 264.53125 C 277.039062 263.609375 277.847656 262.765625 278.730469 261.992188 C 279.175781 261.601562 279.632812 261.226562 280.097656 260.855469 L 280.191406 260.78125 L 280.574219 260.492188 L 281.300781 259.964844 C 283.253906 258.597656 285.292969 257.316406 287.226562 255.90625 C 288.875 254.683594 290.441406 253.363281 291.921875 251.9375 C 295.179688 248.765625 298.246094 245.414062 301.117188 241.886719 C 302.121094 240.679688 303.105469 239.457031 304.089844 238.238281 C 300.917969 246.226562 297 253.828125 292.332031 261.042969 C 287.664062 268.257812 282.335938 274.949219 276.351562 281.113281 Z M 276.351562 281.125 " fill-opacity="1" fill-rule="nonzero"/></g><path fill="rgb(19.999695%, 41.958618%, 52.938843%)" d="M 177.316406 160.683594 C 177.792969 162.15625 178.515625 163.488281 179.492188 164.6875 C 180.46875 165.882812 181.625 166.863281 182.96875 167.625 C 184.484375 168.425781 186.09375 168.90625 187.800781 169.0625 C 189.503906 169.214844 191.175781 169.03125 192.808594 168.511719 C 196 167.535156 198.84375 165.9375 201.34375 163.722656 C 201.90625 164.320312 202.484375 164.90625 203.085938 165.46875 C 205.617188 167.960938 208.613281 169.597656 212.078125 170.375 C 215.878906 171.128906 219.730469 170.730469 223.558594 170.464844 C 227.023438 170.164062 230.46875 170.308594 233.894531 170.894531 C 240.511719 172.160156 246.679688 175.269531 251.09375 180.414062 C 252.144531 181.621094 253.066406 182.917969 253.863281 184.304688 C 254.65625 185.691406 255.308594 187.144531 255.816406 188.660156 C 256.328125 190.179688 256.683594 191.730469 256.882812 193.316406 C 257.085938 194.90625 257.132812 196.496094 257.019531 198.09375 C 256.882812 199.566406 256.59375 201.011719 256.152344 202.425781 C 255.742188 203.800781 255.1875 205.121094 254.5 206.378906 C 253.078125 209.03125 251.273438 211.390625 249.085938 213.449219 C 246.875 215.589844 244.429688 217.414062 241.75 218.925781 C 238.894531 220.554688 235.894531 221.839844 232.746094 222.785156 C 225.324219 225.089844 217.566406 225.9375 209.867188 226.84375 C 202.664062 227.683594 195.433594 228.601562 188.472656 230.738281 C 181.835938 232.789062 175.453125 235.925781 170.414062 240.78125 C 165.15625 245.847656 161.738281 252.5 156.359375 257.449219 C 154.007812 259.726562 151.277344 261.355469 148.15625 262.339844 C 146.636719 262.800781 145.089844 262.953125 143.507812 262.800781 C 143.371094 262.796875 143.234375 262.78125 143.097656 262.757812 L 142.539062 262.648438 C 142.136719 262.558594 141.742188 262.441406 141.355469 262.300781 C 140.75 262.046875 140.207031 261.699219 139.722656 261.253906 C 139.480469 261.035156 139.277344 260.785156 139.113281 260.507812 C 138.945312 260.234375 138.796875 259.957031 138.667969 259.664062 C 138.523438 259.289062 138.410156 258.902344 138.328125 258.507812 C 138.25 258.191406 138.199219 257.875 138.175781 257.550781 C 138.105469 256.75 138.105469 255.949219 138.175781 255.148438 C 138.175781 254.976562 138.210938 254.804688 138.230469 254.636719 C 138.230469 254.585938 138.230469 254.402344 138.28125 254.347656 C 138.335938 254 138.402344 253.664062 138.484375 253.308594 C 138.636719 252.613281 138.828125 251.925781 139.058594 251.253906 C 139.175781 250.925781 139.296875 250.570312 139.429688 250.277344 C 139.429688 250.242188 139.429688 250.207031 139.429688 250.171875 L 139.476562 250.078125 C 139.550781 249.90625 139.625 249.726562 139.707031 249.558594 C 140.3125 248.277344 141.007812 247.046875 141.800781 245.875 C 142.195312 245.273438 142.613281 244.683594 143.050781 244.109375 C 143.414062 243.617188 143.734375 243.183594 144.246094 242.578125 C 145.183594 241.417969 146.160156 240.296875 147.152344 239.15625 C 149.140625 236.894531 151.179688 234.671875 153.039062 232.3125 C 155.097656 229.847656 156.777344 227.148438 158.082031 224.214844 C 159.382812 221.277344 160.257812 218.21875 160.699219 215.039062 C 161.730469 208.417969 161.425781 201.710938 161.164062 195.046875 C 161.035156 191.71875 160.917969 188.394531 160.988281 185.070312 C 161.027344 183.433594 161.101562 181.804688 161.261719 180.175781 C 161.398438 178.65625 161.628906 177.152344 161.945312 175.660156 C 162.515625 172.664062 163.496094 169.808594 164.890625 167.097656 C 164.996094 166.90625 165.058594 166.703125 165.085938 166.484375 C 165.113281 166.269531 165.097656 166.054688 165.042969 165.84375 C 164.988281 165.632812 164.894531 165.4375 164.765625 165.261719 C 164.636719 165.085938 164.480469 164.941406 164.296875 164.824219 C 164.105469 164.71875 163.902344 164.648438 163.683594 164.621094 C 163.46875 164.59375 163.253906 164.605469 163.042969 164.660156 C 162.832031 164.71875 162.640625 164.8125 162.464844 164.941406 C 162.289062 165.074219 162.144531 165.234375 162.03125 165.421875 C 158.828125 171.539062 157.835938 178.421875 157.699219 185.265625 C 157.5625 192.109375 158.21875 198.953125 158.136719 205.796875 C 158.152344 209.101562 157.882812 212.378906 157.324219 215.632812 C 156.75 218.816406 155.714844 221.839844 154.21875 224.707031 C 151.335938 230.113281 146.996094 234.253906 142.980469 238.984375 C 138.96875 243.710938 135.402344 248.941406 134.855469 255.277344 C 134.546875 258.914062 135.621094 262.855469 138.957031 264.777344 C 142.128906 266.605469 146.269531 266.417969 149.652344 265.3125 C 156.914062 262.9375 161.726562 256.824219 166.140625 250.9375 C 168.308594 247.859375 170.75 245.011719 173.460938 242.398438 C 176.023438 240.121094 178.847656 238.242188 181.9375 236.765625 C 188.089844 233.734375 195.171875 232.144531 202.054688 231.113281 C 210.011719 229.921875 218.0625 229.394531 225.980469 227.839844 C 233.136719 226.433594 240.191406 224.117188 246.246094 219.957031 C 251.714844 216.226562 256.28125 211.226562 258.722656 205.023438 C 261.304688 198.460938 260.726562 191.171875 257.8125 184.828125 C 257.050781 183.222656 256.152344 181.699219 255.121094 180.253906 C 254.089844 178.808594 252.9375 177.464844 251.664062 176.222656 C 250.394531 174.984375 249.023438 173.863281 247.550781 172.867188 C 246.082031 171.871094 244.535156 171.015625 242.910156 170.292969 C 239.476562 168.75 235.894531 167.746094 232.160156 167.28125 C 228.433594 166.800781 224.75 167.054688 221.015625 167.324219 C 219.0625 167.492188 217.105469 167.53125 215.144531 167.4375 C 214.261719 167.394531 213.390625 167.273438 212.527344 167.078125 C 212.109375 166.988281 211.699219 166.878906 211.289062 166.746094 L 210.605469 166.507812 L 210.148438 166.324219 C 207.695312 165.144531 205.578125 163.527344 203.796875 161.472656 C 205.890625 159.417969 207.851562 157.226562 209.855469 155.167969 C 212.140625 152.65625 214.785156 150.601562 217.785156 149.007812 C 217.972656 148.894531 218.128906 148.753906 218.261719 148.578125 C 218.394531 148.402344 218.488281 148.210938 218.542969 147.996094 C 218.597656 147.785156 218.609375 147.570312 218.582031 147.355469 C 218.554688 147.136719 218.488281 146.933594 218.378906 146.742188 C 218.265625 146.558594 218.121094 146.398438 217.945312 146.269531 C 217.769531 146.136719 217.574219 146.046875 217.363281 145.988281 C 217.152344 145.933594 216.9375 145.921875 216.722656 145.949219 C 216.503906 145.976562 216.300781 146.042969 216.109375 146.148438 C 210.164062 149.105469 206.257812 154.550781 201.605469 159.082031 C 199.859375 156.957031 197.914062 155.03125 195.773438 153.308594 C 193.285156 151.464844 190.5 150.359375 187.425781 149.996094 C 185.980469 149.777344 184.554688 149.875 183.152344 150.292969 C 181.746094 150.714844 180.5 151.414062 179.410156 152.390625 C 178.871094 152.917969 178.414062 153.507812 178.039062 154.164062 C 177.664062 154.816406 177.382812 155.511719 177.199219 156.242188 C 177.015625 156.972656 176.933594 157.71875 176.953125 158.472656 C 176.972656 159.226562 177.09375 159.964844 177.316406 160.683594 Z M 181.828125 162.3125 C 181.691406 162.148438 181.800781 162.285156 181.828125 162.3125 Z M 180.570312 156.378906 Z M 180.277344 157.488281 C 180.277344 157.585938 180.277344 157.589844 180.277344 157.488281 Z M 180.277344 157.660156 C 180.28125 157.597656 180.28125 157.535156 180.277344 157.476562 C 180.339844 157.1875 180.398438 156.90625 180.488281 156.625 C 180.488281 156.542969 180.550781 156.460938 180.578125 156.371094 C 180.605469 156.285156 180.722656 156.078125 180.804688 155.929688 L 181.042969 155.53125 L 181.199219 155.3125 C 181.394531 155.066406 181.605469 154.839844 181.835938 154.628906 C 181.910156 154.558594 181.992188 154.484375 182.082031 154.414062 L 182.273438 154.273438 C 182.546875 154.089844 182.828125 153.929688 183.121094 153.785156 C 183.183594 153.785156 183.304688 153.703125 183.339844 153.691406 L 183.632812 153.585938 C 183.949219 153.484375 184.269531 153.402344 184.597656 153.335938 L 184.910156 153.28125 L 185.15625 153.28125 C 185.503906 153.246094 185.851562 153.234375 186.195312 153.246094 C 186.496094 153.246094 186.796875 153.246094 187.097656 153.292969 L 187.371094 153.292969 L 187.886719 153.382812 C 188.558594 153.511719 189.222656 153.6875 189.875 153.910156 C 190.160156 154.003906 190.433594 154.109375 190.714844 154.222656 L 191.050781 154.367188 L 191.5625 154.605469 C 192.183594 154.921875 192.785156 155.269531 193.367188 155.65625 C 193.613281 155.820312 193.851562 155.988281 194.09375 156.167969 L 194.359375 156.378906 L 194.769531 156.734375 C 195.363281 157.269531 195.9375 157.832031 196.492188 158.414062 C 197.394531 159.34375 198.261719 160.316406 199.121094 161.285156 C 197.074219 163.0625 194.765625 164.382812 192.199219 165.25 C 190.671875 165.730469 189.109375 165.902344 187.515625 165.761719 L 187.332031 165.761719 L 186.875 165.671875 C 186.511719 165.59375 186.160156 165.488281 185.8125 165.359375 L 185.554688 165.261719 L 185.199219 165.097656 C 184.867188 164.933594 184.542969 164.75 184.226562 164.550781 C 183.976562 164.394531 183.730469 164.222656 183.488281 164.042969 C 183.441406 163.996094 183.257812 163.847656 183.222656 163.820312 C 183.078125 163.695312 182.941406 163.574219 182.8125 163.441406 C 182.574219 163.226562 182.34375 163 182.128906 162.757812 C 182.011719 162.628906 181.902344 162.492188 181.792969 162.355469 L 181.609375 162.109375 C 181.4375 161.847656 181.269531 161.585938 181.117188 161.320312 C 181.027344 161.164062 180.945312 161.007812 180.863281 160.847656 C 180.863281 160.792969 180.761719 160.617188 180.726562 160.554688 C 180.507812 160 180.347656 159.429688 180.25 158.84375 C 180.25 158.789062 180.25 158.691406 180.25 158.632812 C 180.25 158.570312 180.25 158.34375 180.25 158.199219 C 180.25 158.054688 180.257812 157.824219 180.261719 157.660156 Z M 180.277344 157.660156 " fill-opacity="1" fill-rule="nonzero"/><path fill="rgb(19.999695%, 41.958618%, 52.938843%)" d="M 239.589844 294.011719 C 240.019531 294.011719 240.449219 294.011719 240.875 294.011719 C 241.226562 294.003906 241.578125 294.023438 241.925781 294.082031 L 242.03125 294.082031 L 242.253906 294.121094 C 242.480469 294.171875 242.699219 294.226562 242.9375 294.289062 C 243.117188 294.335938 243.292969 294.390625 243.464844 294.457031 L 243.535156 294.457031 L 243.671875 294.519531 C 243.832031 294.59375 243.984375 294.679688 244.136719 294.773438 L 244.355469 294.917969 C 244.484375 295.027344 244.613281 295.148438 244.730469 295.273438 L 244.867188 295.421875 C 244.957031 295.558594 245.042969 295.691406 245.121094 295.832031 C 245.195312 295.976562 245.203125 295.984375 245.234375 296.058594 C 245.238281 296.074219 245.238281 296.089844 245.234375 296.109375 C 245.300781 296.316406 245.398438 296.507812 245.535156 296.679688 C 245.675781 296.851562 245.839844 296.992188 246.03125 297.097656 C 246.21875 297.207031 246.425781 297.273438 246.640625 297.300781 C 246.859375 297.332031 247.074219 297.320312 247.285156 297.265625 C 247.5 297.203125 247.691406 297.105469 247.863281 296.96875 C 248.035156 296.832031 248.175781 296.667969 248.285156 296.476562 C 248.394531 296.28125 248.460938 296.078125 248.488281 295.859375 C 248.515625 295.640625 248.5 295.425781 248.441406 295.210938 C 248.109375 294.285156 247.59375 293.476562 246.898438 292.78125 C 246.199219 292.085938 245.390625 291.574219 244.464844 291.242188 C 242.757812 290.648438 241.003906 290.449219 239.207031 290.644531 C 237.382812 290.871094 235.582031 291.226562 233.808594 291.714844 C 233.375 291.808594 232.945312 291.90625 232.507812 291.980469 C 232.296875 292.023438 232.078125 292.0625 231.859375 292.089844 L 231.597656 292.132812 L 231.378906 292.132812 C 230.5 292.269531 229.617188 292.320312 228.726562 292.28125 L 228.449219 292.28125 C 228.25 292.246094 228.058594 292.199219 227.867188 292.152344 C 227.675781 292.101562 227.488281 292.042969 227.304688 291.972656 L 227.203125 291.933594 L 227.121094 291.933594 L 226.972656 291.84375 C 226.800781 291.753906 226.644531 291.644531 226.480469 291.550781 L 226.300781 291.398438 C 226.15625 291.261719 226.027344 291.113281 225.890625 290.976562 L 225.660156 290.613281 C 225.582031 290.480469 225.515625 290.34375 225.445312 290.207031 L 225.445312 290.167969 C 225.34375 289.917969 225.261719 289.664062 225.195312 289.402344 C 225.050781 288.886719 224.949219 288.355469 224.851562 287.828125 C 224.710938 286.792969 224.480469 285.78125 224.167969 284.789062 C 223.507812 283.035156 222.523438 281.488281 221.214844 280.148438 C 219.90625 278.804688 218.386719 277.785156 216.648438 277.082031 C 214.875 276.3125 213.027344 275.847656 211.101562 275.679688 C 209.179688 275.515625 207.277344 275.65625 205.398438 276.109375 C 201.015625 277.183594 197.15625 279.703125 193.777344 282.667969 C 190.539062 285.527344 187.84375 288.878906 184.988281 292.105469 C 183.582031 293.714844 182.078125 295.222656 180.476562 296.632812 L 179.902344 297.113281 L 179.59375 297.359375 L 179.523438 297.40625 C 179.085938 297.738281 178.636719 298.09375 178.160156 298.359375 C 177.253906 298.949219 176.308594 299.460938 175.320312 299.890625 L 175.273438 299.890625 L 175.179688 299.925781 L 174.78125 300.078125 L 173.898438 300.386719 C 173.332031 300.570312 172.757812 300.726562 172.183594 300.871094 C 170.996094 301.164062 169.792969 301.382812 168.589844 301.554688 C 166.246094 301.875 163.925781 302.316406 161.628906 302.871094 C 157.78125 303.917969 153.84375 306.039062 151.765625 309.574219 C 151.246094 310.460938 150.871094 311.402344 150.636719 312.402344 C 150.582031 312.613281 150.566406 312.828125 150.59375 313.046875 C 150.621094 313.265625 150.6875 313.46875 150.796875 313.660156 C 150.902344 313.851562 151.042969 314.015625 151.21875 314.148438 C 151.390625 314.285156 151.582031 314.378906 151.792969 314.4375 C 152.003906 314.496094 152.21875 314.511719 152.4375 314.484375 C 152.65625 314.460938 152.859375 314.390625 153.050781 314.285156 C 153.242188 314.175781 153.40625 314.035156 153.539062 313.863281 C 153.675781 313.6875 153.773438 313.496094 153.832031 313.285156 C 153.921875 312.894531 154.039062 312.511719 154.179688 312.136719 C 154.179688 312.175781 154.328125 311.785156 154.371094 311.703125 C 154.492188 311.472656 154.625 311.242188 154.761719 311.019531 C 154.875 310.835938 155 310.65625 155.121094 310.480469 L 155.339844 310.210938 C 155.640625 309.863281 155.964844 309.535156 156.304688 309.226562 C 156.46875 309.078125 156.640625 308.933594 156.8125 308.789062 L 156.949219 308.6875 L 157.117188 308.554688 C 157.507812 308.28125 157.910156 308.023438 158.320312 307.78125 C 158.730469 307.542969 159.128906 307.339844 159.539062 307.140625 L 160.105469 306.886719 L 160.222656 306.832031 L 160.671875 306.660156 C 164.882812 305.078125 169.476562 305.046875 173.789062 303.855469 C 176.011719 303.25 178.082031 302.316406 180.003906 301.050781 C 181.808594 299.824219 183.472656 298.425781 184.992188 296.859375 C 187.945312 293.882812 190.460938 290.53125 193.410156 287.527344 C 194.160156 286.746094 194.933594 285.992188 195.738281 285.265625 C 196.101562 284.9375 196.472656 284.625 196.839844 284.308594 L 197.433594 283.816406 L 197.734375 283.578125 L 197.8125 283.515625 L 197.886719 283.46875 C 199.554688 282.183594 201.34375 281.109375 203.257812 280.238281 L 203.441406 280.160156 L 203.695312 280.058594 L 204.378906 279.800781 C 204.878906 279.621094 205.382812 279.46875 205.898438 279.332031 C 206.410156 279.195312 206.785156 279.113281 207.265625 279.03125 C 207.359375 279.03125 208.015625 278.867188 207.558594 278.984375 C 207.800781 278.933594 208.046875 278.910156 208.296875 278.910156 C 209.128906 278.84375 209.964844 278.84375 210.796875 278.910156 L 211.421875 278.972656 L 211.476562 278.972656 L 211.722656 279.003906 C 212.179688 279.085938 212.625 279.175781 213.089844 279.292969 C 213.554688 279.410156 213.886719 279.511719 214.277344 279.648438 L 214.867188 279.859375 L 215.089844 279.949219 L 215.132812 279.949219 L 215.207031 279.984375 C 215.96875 280.328125 216.695312 280.734375 217.394531 281.195312 L 217.777344 281.476562 L 218.113281 281.734375 C 218.441406 282.023438 218.761719 282.324219 219.0625 282.640625 C 219.199219 282.78125 219.328125 282.933594 219.457031 283.085938 L 219.609375 283.261719 C 219.835938 283.582031 220.058594 283.90625 220.257812 284.246094 C 220.433594 284.5625 220.59375 284.882812 220.738281 285.210938 C 220.738281 285.308594 220.859375 285.527344 220.886719 285.597656 C 220.960938 285.828125 221.039062 286.0625 221.097656 286.28125 C 221.378906 287.328125 221.488281 288.410156 221.722656 289.460938 C 221.894531 290.519531 222.28125 291.496094 222.878906 292.386719 C 223.472656 293.277344 224.226562 294.003906 225.140625 294.566406 C 228.460938 296.4375 232.660156 295.539062 236.152344 294.609375 C 236.960938 294.351562 237.789062 294.179688 238.632812 294.089844 C 238.160156 294.121094 238.816406 294.089844 238.925781 294.089844 Z M 179.59375 297.167969 Z M 225.308594 289.957031 C 225.277344 289.894531 225.308594 289.914062 225.308594 289.957031 Z M 227.113281 291.851562 L 227.265625 291.914062 C 227.265625 291.914062 227.175781 291.886719 227.113281 291.851562 Z M 228.53125 292.246094 L 228.667969 292.246094 C 228.621094 292.269531 228.578125 292.277344 228.53125 292.28125 Z M 228.53125 292.246094 " fill-opacity="1" fill-rule="nonzero"/><path fill="rgb(19.999695%, 41.958618%, 52.938843%)" d="M 82.644531 236.730469 L 82.589844 236.800781 C 82.527344 236.847656 82.445312 237.039062 82.644531 236.730469 Z M 82.644531 236.730469 " fill-opacity="1" fill-rule="nonzero"/><path fill="rgb(19.999695%, 41.958618%, 52.938843%)" d="M 83.765625 230.101562 C 83.484375 230.414062 83.699219 230.1875 83.765625 230.101562 Z M 83.765625 230.101562 " fill-opacity="1" fill-rule="nonzero"/><path fill="rgb(19.999695%, 41.958618%, 52.938843%)" d="M 79.300781 243.382812 C 79.398438 243.007812 79.316406 243.253906 79.300781 243.382812 Z M 79.300781 243.382812 " fill-opacity="1" fill-rule="nonzero"/><path fill="rgb(19.999695%, 41.958618%, 52.938843%)" d="M 196.820312 55.667969 L 196.867188 55.558594 Z M 196.820312 55.667969 " fill-opacity="1" fill-rule="nonzero"/><g clip-path="url(#id9)"><path fill="rgb(19.999695%, 41.958618%, 52.938843%)" d="M 205.527344 110.925781 C 210.484375 119 215.742188 126.882812 220.675781 134.972656 C 221.378906 136.125 222.078125 137.289062 222.78125 138.457031 C 222.855469 138.578125 222.945312 138.691406 223.046875 138.789062 C 223.152344 138.886719 223.265625 138.972656 223.390625 139.042969 C 223.515625 139.113281 223.648438 139.167969 223.785156 139.203125 C 223.925781 139.238281 224.066406 139.257812 224.210938 139.257812 C 224.351562 139.257812 224.492188 139.238281 224.632812 139.203125 C 224.773438 139.167969 224.902344 139.113281 225.027344 139.042969 C 225.152344 138.972656 225.269531 138.886719 225.371094 138.789062 C 225.472656 138.691406 225.5625 138.578125 225.636719 138.457031 C 230.523438 131.300781 234.953125 123.875 238.925781 116.171875 C 240.832031 112.59375 242.691406 108.988281 244.59375 105.40625 C 246.5625 101.699219 248.488281 98.011719 250.0625 94.121094 C 253.285156 86.296875 255.253906 78.167969 255.96875 69.730469 C 256.335938 65.71875 256.335938 61.707031 255.96875 57.695312 C 255.683594 54.296875 254.820312 51.050781 253.382812 47.960938 C 251.917969 44.984375 249.820312 42.554688 247.089844 40.671875 C 243.875 38.53125 240.34375 37.277344 236.5 36.910156 C 234.582031 36.695312 232.675781 36.765625 230.777344 37.125 C 228.882812 37.484375 227.078125 38.113281 225.371094 39.011719 C 223.675781 39.96875 222.113281 41.109375 220.683594 42.433594 C 219.347656 43.625 218.121094 44.925781 217.011719 46.332031 C 212.371094 52.21875 209.730469 59.679688 210.648438 67.214844 C 211.535156 74.425781 215.359375 81.949219 222.070312 85.328125 C 225.222656 86.917969 229.109375 87.722656 232.496094 86.367188 C 236.375 84.816406 238.433594 81.179688 239.589844 77.339844 C 240.746094 73.503906 241.160156 68.980469 239.789062 65.023438 C 239.480469 64.105469 239.074219 63.234375 238.574219 62.410156 C 238.070312 61.585938 237.484375 60.824219 236.8125 60.132812 C 236.136719 59.4375 235.398438 58.828125 234.589844 58.300781 C 233.777344 57.773438 232.921875 57.34375 232.015625 57.007812 C 230.265625 56.394531 228.480469 56.277344 226.664062 56.652344 C 226.449219 56.710938 226.257812 56.808594 226.082031 56.945312 C 225.910156 57.082031 225.769531 57.246094 225.660156 57.441406 C 225.550781 57.632812 225.484375 57.839844 225.457031 58.058594 C 225.433594 58.277344 225.449219 58.492188 225.507812 58.707031 C 225.570312 58.917969 225.671875 59.109375 225.808594 59.28125 C 225.945312 59.453125 226.109375 59.59375 226.300781 59.699219 C 226.492188 59.808594 226.695312 59.878906 226.914062 59.90625 C 227.132812 59.9375 227.347656 59.925781 227.558594 59.871094 C 227.628906 59.871094 227.988281 59.808594 227.96875 59.800781 L 228.453125 59.800781 C 228.8125 59.796875 229.171875 59.8125 229.527344 59.847656 L 229.929688 59.917969 C 230.128906 59.957031 230.320312 60 230.511719 60.054688 L 231.003906 60.210938 L 231.441406 60.375 C 232.136719 60.6875 232.792969 61.070312 233.402344 61.527344 L 233.726562 61.785156 L 234.121094 62.140625 C 234.4375 62.441406 234.734375 62.757812 235.015625 63.09375 L 235.1875 63.3125 L 235.230469 63.359375 C 235.332031 63.511719 235.433594 63.65625 235.53125 63.804688 C 235.769531 64.164062 235.988281 64.539062 236.179688 64.925781 C 236.339844 65.230469 236.472656 65.546875 236.582031 65.871094 C 236.746094 66.34375 236.890625 66.824219 237.003906 67.308594 C 237.21875 68.140625 237.332031 68.988281 237.347656 69.847656 C 237.378906 70.804688 237.34375 71.757812 237.230469 72.707031 C 237.230469 72.796875 237.230469 72.886719 237.230469 72.976562 C 237.230469 73 237.230469 73.027344 237.230469 73.050781 C 237.191406 73.289062 237.15625 73.523438 237.109375 73.734375 C 237.027344 74.207031 236.921875 74.671875 236.808594 75.144531 C 236.589844 76.046875 236.316406 76.9375 235.996094 77.808594 C 235.917969 78.019531 235.835938 78.230469 235.753906 78.4375 L 235.753906 78.476562 L 235.5625 78.757812 C 235.359375 79.191406 235.128906 79.609375 234.878906 80.019531 C 234.507812 80.730469 234.027344 81.359375 233.4375 81.90625 C 233.28125 82.058594 233.125 82.199219 232.953125 82.34375 L 232.910156 82.34375 L 232.71875 82.480469 C 232.378906 82.71875 232.023438 82.925781 231.648438 83.105469 L 231.496094 83.179688 L 231.449219 83.179688 L 230.910156 83.363281 C 230.527344 83.472656 230.140625 83.5625 229.746094 83.625 L 229.519531 83.625 C 229.328125 83.625 229.136719 83.625 228.941406 83.625 C 228.527344 83.632812 228.113281 83.621094 227.703125 83.582031 L 227.367188 83.542969 L 226.894531 83.453125 C 226.5 83.378906 226.109375 83.273438 225.726562 83.164062 C 225.34375 83.054688 224.953125 82.90625 224.570312 82.761719 L 224.488281 82.863281 L 224.296875 82.777344 C 224.105469 82.695312 223.921875 82.605469 223.738281 82.507812 C 223 82.136719 222.296875 81.714844 221.625 81.234375 L 221.285156 80.976562 L 220.878906 80.648438 C 220.566406 80.378906 220.265625 80.101562 219.976562 79.8125 C 219.382812 79.214844 218.820312 78.585938 218.296875 77.921875 L 218.253906 77.867188 L 218.0625 77.609375 L 217.695312 77.09375 C 217.457031 76.746094 217.230469 76.410156 217.011719 76.019531 C 216.570312 75.296875 216.167969 74.546875 215.816406 73.777344 L 215.589844 73.269531 L 215.445312 72.925781 C 215.28125 72.511719 215.132812 72.085938 214.988281 71.65625 C 214.714844 70.84375 214.488281 70.023438 214.304688 69.191406 C 214.222656 68.800781 214.148438 68.402344 214.078125 68.015625 C 214.039062 67.800781 214.011719 67.589844 213.976562 67.378906 C 213.976562 67.242188 213.976562 67.097656 213.921875 66.960938 C 213.832031 66.109375 213.785156 65.253906 213.777344 64.398438 C 213.773438 63.546875 213.8125 62.691406 213.894531 61.839844 L 213.957031 61.285156 L 213.957031 61.238281 L 213.996094 60.9375 C 214.066406 60.507812 214.140625 60.082031 214.230469 59.664062 C 214.40625 58.816406 214.625 57.980469 214.878906 57.160156 C 215.003906 56.777344 215.132812 56.394531 215.269531 56.015625 C 215.34375 55.8125 215.417969 55.613281 215.5 55.40625 C 215.535156 55.3125 215.578125 55.210938 215.617188 55.113281 L 215.617188 54.984375 C 216.296875 53.394531 217.117188 51.878906 218.078125 50.4375 C 218.296875 50.105469 218.527344 49.753906 218.761719 49.441406 C 218.882812 49.261719 219.015625 49.089844 219.144531 48.917969 L 219.21875 48.816406 L 219.4375 48.550781 C 219.976562 47.867188 220.546875 47.222656 221.148438 46.59375 C 221.75 45.964844 222.328125 45.402344 222.953125 44.839844 C 223.273438 44.554688 223.636719 44.273438 223.9375 43.992188 L 224.441406 43.589844 L 224.53125 43.519531 L 224.75 43.355469 C 225.457031 42.820312 226.199219 42.34375 226.976562 41.917969 C 227.347656 41.71875 227.722656 41.535156 228.105469 41.363281 C 228.175781 41.363281 228.398438 41.25 228.441406 41.226562 L 229.125 40.980469 C 229.949219 40.710938 230.789062 40.5 231.648438 40.351562 L 232.085938 40.289062 C 232.277344 40.261719 232.46875 40.242188 232.660156 40.226562 C 233.089844 40.1875 233.527344 40.167969 233.964844 40.160156 C 237.398438 40.09375 240.636719 40.871094 243.671875 42.488281 C 244.355469 42.855469 245.015625 43.269531 245.652344 43.71875 L 246.035156 44.007812 L 246.246094 44.183594 C 246.558594 44.441406 246.851562 44.699219 247.128906 44.964844 C 247.636719 45.449219 248.109375 45.964844 248.550781 46.511719 C 248.605469 46.578125 248.660156 46.640625 248.707031 46.710938 C 248.796875 46.839844 248.898438 46.960938 248.988281 47.085938 C 249.207031 47.402344 249.417969 47.722656 249.617188 48.042969 C 250 48.660156 250.34375 49.296875 250.648438 49.953125 C 250.726562 50.117188 250.792969 50.289062 250.875 50.453125 C 250.902344 50.507812 250.921875 50.5625 250.945312 50.617188 C 251.09375 50.980469 251.230469 51.347656 251.355469 51.71875 C 251.839844 53.167969 252.207031 54.648438 252.449219 56.160156 C 252.449219 56.332031 252.496094 56.503906 252.523438 56.671875 C 252.523438 56.734375 252.523438 56.796875 252.523438 56.859375 C 252.523438 56.894531 252.523438 56.929688 252.523438 56.96875 C 252.570312 57.363281 252.617188 57.761719 252.652344 58.164062 C 252.734375 59.046875 252.78125 59.945312 252.816406 60.835938 C 252.890625 62.820312 252.890625 64.804688 252.816406 66.78125 C 252.660156 70.667969 252.191406 74.511719 251.410156 78.320312 C 250.613281 82.21875 249.539062 86.039062 248.1875 89.785156 C 246.878906 93.429688 245.3125 96.960938 243.492188 100.378906 C 241.722656 103.730469 239.929688 107.085938 238.167969 110.445312 C 234.402344 117.644531 230.558594 124.816406 226.179688 131.660156 C 225.550781 132.644531 224.898438 133.632812 224.242188 134.601562 C 219.671875 127.074219 214.867188 119.703125 210.183594 112.25 C 208.0625 108.871094 205.984375 105.460938 204.03125 101.984375 C 203.121094 100.34375 202.238281 98.671875 201.40625 96.984375 C 201.003906 96.171875 200.617188 95.351562 200.238281 94.519531 L 199.746094 93.410156 L 199.476562 92.792969 L 199.421875 92.671875 C 199.421875 92.628906 199.292969 92.355469 199.28125 92.324219 C 197.921875 89.027344 196.835938 85.648438 196.019531 82.179688 C 195.597656 80.402344 195.246094 78.59375 194.980469 76.78125 L 194.898438 76.207031 C 194.898438 76.207031 194.851562 75.835938 194.835938 75.753906 C 194.777344 75.253906 194.722656 74.753906 194.667969 74.253906 C 194.570312 73.289062 194.488281 72.320312 194.433594 71.339844 C 194.292969 69.351562 194.292969 67.367188 194.433594 65.378906 C 194.433594 64.914062 194.515625 64.457031 194.570312 64.011719 C 194.570312 63.921875 194.632812 63.59375 194.570312 63.941406 L 194.613281 63.648438 C 194.652344 63.359375 194.699219 63.074219 194.753906 62.777344 C 194.925781 61.8125 195.136719 60.863281 195.398438 59.917969 C 195.65625 58.972656 195.953125 58.035156 196.285156 57.117188 C 196.449219 56.652344 196.636719 56.203125 196.820312 55.75 C 196.839844 55.714844 196.855469 55.679688 196.867188 55.640625 C 196.902344 55.570312 196.929688 55.496094 196.964844 55.429688 C 197.074219 55.175781 197.183594 54.933594 197.296875 54.6875 C 198.132812 52.90625 199.105469 51.199219 200.214844 49.570312 C 200.496094 49.167969 200.777344 48.761719 201.070312 48.367188 L 201.25 48.132812 L 201.398438 47.933594 C 201.453125 47.867188 201.535156 47.757812 201.535156 47.761719 L 201.808594 47.421875 C 202.433594 46.65625 203.082031 45.914062 203.757812 45.203125 C 204.441406 44.519531 205.125 43.835938 205.875 43.152344 C 206.238281 42.820312 206.613281 42.507812 206.992188 42.191406 L 207.511719 41.773438 L 207.707031 41.617188 L 207.925781 41.445312 C 209.496094 40.265625 211.15625 39.226562 212.902344 38.324219 C 213.335938 38.105469 213.777344 37.886719 214.222656 37.683594 L 214.90625 37.386719 L 214.988281 37.386719 L 215.324219 37.25 C 216.234375 36.882812 217.160156 36.566406 218.097656 36.28125 C 219.035156 35.992188 220 35.765625 220.960938 35.59375 C 221.175781 35.535156 221.367188 35.4375 221.542969 35.300781 C 221.714844 35.164062 221.855469 35 221.964844 34.808594 C 222.070312 34.613281 222.140625 34.410156 222.167969 34.191406 C 222.191406 33.972656 222.175781 33.753906 222.117188 33.542969 C 222.054688 33.332031 221.957031 33.140625 221.816406 32.96875 C 221.679688 32.796875 221.515625 32.65625 221.324219 32.550781 C 221.132812 32.441406 220.929688 32.375 220.710938 32.34375 C 220.496094 32.316406 220.28125 32.332031 220.066406 32.386719 C 218.0625 32.8125 216.109375 33.410156 214.203125 34.171875 C 212.300781 34.9375 210.476562 35.855469 208.730469 36.929688 C 206.984375 38.003906 205.339844 39.21875 203.800781 40.574219 C 202.261719 41.929688 200.847656 43.40625 199.558594 45.003906 C 194.3125 51.417969 191.035156 59.472656 191.003906 67.820312 C 191.003906 75.605469 192.347656 83.148438 195.035156 90.453125 C 197.703125 97.597656 201.496094 104.375 205.527344 110.925781 Z M 235.148438 63.25 Z M 235.148438 63.25 " fill-opacity="1" fill-rule="nonzero"/></g></svg>